<?xml version="1.0" encoding="UTF-8" standalone="no"?>
<!-- Created with Inkscape (http://www.inkscape.org/) -->

<svg
   xmlns:dc="http://purl.org/dc/elements/1.1/"
   xmlns:cc="http://creativecommons.org/ns#"
   xmlns:rdf="http://www.w3.org/1999/02/22-rdf-syntax-ns#"
   xmlns:svg="http://www.w3.org/2000/svg"
   xmlns="http://www.w3.org/2000/svg"
   xmlns:sodipodi="http://sodipodi.sourceforge.net/DTD/sodipodi-0.dtd"
   xmlns:inkscape="http://www.inkscape.org/namespaces/inkscape"
   width="210mm"
   height="297mm"
   viewBox="0 0 744.09448819 1052.3622047"
   id="svg2"
   version="1.1"
   inkscape:version="0.92.4 (5da689c313, 2019-01-14)"
   sodipodi:docname="golemi - zvezdobroika bradva.svg"
   inkscape:export-filename="/home/v/Dropbox/Files/PHONE/boiliq bradva.png"
   inkscape:export-xdpi="250"
   inkscape:export-ydpi="250">
  <defs
     id="defs4" />
  <sodipodi:namedview
     id="base"
     pagecolor="#ffffff"
     bordercolor="#666666"
     borderopacity="1.0"
     inkscape:pageopacity="0.0"
     inkscape:pageshadow="2"
     inkscape:zoom="0.55861435"
     inkscape:cx="265.53034"
     inkscape:cy="724.42494"
     inkscape:document-units="px"
     inkscape:current-layer="layer3"
     showgrid="false"
     inkscape:window-width="1920"
     inkscape:window-height="1052"
     inkscape:window-x="0"
     inkscape:window-y="0"
     inkscape:window-maximized="1" />
  <metadata
     id="metadata7">
    <rdf:RDF>
      <cc:Work
         rdf:about="">
        <dc:format>image/svg+xml</dc:format>
        <dc:type
           rdf:resource="http://purl.org/dc/dcmitype/StillImage" />
        <dc:title />
      </cc:Work>
    </rdf:RDF>
  </metadata>
  <g
     inkscape:groupmode="layer"
     id="layer2"
     inkscape:label="hartiq"
     style="display:inline"
     sodipodi:insensitive="true">
    <rect
       style="opacity:1;fill:#ffffff;fill-opacity:1;stroke:none;stroke-width:0.30000001;stroke-linecap:round;stroke-linejoin:miter;stroke-miterlimit:4;stroke-dasharray:none;stroke-dashoffset:0;stroke-opacity:1"
       id="rect4178"
       width="795.80603"
       height="1126.7738"
       x="-16.570068"
       y="-54.790977" />
  </g>
  <g
     inkscape:groupmode="layer"
     id="layer3"
     inkscape:label="tekst"
     style="display:inline"
     sodipodi:insensitive="true">
    <text
       xml:space="preserve"
       style="font-style:normal;font-weight:normal;line-height:0%;font-family:sans-serif;letter-spacing:0px;word-spacing:0px;fill:#000000;fill-opacity:1;stroke:none;stroke-width:1px;stroke-linecap:butt;stroke-linejoin:miter;stroke-opacity:1"
       x="90.586403"
       y="-683.35132"
       id="text4759"
       transform="rotate(90)"><tspan
         sodipodi:role="line"
         id="tspan4761"
         x="90.586403"
         y="-683.35132"
         style="font-style:normal;font-variant:normal;font-weight:normal;font-stretch:normal;font-size:27.5px;line-height:1.25;font-family:UnBatang;-inkscape-font-specification:UnBatang">Звездобройка бойлия</tspan></text>
    <flowRoot
       xml:space="preserve"
       id="flowRoot4813"
       style="font-style:normal;font-weight:normal;line-height:0.01%;font-family:sans-serif;letter-spacing:0px;word-spacing:0px;fill:#000000;fill-opacity:1;stroke:none;stroke-width:1px;stroke-linecap:butt;stroke-linejoin:miter;stroke-opacity:1"
       transform="rotate(-90,157.74087,248.45279)"><flowRegion
         id="flowRegion4815"><rect
           transform="scale(-1)"
           id="rect4817"
           width="331.4563"
           height="223.62251"
           x="-328.47644"
           y="-441.1127" /></flowRegion><flowPara
         style="font-style:normal;font-variant:normal;font-weight:500;font-stretch:normal;font-size:15px;line-height:1.25;font-family:'URW Palladio L';-inkscape-font-specification:'URW Palladio L Medium';text-align:justify;text-anchor:start"
         id="flowPara4823">Правени от сливенски майстори, тези пушки са сложни и красиви, някои се състоят от повече от 4000 елемента и са инкрустирани и гравирани. Те са много издължени и тънки и следователно много точни на дълги разстояния, могат да улучат дори и звезда.</flowPara></flowRoot>    <text
       xml:space="preserve"
       style="font-style:normal;font-weight:normal;line-height:0%;font-family:sans-serif;letter-spacing:0px;word-spacing:0px;fill:#000000;fill-opacity:1;stroke:none;stroke-width:1px;stroke-linecap:butt;stroke-linejoin:miter;stroke-opacity:1"
       x="382.81366"
       y="-452.26782"
       id="text4825"
       transform="rotate(90)"><tspan
         sodipodi:role="line"
         id="tspan4827"
         x="382.81366"
         y="-452.26782"
         style="font-style:normal;font-variant:normal;font-weight:normal;font-stretch:normal;font-size:20px;line-height:1.25;font-family:Ubuntu;-inkscape-font-specification:Ubuntu">12 щети</tspan></text>
    <text
       transform="rotate(90)"
       id="text4152"
       y="-683.35132"
       x="691.65564"
       style="font-style:normal;font-weight:normal;line-height:0%;font-family:sans-serif;letter-spacing:0px;word-spacing:0px;fill:#000000;fill-opacity:1;stroke:none;stroke-width:1px;stroke-linecap:butt;stroke-linejoin:miter;stroke-opacity:1"
       xml:space="preserve"><tspan
         style="font-style:normal;font-variant:normal;font-weight:normal;font-stretch:normal;font-size:27.5px;line-height:1.25;font-family:UnBatang;-inkscape-font-specification:UnBatang"
         y="-683.35132"
         x="691.65564"
         id="tspan4154"
         sodipodi:role="line">Майсторска брадва</tspan></text>
    <flowRoot
       transform="rotate(-90,452.03647,505.327)"
       style="font-style:normal;font-weight:normal;line-height:0.01%;font-family:sans-serif;letter-spacing:0px;word-spacing:0px;fill:#000000;fill-opacity:1;stroke:none;stroke-width:1px;stroke-linecap:butt;stroke-linejoin:miter;stroke-opacity:1"
       id="flowRoot4156"
       xml:space="preserve"><flowRegion
         id="flowRegion4158"><rect
           y="-441.1127"
           x="-328.47644"
           height="223.62251"
           width="331.4563"
           id="rect4160"
           transform="scale(-1)" /></flowRegion><flowPara
         style="font-style:normal;font-variant:normal;font-weight:500;font-stretch:normal;font-size:15px;line-height:1.25;font-family:'URW Palladio L';-inkscape-font-specification:'URW Palladio L Medium';text-align:justify;text-anchor:start"
         id="flowPara4162">Едно е да търкаш с бичкия, друго е да замахнеш с брадва...</flowPara></flowRoot>    <text
       transform="rotate(90)"
       id="text4164"
       y="-448.67505"
       x="864.40387"
       style="font-style:normal;font-weight:normal;line-height:0%;font-family:sans-serif;letter-spacing:0px;word-spacing:0px;fill:#000000;fill-opacity:1;stroke:none;stroke-width:1px;stroke-linecap:butt;stroke-linejoin:miter;stroke-opacity:1"
       xml:space="preserve"><tspan
         style="font-style:normal;font-variant:normal;font-weight:normal;font-stretch:normal;font-size:20px;line-height:1.25;font-family:Ubuntu;-inkscape-font-specification:Ubuntu"
         y="-448.67505"
         x="864.40387"
         id="tspan4166"
         sodipodi:role="line">3 щети</tspan></text>
  </g>
  <g
     inkscape:groupmode="layer"
     id="layer4"
     inkscape:label="bradva"
     sodipodi:insensitive="true">
    <path
       style="fill:none;fill-rule:evenodd;stroke:#000000;stroke-width:1px;stroke-linecap:butt;stroke-linejoin:miter;stroke-opacity:1"
       d="M 622.46836,894.43815 494.07968,606.3509 c 8.7399,-28.74225 -41.85685,-10.36452 -49.22895,-5.14666 10.23514,5.70875 22.31283,5.82163 28.86607,22.71245 l 125.21022,284.18345"
       id="path4181"
       inkscape:connector-curvature="0"
       sodipodi:nodetypes="ccccc" />
    <path
       style="fill:none;fill-rule:evenodd;stroke:#000000;stroke-width:1px;stroke-linecap:butt;stroke-linejoin:miter;stroke-opacity:1"
       d="m 630.37976,886.84321 c 15.42269,15.77856 26.12173,34.10064 25.15822,58.70254 -29.80618,-7.46681 -69.81088,29.62817 -75,48.25949 -34.98112,-19.99246 -67.16148,-76.22131 -64.39873,-120.72785 40.20238,55.43832 86.02413,43.62065 114.24051,13.76582 z"
       id="path4184"
       inkscape:connector-curvature="0"
       sodipodi:nodetypes="ccccc" />
    <path
       style="fill:none;fill-rule:evenodd;stroke:#000000;stroke-width:1px;stroke-linecap:butt;stroke-linejoin:miter;stroke-opacity:1"
       d="m 618.82912,953.29891 2.92722,5.93355 c 3.33716,3.47394 24.24449,-3.08843 25.57358,-9.39478 l -2.19542,-5.22152"
       id="path4186"
       inkscape:connector-curvature="0"
       sodipodi:nodetypes="cccc" />
  </g>
  <g
     inkscape:groupmode="layer"
     id="layer5"
     inkscape:label="bradva detail"
     sodipodi:insensitive="true">
    <path
       style="fill:none;fill-rule:evenodd;stroke:#000000;stroke-width:0.30000001;stroke-linecap:round;stroke-linejoin:miter;stroke-miterlimit:4;stroke-dasharray:none;stroke-opacity:1"
       d="m 559.86747,913.91998 c 0.54514,3.23052 1.17164,6.23131 1.87023,9.02857 m 5.85482,16.39717 c 6.38516,13.01048 14.91857,19.95532 23.04304,28.0548"
       id="path4188"
       inkscape:connector-curvature="0"
       sodipodi:nodetypes="cccc" />
    <path
       style="fill:none;fill-rule:evenodd;stroke:#000000;stroke-width:0.30000001;stroke-linecap:round;stroke-linejoin:miter;stroke-miterlimit:4;stroke-dasharray:none;stroke-opacity:1"
       d="m 445.01583,601.16283 c 16.72412,0.88711 34.37884,-1.25883 45.64873,17.40506 3.86161,6.59478 6.4075,16.29707 -1.34493,18.03798 -9.68445,1.03775 -9.35081,-9.28421 -8.46519,-11.47152 2.59655,-6.86706 7.93827,-1.66212 6.56645,4.66772"
       id="path4190"
       inkscape:connector-curvature="0"
       sodipodi:nodetypes="ccccc" />
    <path
       style="fill:none;fill-rule:evenodd;stroke:#000000;stroke-width:0.30000001;stroke-linecap:round;stroke-linejoin:miter;stroke-miterlimit:4;stroke-dasharray:none;stroke-opacity:1"
       d="m 497.15191,631.62169 c 2.3905,4.96831 5.87221,18.35422 1.12342,26.81121 -5.09891,7.44909 -8.98581,-12.51931 -1.7342,-5.31449"
       id="path4192"
       inkscape:connector-curvature="0"
       sodipodi:nodetypes="ccc" />
    <path
       style="fill:none;fill-rule:evenodd;stroke:#000000;stroke-width:0.30000001;stroke-linecap:round;stroke-linejoin:miter;stroke-miterlimit:4;stroke-dasharray:none;stroke-opacity:1"
       d="m 502.53165,646.65334 c 9.26564,20.66392 1.4998,46.07454 -1.50316,25.5538"
       id="path4194"
       inkscape:connector-curvature="0"
       sodipodi:nodetypes="cc" />
    <path
       style="fill:none;fill-rule:evenodd;stroke:#000000;stroke-width:0.30000001;stroke-linecap:round;stroke-linejoin:miter;stroke-miterlimit:4;stroke-dasharray:none;stroke-opacity:1"
       d="m 500.45707,620.67205 c 6.6845,18.62529 16.40338,45.51668 11.97159,60.75301 -2.10262,10.87914 -2.37435,24.91651 8.50318,28.19476 5.98941,1.16538 5.59282,-4.78306 5.92985,-7.94376 0.50833,-11.1467 -11.97508,-6.3999 -5.70608,1.45449"
       id="path4196"
       inkscape:connector-curvature="0"
       sodipodi:nodetypes="ccccc" />
  </g>
  <g
     inkscape:groupmode="layer"
     id="layer6"
     inkscape:label="zvezdobroika"
     sodipodi:insensitive="true">
    <path
       style="fill:none;fill-rule:evenodd;stroke:#000000;stroke-width:1px;stroke-linecap:butt;stroke-linejoin:miter;stroke-opacity:1"
       d="m 538.83328,163.84915 1.46619,3.61561 m 0.98407,2.42671 125.12612,308.55932 1.42279,0.41199 1.30792,3.0765 -1.13631,0.44328 2.40478,5.93015 c -1.35402,1.45939 -3.17229,2.18795 -5.70608,1.79014 L 594.15991,317.5218 c -1.61407,-1.65134 -3.68162,0.97106 -4.08377,0.11189 l -7.27246,-19.9713 c 0.35725,-0.59952 0.80339,-1.13036 1.73421,-1.28666 1.15949,1.1874 2.32295,2.37 3.97188,2.96492 1.31414,0.33142 2.12085,-0.47985 2.7971,0.22377 l 4.5313,11.74782 c 0.30708,0.53434 -0.29383,0.92233 -0.78278,1.63935 -1.02873,1.48997 -0.79599,3.05001 -0.94937,4.58861"
       id="path4169"
       inkscape:connector-curvature="0"
       sodipodi:nodetypes="cccccccccccccccccc" />
    <path
       style="fill:none;fill-rule:evenodd;stroke:#000000;stroke-width:1px;stroke-linecap:butt;stroke-linejoin:miter;stroke-opacity:1"
       d="m 648.02216,449.7989 -3.20411,2.96678 2.5712,6.32911 4.78639,0.90981"
       id="path4173"
       inkscape:connector-curvature="0" />
    <path
       style="fill:none;fill-rule:evenodd;stroke:#000000;stroke-width:1px;stroke-linecap:butt;stroke-linejoin:miter;stroke-opacity:1"
       d="m 534.96836,161.82422 c -4.90886,-6.01347 -8.57858,0.29183 -4.82595,3.00633 4.65554,3.37186 5.28296,0.29873 7.19937,-0.71203 6.60492,-2.91406 5.68783,4.41234 2.21519,3.24367 -1.44161,0.8232 -1.88506,4.23928 2.68987,2.05696 1.09264,-0.78062 5.21714,-3.91536 -1.50316,-9.49367 4.6374,-1.08822 4.83842,-3.20022 5.77532,-5.1424 0.11432,-2.44388 -0.58108,-2.22727 -1.50317,-1.26582 -0.80023,3.1343 -3.19637,4.74523 -7.27848,4.74683 1.48122,1.95914 0.88512,3.53358 -1.66139,4.74684 z"
       id="path4175"
       inkscape:connector-curvature="0"
       sodipodi:nodetypes="ccccccccccc" />
    <path
       style="fill:none;fill-rule:evenodd;stroke:#000000;stroke-width:1px;stroke-linecap:butt;stroke-linejoin:miter;stroke-opacity:1"
       d="m 538.05009,161.3877 c -6.81256,-11.34701 -15.67157,-20.40681 -26.06897,-27.74723 -13.90583,-10.16648 -8.97844,-19.89143 -16.7826,-35.91476 L 471.25535,47.266033 c -0.87219,-1.61016 -2.54332,-1.64787 -3.4684,-1.118839 L 439.4803,65.838775 c -1.96863,1.388602 -2.06742,4.086134 0.33565,6.824923 l 19.59861,23.495962 c -1.03628,0.23808 -1.61309,0.82077 -2.05696,1.50316 0.46053,3.36257 1.85096,6.50374 3.87658,9.49367 10.81363,-2.28449 11.91469,7.06687 15.72725,13.16979 3.54258,6.37836 7.90688,10.81447 13.09043,13.31419 17.76829,10.2706 32.30863,23.86247 39.04751,46.76751 l 9.11266,19.54915 c 11.94259,23.43128 19.53263,49.18425 30.56714,71.25717 m 1.05516,2.07845 c 2.26866,4.39937 4.68713,8.64166 7.31921,12.67777 1.49771,4.16079 3.44344,7.87356 5.67875,11.29674"
       id="path4177"
       inkscape:connector-curvature="0"
       sodipodi:nodetypes="cccccccccccccccccc" />
    <path
       style="fill:none;fill-rule:evenodd;stroke:#000000;stroke-width:1px;stroke-linecap:butt;stroke-linejoin:miter;stroke-opacity:1"
       d="m 514.27474,152.71669 c -11.0008,6.34645 -3.46019,20.97229 9.51014,14.20927"
       id="path4179"
       inkscape:connector-curvature="0"
       sodipodi:nodetypes="cc" />
    <path
       style="fill:none;fill-rule:evenodd;stroke:#000000;stroke-width:1px;stroke-linecap:butt;stroke-linejoin:miter;stroke-opacity:1"
       d="m 518.51267,158.73877 c -3.1008,0.90305 -3.96166,2.6903 -5.14241,4.35127 -0.97323,1.16888 -1.51734,0.32651 -1.42405,-0.67247"
       id="path4182"
       inkscape:connector-curvature="0"
       sodipodi:nodetypes="ccc" />
    <path
       style="fill:none;fill-rule:evenodd;stroke:#000000;stroke-width:1px;stroke-linecap:butt;stroke-linejoin:miter;stroke-opacity:1"
       d="m 541.69305,171.397 -1.1076,4.19304 49.82634,123.52685"
       id="path4185"
       inkscape:connector-curvature="0" />
  </g>
  <g
     inkscape:groupmode="layer"
     id="layer7"
     inkscape:label="zvezdobroika detail"
     sodipodi:insensitive="true">
    <path
       style="fill:none;fill-rule:evenodd;stroke:#000000;stroke-width:0.30000001;stroke-linecap:butt;stroke-linejoin:miter;stroke-miterlimit:4;stroke-dasharray:none;stroke-opacity:1"
       d="M 503.25417,122.78772 C 483.81234,116.46568 476.10946,101.58196 469.35332,88.663108"
       id="path4187"
       inkscape:connector-curvature="0"
       sodipodi:nodetypes="cc" />
    <path
       sodipodi:nodetypes="cc"
       inkscape:connector-curvature="0"
       id="path4189"
       d="m 504.77323,126.32961 c -20.27306,-6.1835 -30.6316,-21.77176 -36.98629,-34.75752"
       style="fill:none;fill-rule:evenodd;stroke:#000000;stroke-width:0.30000001;stroke-linecap:butt;stroke-linejoin:miter;stroke-miterlimit:4;stroke-dasharray:none;stroke-opacity:1" />
    <path
       style="fill:none;fill-rule:evenodd;stroke:#000000;stroke-width:0.30000001;stroke-linecap:butt;stroke-linejoin:miter;stroke-miterlimit:4;stroke-dasharray:none;stroke-opacity:1"
       d="m 547.33646,192.8271 c -1.44529,0.35478 -2.78711,0.29567 -4.08377,0.0559 0.37974,3.02388 -0.80128,5.49394 -5.03478,6.88087"
       id="path4191"
       inkscape:connector-curvature="0"
       sodipodi:nodetypes="ccc" />
    <path
       style="fill:none;fill-rule:evenodd;stroke:#000000;stroke-width:0.30000001;stroke-linecap:butt;stroke-linejoin:miter;stroke-miterlimit:4;stroke-dasharray:none;stroke-opacity:1"
       d="m 542.91704,209.49781 c 3.05827,-1.17001 5.04936,-3.34052 10.29333,-2.46144"
       id="path4193"
       inkscape:connector-curvature="0"
       sodipodi:nodetypes="cc" />
    <path
       style="fill:none;fill-rule:evenodd;stroke:#000000;stroke-width:0.30000001;stroke-linecap:butt;stroke-linejoin:miter;stroke-miterlimit:4;stroke-dasharray:none;stroke-opacity:1"
       d="m 536.55064,162.61536 c -4.95254,-5.69845 -7.195,-12.65878 -15.3481,-16.85127 -1.73785,6.52932 3.72075,13.65834 6.56646,20.56962 l 8.70253,22.62658 c 3.6075,6.59343 7.32192,1.85544 6.48734,-2.13607 l -4.74684,-13.52848 c -3.99747,0.1112 -4.17217,-4.47007 -1.18671,-5.53798 l 0,-3.24367"
       id="path4195"
       inkscape:connector-curvature="0"
       sodipodi:nodetypes="cccccccc" />
    <circle
       style="opacity:1;fill:none;fill-opacity:1;stroke:#000000;stroke-width:0.30000001;stroke-linecap:round;stroke-linejoin:round;stroke-miterlimit:4;stroke-dasharray:none;stroke-dashoffset:0;stroke-opacity:1"
       id="path4197"
       cx="531.30908"
       cy="162.17088"
       r="1.4824628" />
    <circle
       style="opacity:1;fill:none;fill-opacity:1;stroke:#000000;stroke-width:0.30000001;stroke-linecap:round;stroke-linejoin:round;stroke-miterlimit:4;stroke-dasharray:none;stroke-dashoffset:0;stroke-opacity:1"
       id="path4199"
       cx="574.2536"
       cy="269.35635"
       r="1.8460858" />
    <path
       style="fill:none;fill-rule:evenodd;stroke:#000000;stroke-width:0.30000001;stroke-linecap:butt;stroke-linejoin:miter;stroke-miterlimit:4;stroke-dasharray:none;stroke-opacity:1"
       d="m 572.44859,269.75539 c -0.31646,0 -9.05855,4.11392 -9.05855,4.11392 -0.85328,1.49587 -0.002,1.79419 1.06804,1.93829 l 10.75949,-4.88528"
       id="path4201"
       inkscape:connector-curvature="0"
       sodipodi:nodetypes="cccc" />
    <path
       sodipodi:nodetypes="cccc"
       inkscape:connector-curvature="0"
       id="path4203"
       d="m 521.98598,146.18609 c -1.16543,6.32626 3.9936,13.17956 6.73239,19.83117 l 8.70253,22.62658 c 1.36439,2.49369 2.74407,3.36652 3.88717,3.27189"
       style="fill:none;fill-rule:evenodd;stroke:#000000;stroke-width:0.30000001;stroke-linecap:butt;stroke-linejoin:miter;stroke-miterlimit:4;stroke-dasharray:none;stroke-opacity:1" />
    <path
       style="fill:none;fill-rule:evenodd;stroke:#000000;stroke-width:0.30000001;stroke-linecap:butt;stroke-linejoin:miter;stroke-miterlimit:4;stroke-dasharray:none;stroke-opacity:1"
       d="m 667.54881,482.20104 -1.41253,-3.49637"
       id="path4205"
       inkscape:connector-curvature="0"
       sodipodi:nodetypes="cc" />
    <path
       style="opacity:1;fill:none;fill-opacity:1;stroke:#000000;stroke-width:0.29999998;stroke-linecap:round;stroke-linejoin:round;stroke-miterlimit:4;stroke-dasharray:none;stroke-dashoffset:0;stroke-opacity:1"
       d="m 547.07173,212.46332 c -0.81227,0.34909 -1.75437,-0.0249 -2.10421,-0.83548 -0.34986,-0.81051 0.025,-1.75053 0.83733,-2.0996 z"
       id="path4207"
       inkscape:connector-curvature="0"
       sodipodi:nodetypes="cscc" />
    <path
       sodipodi:nodetypes="cscc"
       inkscape:connector-curvature="0"
       id="path4210"
       d="m 548.7293,216.32247 c -0.81228,0.34908 -1.75437,-0.0249 -2.10422,-0.83548 -0.34986,-0.81052 0.025,-1.75053 0.83733,-2.09961 z"
       style="opacity:1;fill:none;fill-opacity:1;stroke:#000000;stroke-width:0.29999998;stroke-linecap:round;stroke-linejoin:round;stroke-miterlimit:4;stroke-dasharray:none;stroke-dashoffset:0;stroke-opacity:1" />
    <path
       sodipodi:nodetypes="cscc"
       inkscape:connector-curvature="0"
       id="path4212"
       d="m 550.36055,220.05036 c -0.81229,0.34909 -1.75438,-0.0249 -2.10423,-0.83548 -0.34984,-0.81051 0.025,-1.75053 0.83733,-2.0996 z"
       style="opacity:1;fill:none;fill-opacity:1;stroke:#000000;stroke-width:0.29999998;stroke-linecap:round;stroke-linejoin:round;stroke-miterlimit:4;stroke-dasharray:none;stroke-dashoffset:0;stroke-opacity:1" />
    <path
       style="opacity:1;fill:none;fill-opacity:1;stroke:#000000;stroke-width:0.29999998;stroke-linecap:round;stroke-linejoin:round;stroke-miterlimit:4;stroke-dasharray:none;stroke-dashoffset:0;stroke-opacity:1"
       d="m 552.01811,223.90951 c -0.81227,0.34908 -1.75438,-0.0249 -2.10422,-0.83547 -0.34985,-0.81053 0.025,-1.75054 0.83734,-2.09962 z"
       id="path4214"
       inkscape:connector-curvature="0"
       sodipodi:nodetypes="cscc" />
    <path
       sodipodi:nodetypes="cscc"
       inkscape:connector-curvature="0"
       id="path4216"
       d="m 553.58358,227.63739 c -0.81228,0.34908 -1.75438,-0.0249 -2.10423,-0.83547 -0.34985,-0.81053 0.025,-1.75054 0.83734,-2.09961 z"
       style="opacity:1;fill:none;fill-opacity:1;stroke:#000000;stroke-width:0.29999998;stroke-linecap:round;stroke-linejoin:round;stroke-miterlimit:4;stroke-dasharray:none;stroke-dashoffset:0;stroke-opacity:1" />
    <path
       style="opacity:1;fill:none;fill-opacity:1;stroke:#000000;stroke-width:0.29999998;stroke-linecap:round;stroke-linejoin:round;stroke-miterlimit:4;stroke-dasharray:none;stroke-dashoffset:0;stroke-opacity:1"
       d="m 555.24114,231.49654 c -0.81228,0.34908 -1.75438,-0.0249 -2.10422,-0.83547 -0.34986,-0.81052 0.025,-1.75054 0.83733,-2.09962 z"
       id="path4218"
       inkscape:connector-curvature="0"
       sodipodi:nodetypes="cscc" />
    <path
       style="opacity:1;fill:none;fill-opacity:1;stroke:#000000;stroke-width:0.29999998;stroke-linecap:round;stroke-linejoin:round;stroke-miterlimit:4;stroke-dasharray:none;stroke-dashoffset:0;stroke-opacity:1"
       d="m 556.87238,235.22443 c -0.81227,0.34908 -1.75437,-0.0249 -2.10421,-0.83547 -0.34986,-0.81052 0.025,-1.75054 0.83733,-2.09961 z"
       id="path4220"
       inkscape:connector-curvature="0"
       sodipodi:nodetypes="cscc" />
    <path
       sodipodi:nodetypes="cscc"
       inkscape:connector-curvature="0"
       id="path4222"
       d="m 558.52995,239.08358 c -0.81228,0.34909 -1.75437,-0.0249 -2.10422,-0.83547 -0.34986,-0.81052 0.025,-1.75053 0.83733,-2.09962 z"
       style="opacity:1;fill:none;fill-opacity:1;stroke:#000000;stroke-width:0.29999998;stroke-linecap:round;stroke-linejoin:round;stroke-miterlimit:4;stroke-dasharray:none;stroke-dashoffset:0;stroke-opacity:1" />
    <path
       style="fill:none;fill-rule:evenodd;stroke:#000000;stroke-width:0.30000001;stroke-linecap:butt;stroke-linejoin:miter;stroke-miterlimit:4;stroke-dasharray:none;stroke-opacity:1"
       d="m 456.87937,85.73512 6.18718,-4.065864 -5.12652,-0.707107 z"
       id="path4224"
       inkscape:connector-curvature="0"
       sodipodi:nodetypes="cccc" />
    <path
       sodipodi:nodetypes="cccc"
       inkscape:connector-curvature="0"
       id="path4226"
       d="m 466.64628,79.371159 6.18718,-4.065864 -5.12652,-0.707107 z"
       style="fill:none;fill-rule:evenodd;stroke:#000000;stroke-width:0.30000001;stroke-linecap:butt;stroke-linejoin:miter;stroke-miterlimit:4;stroke-dasharray:none;stroke-opacity:1" />
    <path
       style="fill:none;fill-rule:evenodd;stroke:#000000;stroke-width:0.30000001;stroke-linecap:butt;stroke-linejoin:miter;stroke-miterlimit:4;stroke-dasharray:none;stroke-opacity:1"
       d="m 481.35789,68.74405 -4.01662,-0.554017 -1.06066,4.772971 5.41304,-3.55714"
       id="path4228"
       inkscape:connector-curvature="0"
       sodipodi:nodetypes="cccc" />
    <path
       style="fill:none;fill-rule:evenodd;stroke:#000000;stroke-width:0.30000001;stroke-linecap:butt;stroke-linejoin:miter;stroke-miterlimit:4;stroke-dasharray:none;stroke-opacity:1"
       d="m 472.1875,57.299707 c -1.46107,2.497273 -0.95417,5.152012 -0.31059,7.717317 -2.14729,-1.503881 -4.93591,-3.37555 -7.81059,-3.407684 1.46107,-2.497273 0.95417,-5.152012 0.31059,-7.717316 2.14729,1.50388 4.93591,3.375549 7.81059,3.407683 z"
       id="path4230"
       inkscape:connector-curvature="0"
       sodipodi:nodetypes="ccccc" />
    <path
       style="fill:none;fill-rule:evenodd;stroke:#000000;stroke-width:0.30000001;stroke-linecap:butt;stroke-linejoin:miter;stroke-miterlimit:4;stroke-dasharray:none;stroke-opacity:1"
       d="m 466.73467,62.069139 c 0,-0.132582 0.7513,-6.076699 0.7513,-6.076699"
       id="path4234"
       inkscape:connector-curvature="0" />
    <path
       style="fill:none;fill-rule:evenodd;stroke:#000000;stroke-width:0.30000001;stroke-linecap:butt;stroke-linejoin:miter;stroke-miterlimit:4;stroke-dasharray:none;stroke-opacity:1"
       d="m 469.541,56.83213 -0.6728,6.196599"
       id="path4236"
       inkscape:connector-curvature="0"
       sodipodi:nodetypes="cc" />
    <circle
       style="opacity:1;fill:none;fill-opacity:1;stroke:#000000;stroke-width:0.30000001;stroke-linecap:round;stroke-linejoin:round;stroke-miterlimit:4;stroke-dasharray:none;stroke-dashoffset:0;stroke-opacity:1"
       id="path4238"
       cx="454.69531"
       cy="69.55542"
       r="3.4471455" />
    <path
       style="fill:none;fill-rule:evenodd;stroke:#000000;stroke-width:0.30000001;stroke-linecap:butt;stroke-linejoin:miter;stroke-miterlimit:4;stroke-dasharray:none;stroke-opacity:1"
       d="m 453.81851,61.979381 0.19888,2.740039 1.23744,0 0.28726,-2.762136"
       id="path4240"
       inkscape:connector-curvature="0" />
    <path
       inkscape:connector-curvature="0"
       id="path4242"
       d="m 453.81851,77.289589 0.19888,-2.740039 1.23744,0 0.28726,2.762136"
       style="fill:none;fill-rule:evenodd;stroke:#000000;stroke-width:0.30000001;stroke-linecap:butt;stroke-linejoin:miter;stroke-miterlimit:4;stroke-dasharray:none;stroke-opacity:1" />
    <path
       inkscape:connector-curvature="0"
       id="path4244"
       d="m 458.37397,62.874763 -1.41183,2.356716 1.01272,0.711107 1.82238,-2.095435"
       style="fill:none;fill-rule:evenodd;stroke:#000000;stroke-width:0.30000001;stroke-linecap:butt;stroke-linejoin:miter;stroke-miterlimit:4;stroke-dasharray:none;stroke-opacity:1" />
    <path
       style="fill:none;fill-rule:evenodd;stroke:#000000;stroke-width:0.30000001;stroke-linecap:butt;stroke-linejoin:miter;stroke-miterlimit:4;stroke-dasharray:none;stroke-opacity:1"
       d="m 449.57581,75.404522 1.73736,-2.128139 1.01271,0.711107 -1.3522,2.425588"
       id="path4246"
       inkscape:connector-curvature="0" />
    <path
       style="fill:none;fill-rule:evenodd;stroke:#000000;stroke-width:0.30000001;stroke-linecap:butt;stroke-linejoin:miter;stroke-miterlimit:4;stroke-dasharray:none;stroke-opacity:1"
       d="m 461.66341,66.378719 -2.53389,1.061499 0.39426,1.17296 2.70972,-0.607734"
       id="path4248"
       inkscape:connector-curvature="0" />
    <path
       inkscape:connector-curvature="0"
       id="path4250"
       d="m 447.15104,71.256592 2.66062,-0.684463 0.39425,1.172954 -2.52668,1.152312"
       style="fill:none;fill-rule:evenodd;stroke:#000000;stroke-width:0.30000001;stroke-linecap:butt;stroke-linejoin:miter;stroke-miterlimit:4;stroke-dasharray:none;stroke-opacity:1" />
    <path
       inkscape:connector-curvature="0"
       id="path4252"
       d="m 462.26703,70.981618 -2.68362,-0.587812 -0.35158,1.186453 2.56669,1.060195"
       style="fill:none;fill-rule:evenodd;stroke:#000000;stroke-width:0.30000001;stroke-linecap:butt;stroke-linejoin:miter;stroke-miterlimit:4;stroke-dasharray:none;stroke-opacity:1" />
    <path
       style="fill:none;fill-rule:evenodd;stroke:#000000;stroke-width:0.30000001;stroke-linecap:butt;stroke-linejoin:miter;stroke-miterlimit:4;stroke-dasharray:none;stroke-opacity:1"
       d="m 447.58777,66.631714 2.57061,0.969185 -0.35158,1.186442 -2.72992,-0.509355"
       id="path4254"
       inkscape:connector-curvature="0" />
    <path
       style="fill:none;fill-rule:evenodd;stroke:#000000;stroke-width:0.30000001;stroke-linecap:butt;stroke-linejoin:miter;stroke-miterlimit:4;stroke-dasharray:none;stroke-opacity:1"
       d="m 459.82135,75.373402 -1.75022,-2.11756 -1.00838,0.717242 1.36688,2.417342"
       id="path4256"
       inkscape:connector-curvature="0" />
    <path
       inkscape:connector-curvature="0"
       id="path4258"
       d="m 450.94737,62.897239 1.42608,2.348111 -1.00838,0.717234 -1.83505,-2.084345"
       style="fill:none;fill-rule:evenodd;stroke:#000000;stroke-width:0.30000001;stroke-linecap:butt;stroke-linejoin:miter;stroke-miterlimit:4;stroke-dasharray:none;stroke-opacity:1" />
    <path
       inkscape:connector-curvature="0"
       id="path4262"
       d="m 479.82396,96.92729 -2.05305,-4.37925 8.87751,1.21505 2.05304,4.37926 z"
       style="fill:none;fill-rule:evenodd;stroke:#000000;stroke-width:0.30000001;stroke-linecap:butt;stroke-linejoin:miter;stroke-miterlimit:4;stroke-dasharray:none;stroke-opacity:1"
       sodipodi:nodetypes="ccccc" />
    <path
       sodipodi:nodetypes="ccccc"
       style="fill:none;fill-rule:evenodd;stroke:#000000;stroke-width:0.30000001;stroke-linecap:butt;stroke-linejoin:miter;stroke-miterlimit:4;stroke-dasharray:none;stroke-opacity:1"
       d="m 482.66399,102.96919 -2.05305,-4.37923 8.8775,1.21503 2.05305,4.37926 z"
       id="path4264"
       inkscape:connector-curvature="0" />
    <path
       sodipodi:nodetypes="cccc"
       style="fill:none;fill-rule:evenodd;stroke:#000000;stroke-width:0.30000001;stroke-linecap:butt;stroke-linejoin:miter;stroke-miterlimit:4;stroke-dasharray:none;stroke-opacity:1"
       d="m 495.82815,99.01726 -5.30452,-0.72602 -2.05306,-4.37923 5.27706,0.72225"
       id="path4266"
       inkscape:connector-curvature="0" />
    <path
       inkscape:connector-curvature="0"
       id="path4268"
       d="m 498.19559,104.99449 -4.83193,-0.66134 -2.05305,-4.37924 5.18397,0.70952"
       style="fill:none;fill-rule:evenodd;stroke:#000000;stroke-width:0.30000001;stroke-linecap:butt;stroke-linejoin:miter;stroke-miterlimit:4;stroke-dasharray:none;stroke-opacity:1"
       sodipodi:nodetypes="cccc" />
    <path
       sodipodi:nodetypes="ccccc"
       style="fill:none;fill-rule:evenodd;stroke:#000000;stroke-width:0.30000001;stroke-linecap:butt;stroke-linejoin:miter;stroke-miterlimit:4;stroke-dasharray:none;stroke-opacity:1"
       d="m 474.14235,84.85903 -2.05306,-4.379248 8.87751,1.215047 2.05304,4.379251 z"
       id="path4270"
       inkscape:connector-curvature="0" />
    <path
       inkscape:connector-curvature="0"
       id="path4272"
       d="m 476.98237,90.90094 -2.05306,-4.37925 8.87752,1.215044 2.05305,4.379256 z"
       style="fill:none;fill-rule:evenodd;stroke:#000000;stroke-width:0.30000001;stroke-linecap:butt;stroke-linejoin:miter;stroke-miterlimit:4;stroke-dasharray:none;stroke-opacity:1"
       sodipodi:nodetypes="ccccc" />
    <path
       inkscape:connector-curvature="0"
       id="path4274"
       d="m 490.14411,86.948677 -5.3021,-0.725691 -2.05305,-4.379245 5.41504,0.741144"
       style="fill:none;fill-rule:evenodd;stroke:#000000;stroke-width:0.30000001;stroke-linecap:butt;stroke-linejoin:miter;stroke-miterlimit:4;stroke-dasharray:none;stroke-opacity:1"
       sodipodi:nodetypes="cccc" />
    <path
       sodipodi:nodetypes="cccc"
       style="fill:none;fill-rule:evenodd;stroke:#000000;stroke-width:0.30000001;stroke-linecap:butt;stroke-linejoin:miter;stroke-miterlimit:4;stroke-dasharray:none;stroke-opacity:1"
       d="m 492.94052,92.98462 -5.25848,-0.71972 -2.05305,-4.379251 5.20628,0.712577"
       id="path4276"
       inkscape:connector-curvature="0" />
    <path
       sodipodi:nodetypes="cccc"
       style="fill:none;fill-rule:evenodd;stroke:#000000;stroke-width:0.30000001;stroke-linecap:butt;stroke-linejoin:miter;stroke-miterlimit:4;stroke-dasharray:none;stroke-opacity:1"
       d="m 487.26808,80.890646 -5.19072,-0.710452 -2.05305,-4.37924 5.08906,0.696527"
       id="path4278"
       inkscape:connector-curvature="0" />
    <path
       style="fill:none;fill-rule:evenodd;stroke:#000000;stroke-width:0.30000001;stroke-linecap:butt;stroke-linejoin:miter;stroke-miterlimit:4;stroke-dasharray:none;stroke-opacity:1"
       d="m 531.99436,160.88423 -1.46848,2.47543"
       id="path4280"
       inkscape:connector-curvature="0" />
    <path
       style="fill:none;fill-rule:evenodd;stroke:#000000;stroke-width:0.30000001;stroke-linecap:butt;stroke-linejoin:miter;stroke-miterlimit:4;stroke-dasharray:none;stroke-opacity:1"
       d="m 592.31637,317.31531 54.12238,133.76658 m 3.36724,8.32234 10.36802,25.62516 1.97195,3.53834 c -0.34664,0.29274 -1.1056,1.36829 -2.6992,0.93702 l -0.95101,-3.74811 -10.74351,-26.71124 m -2.7082,-6.7333 -54.10003,-134.5071"
       id="path4171"
       inkscape:connector-curvature="0"
       sodipodi:nodetypes="cccccccccc" />
  </g>
</svg>
