<?xml version="1.0" encoding="UTF-8" standalone="no"?>
<!-- Created with Inkscape (http://www.inkscape.org/) -->

<svg
   xmlns:dc="http://purl.org/dc/elements/1.1/"
   xmlns:cc="http://creativecommons.org/ns#"
   xmlns:rdf="http://www.w3.org/1999/02/22-rdf-syntax-ns#"
   xmlns:svg="http://www.w3.org/2000/svg"
   xmlns="http://www.w3.org/2000/svg"
   xmlns:sodipodi="http://sodipodi.sourceforge.net/DTD/sodipodi-0.dtd"
   xmlns:inkscape="http://www.inkscape.org/namespaces/inkscape"
   width="210mm"
   height="297mm"
   viewBox="0 0 210 297"
   version="1.1"
   id="svg904"
   inkscape:version="0.92.4 (5da689c313, 2019-01-14)"
   sodipodi:docname="golemi - shashka.svg">
  <defs
     id="defs898" />
  <sodipodi:namedview
     id="base"
     pagecolor="#ffffff"
     bordercolor="#666666"
     borderopacity="1.0"
     inkscape:pageopacity="0.0"
     inkscape:pageshadow="2"
     inkscape:zoom="0.575"
     inkscape:cx="127.51905"
     inkscape:cy="512.81803"
     inkscape:document-units="mm"
     inkscape:current-layer="layer2"
     showgrid="false"
     inkscape:window-width="1920"
     inkscape:window-height="1052"
     inkscape:window-x="0"
     inkscape:window-y="0"
     inkscape:window-maximized="1" />
  <metadata
     id="metadata901">
    <rdf:RDF>
      <cc:Work
         rdf:about="">
        <dc:format>image/svg+xml</dc:format>
        <dc:type
           rdf:resource="http://purl.org/dc/dcmitype/StillImage" />
        <dc:title />
      </cc:Work>
    </rdf:RDF>
  </metadata>
  <g
     inkscape:groupmode="layer"
     id="layer2"
     inkscape:label="text"
     sodipodi:insensitive="true">
    <text
       xml:space="preserve"
       style="font-style:normal;font-weight:normal;font-size:3.38666677px;line-height:0%;font-family:sans-serif;letter-spacing:0px;word-spacing:0px;fill:#000000;fill-opacity:1;stroke:none;stroke-width:0.28222224px;stroke-linecap:butt;stroke-linejoin:miter;stroke-opacity:1"
       x="43.899235"
       y="-193.26668"
       id="text4759"
       transform="rotate(90)"><tspan
         sodipodi:role="line"
         id="tspan4761"
         x="43.899235"
         y="-193.26668"
         style="font-style:normal;font-variant:normal;font-weight:normal;font-stretch:normal;font-size:7.76111126px;line-height:1.25;font-family:UnBatang;-inkscape-font-specification:UnBatang;stroke-width:0.28222224px">Черкезка шашка</tspan></text>
    <flowRoot
       xml:space="preserve"
       id="flowRoot4813"
       style="font-style:normal;font-weight:normal;line-height:0.01%;font-family:sans-serif;letter-spacing:0px;word-spacing:0px;fill:#000000;fill-opacity:1;stroke:none;stroke-width:1px;stroke-linecap:butt;stroke-linejoin:miter;stroke-opacity:1"
       transform="matrix(0,-0.28222223,0.28222223,0,-46.675901,120.35489)"><flowRegion
         id="flowRegion4815"><rect
           transform="scale(-1)"
           id="rect4817"
           width="331.4563"
           height="223.62251"
           x="-328.47644"
           y="-441.1127" /></flowRegion><flowPara
         style="font-style:normal;font-variant:normal;font-weight:500;font-stretch:normal;font-size:15px;line-height:1.25;font-family:'URW Palladio L';-inkscape-font-specification:'URW Palladio L Medium';text-align:justify;text-anchor:start"
         id="flowPara869">През 1817 г. Руската империя започва военни действия в Кавказкия регион. Шашката произлиза от мюсюлманските народи там, каквито са черкезите. Руските войници забелязват и предпочитат лекото оръжие (300-400 грама) пред техните саби. По-късно много Украински казаци приемат шашката, а също и Русия започва да ги произвежда за армията.</flowPara><flowPara
         style="font-style:normal;font-variant:normal;font-weight:500;font-stretch:normal;font-size:15px;line-height:1.25;font-family:'URW Palladio L';-inkscape-font-specification:'URW Palladio L Medium';text-align:justify;text-anchor:start"
         id="flowPara885"> </flowPara><flowPara
         style="font-style:normal;font-variant:normal;font-weight:500;font-stretch:normal;font-size:15px;line-height:1.25;font-family:'URW Palladio L';-inkscape-font-specification:'URW Palladio L Medium';text-align:justify;text-anchor:start"
         id="flowPara887">Между 1854 и 1867 г. около 200 000 черкези са принудени да се заселят в българските земи.</flowPara></flowRoot>    <text
       xml:space="preserve"
       style="font-style:normal;font-weight:normal;font-size:3.38666677px;line-height:0%;font-family:sans-serif;letter-spacing:0px;word-spacing:0px;fill:#000000;fill-opacity:1;stroke:none;stroke-width:0.28222224px;stroke-linecap:butt;stroke-linejoin:miter;stroke-opacity:1"
       x="106.47702"
       y="-122.13149"
       id="text4825"
       transform="rotate(90)"><tspan
         sodipodi:role="line"
         id="tspan4827"
         x="106.47702"
         y="-122.13149"
         style="font-style:normal;font-variant:normal;font-weight:normal;font-stretch:normal;font-size:5.64444447px;line-height:1.25;font-family:Ubuntu;-inkscape-font-specification:Ubuntu;stroke-width:0.28222224px">5 щети</tspan></text>
  </g>
  <g
     inkscape:groupmode="layer"
     id="layer3"
     inkscape:label="main"
     style="display:inline">
    <path
       style="fill:none;stroke:#000000;stroke-width:0.26458332px;stroke-linecap:butt;stroke-linejoin:miter;stroke-opacity:1"
       d="m 147.75715,32.645689 c 15.89597,30.84216 36.24254,74.960431 33.11566,90.372081 -5.63979,-15.17778 -12.52806,-46.855892 -36.28879,-88.536858"
       id="path891"
       inkscape:connector-curvature="0"
       sodipodi:nodetypes="ccc" />
    <path
       style="fill:none;stroke:#000000;stroke-width:0.26458332px;stroke-linecap:butt;stroke-linejoin:miter;stroke-opacity:1"
       d="m 146.35768,33.468715 c 0.37599,0.328554 1.46921,0.307103 1.45683,-1.138402 -0.10446,-1.074297 -0.57805,-1.976432 -1.84531,-2.01706 l -3.93327,-8.234858 c -0.97921,-2.152678 -0.28748,-2.833352 0.81329,-3.153742 0.066,-4.535452 -9.56552,-4.376739 -3.65651,4.125898 l -0.0656,0.435586 4.59876,9.905973 0.38018,0.631167 c 0.53297,0.862526 2.16335,1.269173 2.2517,-0.554562 z"
       id="path893"
       inkscape:connector-curvature="0"
       sodipodi:nodetypes="ccccccccccc" />
    <path
       style="fill:none;stroke:#000000;stroke-width:0.26458332px;stroke-linecap:butt;stroke-linejoin:miter;stroke-opacity:1"
       d="m 130.56544,32.814884 c 2.32553,4.479248 4.60675,8.96229 6.82664,13.450598 m 1.28343,2.609731 c 3.89343,7.963165 7.58369,15.943772 10.976,23.949924 m 1.15167,2.746901 c 5.89254,14.207808 10.81408,28.498912 14.23615,42.918642"
       id="path895"
       inkscape:connector-curvature="0"
       sodipodi:nodetypes="cccccc" />
    <path
       style="fill:none;stroke:#000000;stroke-width:0.26458332px;stroke-linecap:butt;stroke-linejoin:miter;stroke-opacity:1"
       d="m 130.49123,43.127751 c 0.89595,1.77866 1.78367,3.559834 2.66222,5.34326 m 1.25013,2.552274 c 3.83729,7.880393 7.48423,15.803444 10.84521,23.752749 m 1.12177,2.680047 c 6.00889,14.504528 11.03155,29.090129 14.48861,43.657289"
       id="path895-3"
       inkscape:connector-curvature="0"
       sodipodi:nodetypes="cccccc" />
    <path
       style="fill:none;stroke:#000000;stroke-width:0.26458332px;stroke-linecap:butt;stroke-linejoin:miter;stroke-opacity:1"
       d="m 165.32277,118.67123 c -2.67884,-1.36074 -3.9937,0.86935 -4.59063,2.87219 l 1.21857,5.91838 c 3.35742,4.60175 5.16779,-0.4793 4.42581,-3.66319 z"
       id="path912"
       inkscape:connector-curvature="0"
       sodipodi:nodetypes="ccccc" />
    <path
       style="fill:none;stroke:#000000;stroke-width:0.26458332px;stroke-linecap:butt;stroke-linejoin:miter;stroke-opacity:1"
       d="m 142.11123,22.105299 -2.98409,1.381036"
       id="path914"
       inkscape:connector-curvature="0"
       sodipodi:nodetypes="cc" />
    <ellipse
       style="opacity:0.97000002;fill:none;fill-opacity:1;stroke:#000000;stroke-width:0.26458335;stroke-linecap:round;stroke-linejoin:miter;stroke-miterlimit:4;stroke-dasharray:none;stroke-dashoffset:0;stroke-opacity:1"
       id="path916"
       cx="89.200653"
       cy="-118.96098"
       rx="0.62097567"
       ry="0.34270737"
       transform="matrix(0.41897762,0.90799656,-0.90813991,0.41866682,0,0)" />
    <ellipse
       style="opacity:0.97000002;fill:none;fill-opacity:1;stroke:#000000;stroke-width:0.26458335;stroke-linecap:round;stroke-linejoin:miter;stroke-miterlimit:4;stroke-dasharray:none;stroke-dashoffset:0;stroke-opacity:1"
       id="path916-6"
       cx="78.244377"
       cy="-118.94667"
       rx="0.62097567"
       ry="0.34270737"
       transform="matrix(0.41897762,0.90799656,-0.90813991,0.41866682,0,0)" />
    <path
       style="fill:none;stroke:#000000;stroke-width:0.26458332px;stroke-linecap:butt;stroke-linejoin:miter;stroke-opacity:1"
       d="m 145.25963,74.775245 c 0.2209,-0.306704 0.52257,-0.627607 0.91451,-0.956036 -0.24681,-1.152647 1.46849,-3.018062 2.99552,-1.176593 0.17863,0.02691 0.34585,0.09816 0.49984,0.202629 0.77856,0.528152 1.2193,1.906249 1.0952,2.710987 -0.0302,0.195426 -0.0936,0.357012 -0.19358,0.464422 0.16049,2.116485 -1.74351,2.117342 -2.86689,1.35309 -0.48057,0.100714 -0.92341,0.123106 -1.3114,0.07919 -0.2856,0.288364 -1.56921,-2.153345 -1.13319,-2.677692 z"
       id="path933"
       inkscape:connector-curvature="0"
       sodipodi:nodetypes="cccssccccc" />
    <path
       style="display:inline;fill:none;stroke:#000000;stroke-width:0.26458332px;stroke-linecap:butt;stroke-linejoin:miter;stroke-opacity:1"
       d="m 133.19104,48.415771 c 0.20195,-0.312519 0.48264,-0.643004 0.85171,-0.985363 -0.29991,-1.121184 1.29404,-3.040411 2.88687,-1.305337 0.17695,0.01757 0.34493,0.0794 0.50153,0.174484 0.79171,0.48078 1.29349,1.814042 1.21163,2.611396 -0.0199,0.193638 -0.0744,0.355682 -0.16728,0.466249 0.26288,2.073221 -1.60916,2.168351 -2.75166,1.472492 -0.46748,0.122893 -0.90182,0.166783 -1.2855,0.142819 -0.26648,0.297694 -1.64978,-2.039684 -1.2471,-2.576879 z"
       id="path933-7"
       inkscape:connector-curvature="0"
       sodipodi:nodetypes="cccssccccc" />
    <path
       style="fill:none;stroke:#000000;stroke-width:0.26458332px;stroke-linecap:butt;stroke-linejoin:miter;stroke-opacity:1"
       d="m 129.49905,29.978937 c 0.57969,1.50271 1.73157,2.688005 0.61451,3.410729 l -2.09874,0.904739 c -1.64972,0.983534 4.96437,4.626078 2.33947,5.444951 2.4162,2.037171 0.0665,3.959465 -0.36791,3.360632 l -5.50583,-10.807389 c 1.60245,-1.036514 3.00223,-1.907049 5.0185,-2.313662 z"
       id="path950"
       inkscape:connector-curvature="0"
       sodipodi:nodetypes="ccccccc" />
  </g>
  <g
     inkscape:groupmode="layer"
     id="layer4"
     inkscape:label="detail"
     style="opacity:1">
    <path
       style="opacity:1;fill:none;stroke:#000000;stroke-width:0.09;stroke-linecap:butt;stroke-linejoin:miter;stroke-miterlimit:4;stroke-dasharray:none;stroke-opacity:1"
       d="m 155.59179,53.452445 c 7.32244,14.894342 14.24397,32.147429 18.77975,47.208555"
       id="path952-5"
       inkscape:connector-curvature="0"
       sodipodi:nodetypes="cc" />
    <path
       style="opacity:1;fill:none;stroke:#000000;stroke-width:0.09;stroke-linecap:butt;stroke-linejoin:miter;stroke-miterlimit:4;stroke-dasharray:none;stroke-opacity:1"
       d="m 156.44845,53.73739 c 7.32244,14.894336 13.69424,30.66689 18.23002,45.728009"
       id="path952-5-3"
       inkscape:connector-curvature="0"
       sodipodi:nodetypes="cc" />
    <path
       style="fill:none;stroke:#000000;stroke-width:0.09;stroke-linecap:butt;stroke-linejoin:miter;stroke-miterlimit:4;stroke-dasharray:none;stroke-opacity:1"
       d="m 140.00029,23.016861 c -2.11608,-2.609076 -3.05106,-5.078176 -0.48901,-7.132823"
       id="path984"
       inkscape:connector-curvature="0"
       sodipodi:nodetypes="cc" />
    <path
       style="fill:none;stroke:#000000;stroke-width:0.09;stroke-linecap:butt;stroke-linejoin:miter;stroke-miterlimit:4;stroke-dasharray:none;stroke-opacity:1"
       d="m 143.26658,24.575055 -3.05544,1.455711"
       id="path986"
       inkscape:connector-curvature="0"
       sodipodi:nodetypes="cc" />
    <path
       style="opacity:1;fill:none;stroke:#000000;stroke-width:0.09;stroke-linecap:butt;stroke-linejoin:miter;stroke-miterlimit:4;stroke-dasharray:none;stroke-opacity:1"
       d="m 144.42241,27.131048 -3.05544,1.455716"
       id="path986-5"
       inkscape:connector-curvature="0"
       sodipodi:nodetypes="cc" />
    <path
       style="opacity:1;fill:none;stroke:#000000;stroke-width:0.09;stroke-linecap:butt;stroke-linejoin:miter;stroke-miterlimit:4;stroke-dasharray:none;stroke-opacity:1"
       d="m 145.68547,29.629744 -3.05544,1.455717"
       id="path986-6"
       inkscape:connector-curvature="0"
       sodipodi:nodetypes="cc" />
    <path
       style="fill:none;stroke:#000000;stroke-width:0.09;stroke-linecap:butt;stroke-linejoin:miter;stroke-miterlimit:4;stroke-dasharray:none;stroke-opacity:1"
       d="m 129.76814,30.766596 c -1.66103,0.328438 -3.2648,1.072823 -4.80107,2.307728"
       id="path1009"
       inkscape:connector-curvature="0"
       sodipodi:nodetypes="cc" />
    <path
       style="opacity:0.97000002;fill:none;fill-opacity:1;stroke:#000000;stroke-width:0.09;stroke-linecap:round;stroke-linejoin:miter;stroke-miterlimit:4;stroke-dasharray:none;stroke-dashoffset:0;stroke-opacity:1"
       d="m 137.02281,49.532132 c -1.01792,0.469273 -2.35327,0.442933 -2.65458,-0.21006 -0.30131,-0.652993 0.54552,-1.685357 1.56343,-2.15463 1.01792,-0.469274 1.7925,-0.139947 2.09381,0.513046 0.30131,0.652993 0.0152,1.38237 -1.00266,1.851644 z"
       id="path1011"
       inkscape:connector-curvature="0"
       sodipodi:nodetypes="sssss" />
    <path
       style="fill:none;stroke:#000000;stroke-width:0.09;stroke-linecap:butt;stroke-linejoin:miter;stroke-miterlimit:4;stroke-dasharray:none;stroke-opacity:1"
       d="m 136.55041,46.315316 c -1.3637,-0.96252 -2.02578,0.372298 -1.99898,0.92156"
       id="path1014"
       inkscape:connector-curvature="0"
       sodipodi:nodetypes="cc" />
    <path
       style="opacity:1;fill:none;stroke:#000000;stroke-width:0.09000001;stroke-linecap:butt;stroke-linejoin:miter;stroke-miterlimit:4;stroke-dasharray:none;stroke-opacity:1"
       d="m 138.07536,49.478958 c -0.1528,1.661655 -1.5984,1.298509 -1.99897,0.92156"
       id="path1014-2"
       inkscape:connector-curvature="0"
       sodipodi:nodetypes="cc" />
    <path
       style="opacity:0.97000002;fill:none;fill-opacity:1;stroke:#000000;stroke-width:0.09;stroke-linecap:round;stroke-linejoin:miter;stroke-miterlimit:4;stroke-dasharray:none;stroke-dashoffset:0;stroke-opacity:1"
       d="m 136.76554,48.859432 c -0.67247,0.310018 -1.49963,0.411839 -1.63083,0.12751 -0.13119,-0.28432 0.48327,-0.847104 1.15574,-1.157122 0.67246,-0.310017 1.12535,-0.219934 1.25655,0.06439 0.13119,0.284319 -0.10893,0.65521 -0.78146,0.965228 z"
       id="path1011-9"
       inkscape:connector-curvature="0"
       sodipodi:nodetypes="sssss" />
    <path
       style="opacity:0.97000002;fill:none;fill-opacity:1;stroke:#000000;stroke-width:0.09000001;stroke-linecap:round;stroke-linejoin:miter;stroke-miterlimit:4;stroke-dasharray:none;stroke-dashoffset:0;stroke-opacity:1"
       d="m 149.05122,76.008195 c -1.04334,0.409668 -2.37493,0.306282 -2.638,-0.363015 -0.26303,-0.669318 0.64204,-1.651037 1.68537,-2.060739 1.04336,-0.409669 1.79759,-0.03621 2.06066,0.633106 0.26303,0.669306 -0.0647,1.380934 -1.10803,1.790648 z"
       id="path1011-1"
       inkscape:connector-curvature="0"
       sodipodi:nodetypes="sssss" />
    <path
       style="opacity:1;fill:none;stroke:#000000;stroke-width:0.09000001;stroke-linecap:butt;stroke-linejoin:miter;stroke-miterlimit:4;stroke-dasharray:none;stroke-opacity:1"
       d="m 148.76554,72.769473 c -1.30577,-1.039673 -2.04391,0.254683 -2.04889,0.804573"
       id="path1014-27"
       inkscape:connector-curvature="0"
       sodipodi:nodetypes="cc" />
    <path
       style="opacity:1;fill:none;stroke:#000000;stroke-width:0.09000001;stroke-linecap:butt;stroke-linejoin:miter;stroke-miterlimit:4;stroke-dasharray:none;stroke-opacity:1"
       d="m 150.1051,76.015893 c -0.24861,1.65005 -1.67078,1.204032 -2.0489,0.804582"
       id="path1014-2-0"
       inkscape:connector-curvature="0"
       sodipodi:nodetypes="cc" />
    <path
       style="opacity:0.97000002;fill:none;fill-opacity:1;stroke:#000000;stroke-width:0.09000001;stroke-linecap:round;stroke-linejoin:miter;stroke-miterlimit:4;stroke-dasharray:none;stroke-dashoffset:0;stroke-opacity:1"
       d="m 148.83327,75.321761 c -0.68927,0.270654 -1.52094,0.324545 -1.63548,0.03312 -0.1145,-0.291439 0.53143,-0.817794 1.22068,-1.088454 0.68927,-0.270655 1.13621,-0.154573 1.25074,0.13684 0.11449,0.291439 -0.14668,0.647821 -0.83594,0.918492 z"
       id="path1011-9-9"
       inkscape:connector-curvature="0"
       sodipodi:nodetypes="sssss" />
    <path
       style="fill:none;stroke:#000000;stroke-width:0.09;stroke-linecap:butt;stroke-linejoin:miter;stroke-miterlimit:4;stroke-dasharray:none;stroke-opacity:1"
       d="m 128.8092,31.020732 c 0.0869,0.607775 0.81565,1.29827 0.84551,0.410505"
       id="path1070"
       inkscape:connector-curvature="0"
       sodipodi:nodetypes="cc" />
    <path
       style="opacity:1;fill:none;stroke:#000000;stroke-width:0.09000001;stroke-linecap:butt;stroke-linejoin:miter;stroke-miterlimit:4;stroke-dasharray:none;stroke-opacity:1"
       d="m 129.07925,31.605963 c 0.0869,0.607774 0.81565,1.29827 0.84551,0.410505"
       id="path1070-3"
       inkscape:connector-curvature="0"
       sodipodi:nodetypes="cc" />
    <path
       style="opacity:1;fill:none;stroke:#000000;stroke-width:0.09000001;stroke-linecap:butt;stroke-linejoin:miter;stroke-miterlimit:4;stroke-dasharray:none;stroke-opacity:1"
       d="m 127.66213,31.433889 c 0.0869,0.607774 0.81565,1.298269 0.84551,0.410509"
       id="path1070-6"
       inkscape:connector-curvature="0"
       sodipodi:nodetypes="cc" />
    <path
       style="opacity:1;fill:none;stroke:#000000;stroke-width:0.09000001;stroke-linecap:butt;stroke-linejoin:miter;stroke-miterlimit:4;stroke-dasharray:none;stroke-opacity:1"
       d="m 127.93217,32.019119 c 0.0869,0.607774 0.81566,1.29827 0.84551,0.410509"
       id="path1070-3-0"
       inkscape:connector-curvature="0"
       sodipodi:nodetypes="cc" />
    <path
       style="opacity:1;fill:none;stroke:#000000;stroke-width:0.09000001;stroke-linecap:butt;stroke-linejoin:miter;stroke-miterlimit:4;stroke-dasharray:none;stroke-opacity:1"
       d="m 126.437,32.059217 c 0.0869,0.60777 0.81566,1.298264 0.84552,0.410505"
       id="path1070-62"
       inkscape:connector-curvature="0"
       sodipodi:nodetypes="cc" />
    <path
       style="opacity:1;fill:none;stroke:#000000;stroke-width:0.09000001;stroke-linecap:butt;stroke-linejoin:miter;stroke-miterlimit:4;stroke-dasharray:none;stroke-opacity:1"
       d="m 126.70705,32.644448 c 0.0869,0.607769 0.81566,1.298263 0.84551,0.410503"
       id="path1070-3-6"
       inkscape:connector-curvature="0"
       sodipodi:nodetypes="cc" />
    <path
       style="fill:none;stroke:#000000;stroke-width:0.09;stroke-linecap:butt;stroke-linejoin:miter;stroke-miterlimit:4;stroke-dasharray:none;stroke-opacity:1"
       d="m 125.58535,32.596795 c 1.03305,3.739835 7.06046,7.040652 3.84508,6.646006"
       id="path1113"
       inkscape:connector-curvature="0"
       sodipodi:nodetypes="cc" />
    <path
       style="fill:none;stroke:#000000;stroke-width:0.09;stroke-linecap:butt;stroke-linejoin:miter;stroke-miterlimit:4;stroke-dasharray:none;stroke-opacity:1"
       d="m 129.55761,40.024488 c 1.34544,0.963044 1.74561,1.818738 0.24469,2.571504"
       id="path1115"
       inkscape:connector-curvature="0"
       sodipodi:nodetypes="cc" />
    <path
       style="opacity:1;fill:none;stroke:#000000;stroke-width:0.09000001;stroke-linecap:butt;stroke-linejoin:miter;stroke-miterlimit:4;stroke-dasharray:none;stroke-opacity:1"
       d="m 164.98362,121.80528 c -1.06496,-1.28503 -2.05276,-0.1693 -2.17035,0.3679"
       id="path1014-27-7"
       inkscape:connector-curvature="0"
       sodipodi:nodetypes="cc" />
    <path
       style="opacity:1;fill:none;stroke:#000000;stroke-width:0.09000003;stroke-linecap:butt;stroke-linejoin:miter;stroke-miterlimit:4;stroke-dasharray:none;stroke-opacity:1"
       d="m 165.36603,123.77571 c -0.58157,1.56414 -1.88216,0.8363 -2.17036,0.36791"
       id="path1014-2-0-9"
       inkscape:connector-curvature="0"
       sodipodi:nodetypes="cc" />
    <path
       style="opacity:0.97000002;fill:none;fill-opacity:1;stroke:#000000;stroke-width:0.09000001;stroke-linecap:round;stroke-linejoin:miter;stroke-miterlimit:4;stroke-dasharray:none;stroke-dashoffset:0;stroke-opacity:1"
       d="m 164.35019,123.49613 c -0.73012,0.12375 -1.55519,0.006 -1.60756,-0.30253 -0.0525,-0.30868 0.68778,-0.69161 1.4179,-0.81537 0.73013,-0.12375 1.14378,0.0815 1.19616,0.3901 0.0525,0.30866 -0.27638,0.60403 -1.0065,0.7278 z"
       id="path1011-9-9-2"
       inkscape:connector-curvature="0"
       sodipodi:nodetypes="sssss" />
    <path
       style="opacity:1;fill:none;stroke:#000000;stroke-width:0.09000001;stroke-linecap:butt;stroke-linejoin:miter;stroke-miterlimit:4;stroke-dasharray:none;stroke-opacity:1"
       d="m 164.1786,118.42745 c -0.067,0.61029 0.46715,1.46019 0.71687,0.60771"
       id="path1070-0"
       inkscape:connector-curvature="0"
       sodipodi:nodetypes="cc" />
    <path
       style="opacity:1;fill:none;stroke:#000000;stroke-width:0.09000001;stroke-linecap:butt;stroke-linejoin:miter;stroke-miterlimit:4;stroke-dasharray:none;stroke-opacity:1"
       d="m 164.2946,119.0614 c -0.067,0.61031 0.46715,1.46021 0.71688,0.60773"
       id="path1070-3-2"
       inkscape:connector-curvature="0"
       sodipodi:nodetypes="cc" />
    <path
       style="opacity:1;fill:none;stroke:#000000;stroke-width:0.09000001;stroke-linecap:butt;stroke-linejoin:miter;stroke-miterlimit:4;stroke-dasharray:none;stroke-opacity:1"
       d="m 162.59105,118.68123 c -0.067,0.61028 0.46715,1.46018 0.71686,0.60771"
       id="path1070-0-3"
       inkscape:connector-curvature="0"
       sodipodi:nodetypes="cc" />
    <path
       style="opacity:1;fill:none;stroke:#000000;stroke-width:0.09000003;stroke-linecap:butt;stroke-linejoin:miter;stroke-miterlimit:4;stroke-dasharray:none;stroke-opacity:1"
       d="m 162.70706,119.31518 c -0.067,0.6103 0.46715,1.4602 0.71687,0.60772"
       id="path1070-3-2-7"
       inkscape:connector-curvature="0"
       sodipodi:nodetypes="cc" />
    <path
       style="opacity:1;fill:none;stroke:#000000;stroke-width:0.09000001;stroke-linecap:butt;stroke-linejoin:miter;stroke-miterlimit:4;stroke-dasharray:none;stroke-opacity:1"
       d="m 161.4782,119.84347 c -0.067,0.61029 0.46715,1.46018 0.71686,0.60771"
       id="path1070-0-5"
       inkscape:connector-curvature="0"
       sodipodi:nodetypes="cc" />
    <path
       style="opacity:1;fill:none;stroke:#000000;stroke-width:0.09000003;stroke-linecap:butt;stroke-linejoin:miter;stroke-miterlimit:4;stroke-dasharray:none;stroke-opacity:1"
       d="m 161.59421,120.47742 c -0.067,0.6103 0.46715,1.46019 0.71687,0.60772"
       id="path1070-3-2-9"
       inkscape:connector-curvature="0"
       sodipodi:nodetypes="cc" />
    <path
       style="fill:none;stroke:#000000;stroke-width:0.09;stroke-linecap:butt;stroke-linejoin:miter;stroke-miterlimit:4;stroke-dasharray:none;stroke-opacity:1"
       d="m 165.71856,120.79602 c -0.77192,0.47923 -0.96766,0.83287 0.018,0.92901"
       id="path1217"
       inkscape:connector-curvature="0"
       sodipodi:nodetypes="cc" />
    <path
       style="opacity:1;fill:none;stroke:#000000;stroke-width:0.09;stroke-linecap:butt;stroke-linejoin:miter;stroke-miterlimit:4;stroke-dasharray:none;stroke-opacity:1"
       d="m 166.01822,122.10315 c -0.52898,0.38527 -0.56361,0.66275 0.29201,0.74623"
       id="path1217-2"
       inkscape:connector-curvature="0"
       sodipodi:nodetypes="cc" />
    <path
       style="opacity:1;fill:none;stroke:#000000;stroke-width:0.09;stroke-linecap:butt;stroke-linejoin:miter;stroke-miterlimit:4;stroke-dasharray:none;stroke-opacity:1"
       d="m 166.52051,124.35016 c -1.12452,0.6109 -1.59949,1.08015 -0.44018,1.19323"
       id="path1217-2-1"
       inkscape:connector-curvature="0"
       sodipodi:nodetypes="cc" />
    <path
       style="opacity:1;fill:none;stroke:#000000;stroke-width:0.09;stroke-linecap:butt;stroke-linejoin:miter;stroke-miterlimit:4;stroke-dasharray:none;stroke-opacity:1"
       d="m 165.11798,124.72633 c -1.12451,0.61091 -1.59947,1.08016 -0.44016,1.19323"
       id="path1217-2-3-9"
       inkscape:connector-curvature="0"
       sodipodi:nodetypes="cc" />
    <path
       style="opacity:1;fill:none;stroke:#000000;stroke-width:0.09;stroke-linecap:butt;stroke-linejoin:miter;stroke-miterlimit:4;stroke-dasharray:none;stroke-opacity:1"
       d="m 161.88875,121.76068 c -0.42029,0.22836 -0.74987,0.43686 -0.93727,0.61443 m 0.12619,0.51728 c 0.0976,0.0262 0.22046,0.0469 0.37089,0.0615"
       id="path1217-7-4"
       inkscape:connector-curvature="0"
       sodipodi:nodetypes="cccc" />
    <path
       style="opacity:1;fill:none;stroke:#000000;stroke-width:0.09;stroke-linecap:butt;stroke-linejoin:miter;stroke-miterlimit:4;stroke-dasharray:none;stroke-opacity:1"
       d="m 162.46242,122.88502 c -1.1245,0.6109 -1.59948,1.08016 -0.44016,1.19322"
       id="path1217-2-3-7"
       inkscape:connector-curvature="0"
       sodipodi:nodetypes="cc" />
    <path
       style="opacity:1;fill:none;stroke:#000000;stroke-width:0.09;stroke-linecap:butt;stroke-linejoin:miter;stroke-miterlimit:4;stroke-dasharray:none;stroke-opacity:1"
       d="m 163.05358,124.10838 c -1.12451,0.6109 -1.59949,1.08017 -0.44016,1.19323"
       id="path1217-8"
       inkscape:connector-curvature="0"
       sodipodi:nodetypes="cc" />
    <path
       style="opacity:1;fill:none;stroke:#000000;stroke-width:0.09;stroke-linecap:butt;stroke-linejoin:miter;stroke-miterlimit:4;stroke-dasharray:none;stroke-opacity:1"
       d="m 163.62726,125.23271 c -1.1245,0.61091 -1.59949,1.08017 -0.44016,1.19324"
       id="path1217-2-4"
       inkscape:connector-curvature="0"
       sodipodi:nodetypes="cc" />
    <path
       style="opacity:1;fill:none;stroke:#000000;stroke-width:0.09;stroke-linecap:butt;stroke-linejoin:miter;stroke-miterlimit:4;stroke-dasharray:none;stroke-opacity:1"
       d="m 161.65107,124.48455 c -0.0968,0.0527 -0.18887,0.10405 -0.27541,0.15452"
       id="path1217-7-5"
       inkscape:connector-curvature="0"
       sodipodi:nodetypes="cc" />
    <path
       style="opacity:1;fill:none;stroke:#000000;stroke-width:0.09;stroke-linecap:butt;stroke-linejoin:miter;stroke-miterlimit:4;stroke-dasharray:none;stroke-opacity:1"
       d="m 162.22476,125.60889 c -0.22691,0.12323 -0.42733,0.24077 -0.59327,0.35068"
       id="path1217-2-3-0"
       inkscape:connector-curvature="0"
       sodipodi:nodetypes="cc" />
    <path
       style="opacity:1;fill:none;stroke:#000000;stroke-width:0.09;stroke-linecap:butt;stroke-linejoin:miter;stroke-miterlimit:4;stroke-dasharray:none;stroke-opacity:1"
       d="m 165.65878,125.94179 c -1.1245,0.6109 -1.59948,1.08015 -0.44016,1.19323"
       id="path1217-36"
       inkscape:connector-curvature="0"
       sodipodi:nodetypes="cc" />
    <path
       style="opacity:1;fill:none;stroke:#000000;stroke-width:0.09;stroke-linecap:butt;stroke-linejoin:miter;stroke-miterlimit:4;stroke-dasharray:none;stroke-opacity:1"
       d="m 166.23246,127.06612 c -1.12449,0.6109 -1.59947,1.08016 -0.44015,1.19324"
       id="path1217-2-10"
       inkscape:connector-curvature="0"
       sodipodi:nodetypes="cc" />
    <path
       style="opacity:1;fill:none;stroke:#000000;stroke-width:0.09;stroke-linecap:butt;stroke-linejoin:miter;stroke-miterlimit:4;stroke-dasharray:none;stroke-opacity:1"
       d="m 164.25626,126.31796 c -1.1245,0.61091 -1.59946,1.08016 -0.44015,1.19323"
       id="path1217-7-6"
       inkscape:connector-curvature="0"
       sodipodi:nodetypes="cc" />
    <path
       style="opacity:1;fill:none;stroke:#000000;stroke-width:0.09;stroke-linecap:butt;stroke-linejoin:miter;stroke-miterlimit:4;stroke-dasharray:none;stroke-opacity:1"
       d="m 164.82995,127.4423 c -1.1245,0.6109 -1.59947,1.08015 -0.44016,1.19323"
       id="path1217-2-3-3"
       inkscape:connector-curvature="0"
       sodipodi:nodetypes="cc" />
    <path
       style="opacity:1;fill:none;stroke:#000000;stroke-width:0.09;stroke-linecap:butt;stroke-linejoin:miter;stroke-miterlimit:4;stroke-dasharray:none;stroke-opacity:1"
       d="m 165.46098,128.46441 c -0.6153,0.33423 -1.03611,0.62611 -1.10116,0.84041"
       id="path1217-2-6"
       inkscape:connector-curvature="0"
       sodipodi:nodetypes="cc" />
    <path
       style="opacity:1;fill:none;stroke:#000000;stroke-width:0.09;stroke-linecap:butt;stroke-linejoin:miter;stroke-miterlimit:4;stroke-dasharray:none;stroke-opacity:1"
       d="m 166.55124,125.78188 c -0.62156,0.4046 -0.79115,0.71064 -0.11655,0.83271"
       id="path1217-7-1"
       inkscape:connector-curvature="0"
       sodipodi:nodetypes="cc" />
    <path
       style="opacity:1;fill:none;stroke:#000000;stroke-width:0.09;stroke-linecap:butt;stroke-linejoin:miter;stroke-miterlimit:4;stroke-dasharray:none;stroke-opacity:1"
       d="m 142.4008,22.782999 c -0.91628,0.533618 -1.21979,0.933626 -0.16155,1.036842"
       id="path1217-7-45"
       inkscape:connector-curvature="0"
       sodipodi:nodetypes="cc" />
    <path
       style="opacity:1;fill:none;stroke:#000000;stroke-width:0.09;stroke-linecap:butt;stroke-linejoin:miter;stroke-miterlimit:4;stroke-dasharray:none;stroke-opacity:1"
       d="m 142.94208,23.926301 c -0.89089,0.524111 -1.17482,0.915886 -0.12913,1.017869"
       id="path1217-2-3-2"
       inkscape:connector-curvature="0"
       sodipodi:nodetypes="cc" />
    <path
       style="opacity:1;fill:none;stroke:#000000;stroke-width:0.09;stroke-linecap:butt;stroke-linejoin:miter;stroke-miterlimit:4;stroke-dasharray:none;stroke-opacity:1"
       d="m 143.50405,25.141675 c -0.86163,0.513137 -1.12332,0.895459 -0.0922,0.99602"
       id="path1217-6-5"
       inkscape:connector-curvature="0"
       sodipodi:nodetypes="cc" />
    <path
       style="opacity:1;fill:none;stroke:#000000;stroke-width:0.09;stroke-linecap:butt;stroke-linejoin:miter;stroke-miterlimit:4;stroke-dasharray:none;stroke-opacity:1"
       d="m 144.05546,26.279331 c -0.8438,0.506432 -1.09209,0.883008 -0.07,0.982699"
       id="path1217-2-1-4"
       inkscape:connector-curvature="0"
       sodipodi:nodetypes="cc" />
    <path
       style="opacity:1;fill:none;stroke:#000000;stroke-width:0.09;stroke-linecap:butt;stroke-linejoin:miter;stroke-miterlimit:4;stroke-dasharray:none;stroke-opacity:1"
       d="m 142.44949,25.320631 c -1.12451,0.610908 -1.59948,1.080167 -0.44017,1.193241"
       id="path1217-7-2-7"
       inkscape:connector-curvature="0"
       sodipodi:nodetypes="cc" />
    <path
       style="opacity:1;fill:none;stroke:#000000;stroke-width:0.09;stroke-linecap:butt;stroke-linejoin:miter;stroke-miterlimit:4;stroke-dasharray:none;stroke-opacity:1"
       d="m 143.02318,26.444967 c -1.12452,0.610908 -1.59949,1.080167 -0.44017,1.193235"
       id="path1217-2-3-9-4"
       inkscape:connector-curvature="0"
       sodipodi:nodetypes="cc" />
    <path
       style="opacity:1;fill:none;stroke:#000000;stroke-width:0.09;stroke-linecap:butt;stroke-linejoin:miter;stroke-miterlimit:4;stroke-dasharray:none;stroke-opacity:1"
       d="m 141.19643,23.103144 c -1.1245,0.610903 -1.59947,1.080163 -0.44016,1.193236"
       id="path1217-3-4"
       inkscape:connector-curvature="0"
       sodipodi:nodetypes="cc" />
    <path
       style="opacity:1;fill:none;stroke:#000000;stroke-width:0.09;stroke-linecap:butt;stroke-linejoin:miter;stroke-miterlimit:4;stroke-dasharray:none;stroke-opacity:1"
       d="m 141.77013,24.227475 c -1.12451,0.610908 -1.59949,1.080167 -0.44018,1.193241"
       id="path1217-2-19-3"
       inkscape:connector-curvature="0"
       sodipodi:nodetypes="cc" />
    <path
       style="opacity:1;fill:none;stroke:#000000;stroke-width:0.09;stroke-linecap:butt;stroke-linejoin:miter;stroke-miterlimit:4;stroke-dasharray:none;stroke-opacity:1"
       d="m 139.79392,23.479316 c -0.20191,0.109717 -0.38287,0.214835 -0.53724,0.314082"
       id="path1217-7-4-0"
       inkscape:connector-curvature="0"
       sodipodi:nodetypes="cc" />
    <path
       style="opacity:1;fill:none;stroke:#000000;stroke-width:0.09;stroke-linecap:butt;stroke-linejoin:miter;stroke-miterlimit:4;stroke-dasharray:none;stroke-opacity:1"
       d="m 140.3676,24.603652 c -0.21957,0.119324 -0.41439,0.233227 -0.57713,0.340062"
       id="path1217-2-3-7-7"
       inkscape:connector-curvature="0"
       sodipodi:nodetypes="cc" />
    <path
       style="opacity:1;fill:none;stroke:#000000;stroke-width:0.09;stroke-linecap:butt;stroke-linejoin:miter;stroke-miterlimit:4;stroke-dasharray:none;stroke-opacity:1"
       d="m 140.95876,25.827023 c -0.22604,0.122841 -0.42589,0.239863 -0.59146,0.349462"
       id="path1217-8-8"
       inkscape:connector-curvature="0"
       sodipodi:nodetypes="cc" />
    <path
       style="opacity:1;fill:none;stroke:#000000;stroke-width:0.09;stroke-linecap:butt;stroke-linejoin:miter;stroke-miterlimit:4;stroke-dasharray:none;stroke-opacity:1"
       d="m 141.53245,26.951359 c -0.21951,0.119288 -0.41427,0.233172 -0.577,0.339996"
       id="path1217-2-4-6"
       inkscape:connector-curvature="0"
       sodipodi:nodetypes="cc" />
    <path
       style="opacity:1;fill:none;stroke:#000000;stroke-width:0.09;stroke-linecap:butt;stroke-linejoin:miter;stroke-miterlimit:4;stroke-dasharray:none;stroke-opacity:1"
       d="m 143.56397,27.660426 c -1.12451,0.610908 -1.59948,1.080168 -0.44015,1.193236"
       id="path1217-36-4"
       inkscape:connector-curvature="0"
       sodipodi:nodetypes="cc" />
    <path
       style="opacity:1;fill:none;stroke:#000000;stroke-width:0.09;stroke-linecap:butt;stroke-linejoin:miter;stroke-miterlimit:4;stroke-dasharray:none;stroke-opacity:1"
       d="m 144.13766,28.784762 c -1.12451,0.610908 -1.59949,1.080167 -0.44017,1.193236"
       id="path1217-2-10-3"
       inkscape:connector-curvature="0"
       sodipodi:nodetypes="cc" />
    <path
       style="opacity:1;fill:none;stroke:#000000;stroke-width:0.09;stroke-linecap:butt;stroke-linejoin:miter;stroke-miterlimit:4;stroke-dasharray:none;stroke-opacity:1"
       d="m 142.16145,28.036603 c -0.27497,0.14939 -0.51111,0.290325 -0.69401,0.419629"
       id="path1217-7-6-1"
       inkscape:connector-curvature="0"
       sodipodi:nodetypes="cc" />
    <path
       style="opacity:1;fill:none;stroke:#000000;stroke-width:0.09;stroke-linecap:butt;stroke-linejoin:miter;stroke-miterlimit:4;stroke-dasharray:none;stroke-opacity:1"
       d="m 142.73513,29.160939 c -0.3044,0.165349 -0.5612,0.32034 -0.75085,0.460738"
       id="path1217-2-3-3-4"
       inkscape:connector-curvature="0"
       sodipodi:nodetypes="cc" />
    <path
       style="opacity:1;fill:none;stroke:#000000;stroke-width:0.09;stroke-linecap:butt;stroke-linejoin:miter;stroke-miterlimit:4;stroke-dasharray:none;stroke-opacity:1"
       d="m 144.6027,27.408511 c -0.80875,0.493201 -1.03114,0.858561 -0.0267,0.956529"
       id="path1217-7-1-0"
       inkscape:connector-curvature="0"
       sodipodi:nodetypes="cc" />
    <path
       style="opacity:1;fill:none;stroke:#000000;stroke-width:0.09;stroke-linecap:butt;stroke-linejoin:miter;stroke-miterlimit:4;stroke-dasharray:none;stroke-opacity:1"
       d="m 145.15435,28.546337 c -0.79069,0.486368 -0.99993,0.845969 -0.005,0.943039"
       id="path1217-2-3-5-6"
       inkscape:connector-curvature="0"
       sodipodi:nodetypes="cc" />
    <path
       style="opacity:1;fill:none;stroke:#000000;stroke-width:0.09;stroke-linecap:butt;stroke-linejoin:miter;stroke-miterlimit:4;stroke-dasharray:none;stroke-opacity:1"
       d="m 143.2383,30.305914 c -0.21958,0.119325 -0.51391,0.329676 -0.67665,0.436511"
       id="path1217-2-3-7-7-6"
       inkscape:connector-curvature="0"
       sodipodi:nodetypes="cc" />
    <path
       style="opacity:1;fill:none;stroke:#000000;stroke-width:0.09000001;stroke-linecap:butt;stroke-linejoin:miter;stroke-miterlimit:4;stroke-dasharray:none;stroke-opacity:1"
       d="m 162.83215,126.76358 c -0.39819,0.21631 -0.71491,0.41488 -0.90649,0.58614"
       id="path1217-5-4"
       inkscape:connector-curvature="0"
       sodipodi:nodetypes="cc" />
    <path
       style="opacity:1;fill:none;stroke:#000000;stroke-width:0.09000001;stroke-linecap:butt;stroke-linejoin:miter;stroke-miterlimit:4;stroke-dasharray:none;stroke-opacity:1"
       d="m 163.40583,127.88791 c -0.27744,0.1508 -0.5154,0.29285 -0.69899,0.42312"
       id="path1217-2-47-9"
       inkscape:connector-curvature="0"
       sodipodi:nodetypes="cc" />
  </g>
</svg>
