<?xml version="1.0" encoding="UTF-8" standalone="no"?>
<!-- Created with Inkscape (http://www.inkscape.org/) -->

<svg
   xmlns:dc="http://purl.org/dc/elements/1.1/"
   xmlns:cc="http://creativecommons.org/ns#"
   xmlns:rdf="http://www.w3.org/1999/02/22-rdf-syntax-ns#"
   xmlns:svg="http://www.w3.org/2000/svg"
   xmlns="http://www.w3.org/2000/svg"
   xmlns:sodipodi="http://sodipodi.sourceforge.net/DTD/sodipodi-0.dtd"
   xmlns:inkscape="http://www.inkscape.org/namespaces/inkscape"
   width="210mm"
   height="297mm"
   viewBox="0 0 744.09448819 1052.3622047"
   id="svg2"
   version="1.1"
   inkscape:version="0.92.4 (5da689c313, 2019-01-14)"
   sodipodi:docname="golemi - qtagan musket.svg"
   inkscape:export-filename="/home/v/Dropbox/Files/PHONE/yatagan musket.png"
   inkscape:export-xdpi="250"
   inkscape:export-ydpi="250">
  <defs
     id="defs4" />
  <sodipodi:namedview
     id="base"
     pagecolor="#ffffff"
     bordercolor="#666666"
     borderopacity="1.0"
     inkscape:pageopacity="0.0"
     inkscape:pageshadow="2"
     inkscape:zoom="0.55861435"
     inkscape:cx="47.040553"
     inkscape:cy="481.43481"
     inkscape:document-units="px"
     inkscape:current-layer="layer3"
     showgrid="false"
     inkscape:window-width="1920"
     inkscape:window-height="1052"
     inkscape:window-x="0"
     inkscape:window-y="0"
     inkscape:window-maximized="1" />
  <metadata
     id="metadata7">
    <rdf:RDF>
      <cc:Work
         rdf:about="">
        <dc:format>image/svg+xml</dc:format>
        <dc:type
           rdf:resource="http://purl.org/dc/dcmitype/StillImage" />
        <dc:title />
      </cc:Work>
    </rdf:RDF>
  </metadata>
  <g
     inkscape:label="hartiq"
     inkscape:groupmode="layer"
     id="layer1"
     style="display:inline;opacity:1"
     sodipodi:insensitive="true">
    <rect
       style="opacity:0.98000004;fill:#ffffff;fill-opacity:1;stroke:none;stroke-width:6.04816818;stroke-linecap:round;stroke-linejoin:round;stroke-miterlimit:4;stroke-dasharray:none;stroke-dashoffset:0;stroke-opacity:1"
       id="rect4198"
       width="868.98981"
       height="1171.6687"
       x="-35.05098"
       y="-88.878571" />
  </g>
  <g
     inkscape:groupmode="layer"
     id="layer3"
     inkscape:label="tekst"
     sodipodi:insensitive="true">
    <text
       xml:space="preserve"
       style="font-style:normal;font-weight:normal;line-height:0%;font-family:sans-serif;letter-spacing:0px;word-spacing:0px;fill:#000000;fill-opacity:1;stroke:none;stroke-width:1px;stroke-linecap:butt;stroke-linejoin:miter;stroke-opacity:1"
       x="196.15872"
       y="-684.60919"
       id="text4759"
       transform="rotate(90)"><tspan
         sodipodi:role="line"
         id="tspan4761"
         x="196.15872"
         y="-684.60919"
         style="font-style:normal;font-variant:normal;font-weight:normal;font-stretch:normal;font-size:27.5px;line-height:1.25;font-family:UnBatang;-inkscape-font-specification:UnBatang">Ятаган</tspan></text>
    <flowRoot
       xml:space="preserve"
       id="flowRoot4813"
       style="font-style:normal;font-weight:normal;line-height:0.01%;font-family:sans-serif;letter-spacing:0px;word-spacing:0px;fill:#000000;fill-opacity:1;stroke:none;stroke-width:1px;stroke-linecap:butt;stroke-linejoin:miter;stroke-opacity:1"
       transform="rotate(-90,146.1308,278.06286)"><flowRegion
         id="flowRegion4815"><rect
           transform="scale(-1)"
           id="rect4817"
           width="331.4563"
           height="223.62251"
           x="-328.47644"
           y="-441.1127" /></flowRegion><flowPara
         style="font-style:normal;font-variant:normal;font-weight:500;font-stretch:normal;font-size:15px;line-height:1.25;font-family:'URW Palladio L';-inkscape-font-specification:'URW Palladio L Medium';text-align:justify;text-anchor:start"
         id="flowPara4823">Отличителното оръжие на еничарите, повечето ятагани са правени между 16ти и късния 19ти век. Интересна е липсата на предпазител за ръката и формата на дръжката, която е от слонова кост или рога.</flowPara><flowPara
         style="font-style:normal;font-variant:normal;font-weight:500;font-stretch:normal;font-size:15px;line-height:1.25;font-family:'URW Palladio L';-inkscape-font-specification:'URW Palladio L Medium';text-align:justify;text-anchor:start"
         id="flowPara4155"> </flowPara><flowPara
         style="font-style:normal;font-variant:normal;font-weight:500;font-stretch:normal;font-size:15px;line-height:1.25;font-family:'URW Palladio L';-inkscape-font-specification:'URW Palladio L Medium';text-align:justify;text-anchor:start"
         id="flowPara4157">Според легендата майсторът ковач Ятаган Баба изобретява и дава името на този тип оръжие и на града Ятаган в югозападна Турция.</flowPara></flowRoot>    <text
       xml:space="preserve"
       style="font-style:normal;font-weight:normal;line-height:0%;font-family:sans-serif;letter-spacing:0px;word-spacing:0px;fill:#000000;fill-opacity:1;stroke:none;stroke-width:1px;stroke-linecap:butt;stroke-linejoin:miter;stroke-opacity:1"
       x="375.02017"
       y="-428.47937"
       id="text4825"
       transform="rotate(90)"><tspan
         sodipodi:role="line"
         id="tspan4827"
         x="375.02017"
         y="-428.47937"
         style="font-style:normal;font-variant:normal;font-weight:normal;font-stretch:normal;font-size:20px;line-height:1.25;font-family:Ubuntu;-inkscape-font-specification:Ubuntu">9 щети</tspan></text>
    <text
       transform="rotate(90)"
       id="text4152"
       y="-685.867"
       x="702.04559"
       style="font-style:normal;font-weight:normal;line-height:0%;font-family:sans-serif;letter-spacing:0px;word-spacing:0px;fill:#000000;fill-opacity:1;stroke:none;stroke-width:1px;stroke-linecap:butt;stroke-linejoin:miter;stroke-opacity:1"
       xml:space="preserve"><tspan
         style="font-style:normal;font-variant:normal;font-weight:normal;font-stretch:normal;font-size:27.5px;line-height:1.25;font-family:UnBatang;-inkscape-font-specification:UnBatang"
         y="-685.867"
         x="702.04559"
         id="tspan4154"
         sodipodi:role="line">Майсторски мускет</tspan></text>
    <flowRoot
       transform="rotate(-90,434.38867,561.49052)"
       style="font-style:normal;font-weight:normal;line-height:0.01%;font-family:sans-serif;letter-spacing:0px;word-spacing:0px;fill:#000000;fill-opacity:1;stroke:none;stroke-width:1px;stroke-linecap:butt;stroke-linejoin:miter;stroke-opacity:1"
       id="flowRoot4156"
       xml:space="preserve"><flowRegion
         id="flowRegion4158"><rect
           y="-441.1127"
           x="-328.47644"
           height="223.62251"
           width="331.4563"
           id="rect4160"
           transform="scale(-1)" /></flowRegion><flowPara
         style="font-style:normal;font-variant:normal;font-weight:500;font-stretch:normal;font-size:15px;line-height:1.25;font-family:'URW Palladio L';-inkscape-font-specification:'URW Palladio L Medium';text-align:justify;text-anchor:start"
         id="flowPara4170">След казакските въстания в средата на 17ти век Полша била слаба и в безредие. Цар Алексей Романов се възползва и я напада. Същото прави и шведския крал Карл X Густав и това води до изтощителен конфликт за всички страни.</flowPara><flowPara
         style="font-style:normal;font-variant:normal;font-weight:500;font-stretch:normal;font-size:15px;line-height:1.25;font-family:'URW Palladio L';-inkscape-font-specification:'URW Palladio L Medium';text-align:justify;text-anchor:start"
         id="flowPara4240"> </flowPara><flowPara
         style="font-style:normal;font-variant:normal;font-weight:500;font-stretch:normal;font-size:15px;line-height:1.25;font-family:'URW Palladio L';-inkscape-font-specification:'URW Palladio L Medium';text-align:justify;text-anchor:start"
         id="flowPara4242">Оригиналната пушка е изработена от майстор Григорий Вяткин за цар Алексей Романов през 1654 година. Това красиво копие като подарък е способно да омилостиви дори и султан.</flowPara></flowRoot>    <text
       transform="rotate(90)"
       id="text4164"
       y="-440.64755"
       x="720.01123"
       style="font-style:normal;font-weight:normal;line-height:0%;font-family:sans-serif;letter-spacing:0px;word-spacing:0px;fill:#000000;fill-opacity:1;stroke:none;stroke-width:1px;stroke-linecap:butt;stroke-linejoin:miter;stroke-opacity:1"
       xml:space="preserve"><tspan
         style="font-style:normal;font-variant:normal;font-weight:normal;font-stretch:normal;font-size:20px;line-height:1.25;font-family:Ubuntu;-inkscape-font-specification:Ubuntu"
         y="-440.64755"
         x="720.01123"
         id="tspan4166"
         sodipodi:role="line">5 щети</tspan></text>
  </g>
  <g
     inkscape:groupmode="layer"
     id="layer2"
     inkscape:label="musket"
     sodipodi:insensitive="true">
    <path
       style="fill:none;fill-rule:evenodd;stroke:#000000;stroke-width:1px;stroke-linecap:butt;stroke-linejoin:miter;stroke-opacity:1"
       d="m 563.85147,789.96363 27.29062,-86.46331 m 0.87235,-2.7638 26.664,-84.47806 m 0.65024,-2.06008 3.55343,-11.25814 7.66741,-5.36467 5.73884,-18.18205 9.31888,2.9258 0.41554,-1.19069 6.52396,2.04829 -1.28308,4.06517 1.88581,0.64199 -1.55683,5.08294 -1.93579,-0.63401 -82.61506,261.74457 6.69669,3.45284 -5.24297,1.29886 -2.07986,6.58948 4.79551,6.07354 -1.74712,2.13261 -4.27655,-5.41931 -3.65103,10.9703 4.36281,2.28876 c 7.13273,-7.3362 3.58642,13.89248 -1.17778,2.97957 l -3.60601,0.91483 c 4.9307,2.34971 3.11467,18.44704 -5.93313,10.83192 -0.91397,6.52099 -3.6678,11.12136 -10.46499,11.50094 l -39.49041,125.11518 c -12.38246,-7.0553 -29.26848,-7.0289 -35.32101,-24.0376 3.11107,-6.5756 7.88946,-12.90743 -0.17024,-21.11532 l 33.90769,-77.35188 c 8.76509,1.14862 8.60149,-10.87008 12.14427,-17.42285 4.45703,-7.80693 9.90212,-10.70734 15.93439,-10.69193 l 9.03195,-28.61539 c 1.18138,-2.18905 2.4726,-2.31697 3.76794,-2.36766 l 18.51566,-58.66213"
       id="path4159"
       inkscape:connector-curvature="0"
       sodipodi:nodetypes="ccccccccccccccccccccccccccccccccccccc" />
    <path
       style="fill:none;fill-rule:evenodd;stroke:#000000;stroke-width:1px;stroke-linecap:butt;stroke-linejoin:miter;stroke-opacity:1"
       d="m 625.42288,601.05784 6.39362,-20.25653 3.66303,1.15477"
       id="path4161"
       inkscape:connector-curvature="0" />
    <path
       style="fill:none;fill-rule:evenodd;stroke:#000000;stroke-width:1px;stroke-linecap:butt;stroke-linejoin:miter;stroke-opacity:1"
       d="m 639.48224,580.33331 1.11695,-3.5388 6.13358,1.96721 -1.07844,3.41675 -90.56876,286.9438 2.37921,3.59622 5.35298,1.68753"
       id="path4163"
       inkscape:connector-curvature="0"
       sodipodi:nodetypes="cccc" />
    <path
       style="fill:none;fill-rule:evenodd;stroke:#000000;stroke-width:1px;stroke-linecap:butt;stroke-linejoin:miter;stroke-opacity:1"
       d="m 536.40314,867.26465 -6.04368,-1.90528 -5.76016,18.24956"
       id="path4165"
       inkscape:connector-curvature="0" />
    <path
       style="fill:none;fill-rule:evenodd;stroke:#000000;stroke-width:1px;stroke-linecap:butt;stroke-linejoin:miter;stroke-opacity:1"
       d="m 507.90471,1023.7333 c 1.96734,-3.1954 -32.85419,-3.3471 -34.9783,-21.4964"
       id="path4167"
       inkscape:connector-curvature="0"
       sodipodi:nodetypes="cc" />
    <path
       style="fill:none;fill-rule:evenodd;stroke:#000000;stroke-width:1px;stroke-linecap:round;stroke-linejoin:miter;stroke-opacity:1"
       d="m 534.26521,874.03813 c -3.04198,2.0304 -4.32348,1.72971 -4.98649,0.61006"
       id="path4164"
       inkscape:connector-curvature="0"
       sodipodi:nodetypes="cc" />
    <path
       style="fill:none;fill-rule:evenodd;stroke:#000000;stroke-width:1px;stroke-linecap:round;stroke-linejoin:miter;stroke-opacity:1"
       d="m 562.14598,876.8192 -7.32604,-2.30955 -5.18036,16.41266 c -1.28348,2.71526 -3.28363,4.60841 -8.08574,3.28733 -5.75492,-1.61801 -9.37848,0.53384 -13.51595,1.77671 -3.82767,1.60209 -5.30959,-0.85037 -6.83478,-3.22805 -2.15203,5.74931 -2.24763,12.96106 -7.54823,16.47122 l -33.85565,85.99604"
       id="path4166"
       inkscape:connector-curvature="0"
       sodipodi:nodetypes="cccccccc" />
    <path
       style="fill:none;fill-rule:evenodd;stroke:#000000;stroke-width:1px;stroke-linecap:butt;stroke-linejoin:miter;stroke-opacity:1"
       d="m 617.65427,612.24743 6.34933,5.74909 c 5.72856,-1.70973 1.16481,7.78858 -0.59455,2.18437 l -6.37887,-5.80584 z"
       id="path4168"
       inkscape:connector-curvature="0"
       sodipodi:nodetypes="ccccc" />
    <path
       sodipodi:nodetypes="ccccc"
       inkscape:connector-curvature="0"
       id="path4170"
       d="m 589.75778,696.32308 6.62759,12.47394 c 5.91712,0.85433 -2.21788,7.55673 -1.45797,1.73246 l -5.98767,-11.59723 z"
       style="fill:none;fill-rule:evenodd;stroke:#000000;stroke-width:1px;stroke-linecap:butt;stroke-linejoin:miter;stroke-opacity:1" />
    <path
       style="fill:none;fill-rule:evenodd;stroke:#000000;stroke-width:1px;stroke-linecap:butt;stroke-linejoin:miter;stroke-opacity:1"
       d="m 559.9506,782.97748 8.33864,14.76375 c 5.96613,0.38499 -1.61425,7.70809 -1.31661,1.84205 l -7.81703,-13.94872 z"
       id="path4172"
       inkscape:connector-curvature="0"
       sodipodi:nodetypes="ccccc" />
  </g>
  <g
     inkscape:groupmode="layer"
     id="layer4"
     inkscape:label="musket detail"
     sodipodi:insensitive="true">
    <path
       style="fill:none;fill-rule:evenodd;stroke:#000000;stroke-width:0.30000001;stroke-linecap:butt;stroke-linejoin:miter;stroke-miterlimit:5.06037712;stroke-dasharray:none;stroke-opacity:1"
       d="m 632.7609,590.35673 9.21861,2.90619"
       id="path4174"
       inkscape:connector-curvature="0" />
    <path
       style="fill:none;fill-rule:evenodd;stroke:#000000;stroke-width:0.30000001;stroke-linecap:butt;stroke-linejoin:miter;stroke-miterlimit:5.06037712;stroke-dasharray:none;stroke-opacity:1"
       d="m 561.31463,879.2405 -6.34259,16.53264"
       id="path4176"
       inkscape:connector-curvature="0"
       sodipodi:nodetypes="cc" />
    <path
       style="fill:none;fill-rule:evenodd;stroke:#000000;stroke-width:0.30000001;stroke-linecap:butt;stroke-linejoin:miter;stroke-miterlimit:5.06037712;stroke-dasharray:none;stroke-opacity:1"
       d="M 649.20484,581.85543 557.47308,872.48392"
       id="path4178"
       inkscape:connector-curvature="0" />
    <path
       style="fill:none;fill-rule:evenodd;stroke:#000000;stroke-width:0.30000001;stroke-linecap:butt;stroke-linejoin:miter;stroke-miterlimit:5.06037712;stroke-dasharray:none;stroke-opacity:1"
       d="m 650.7904,587.43695 -1.43953,4.56076"
       id="path4180"
       inkscape:connector-curvature="0" />
    <path
       style="fill:none;fill-rule:evenodd;stroke:#000000;stroke-width:0.30000001;stroke-linecap:butt;stroke-linejoin:miter;stroke-miterlimit:5.06037712;stroke-dasharray:none;stroke-opacity:1"
       d="m 506.67158,978.33191 c 2.59063,0.49788 3.92876,-0.21614 4.58408,-1.59077 -2.12566,-0.25508 -4.04573,-0.69532 -2.70024,-4.0769 8.99247,1.35 16.6446,-11.16568 5.61498,-17.48893 l 0.49921,-1.55122 c 2.49257,-0.17521 4.05176,-1.21145 5.37594,-2.46448 -1.68154,-2.36293 -1.43997,-5.78952 -3.32776,-9.97135 -3.94704,2.34238 -5.71652,5.28731 -8.45035,6.25828 0.3651,1.78558 1.04713,3.52837 2.98795,5.1012 l -0.48175,1.55674 c -12.66369,-1.14612 -13.58227,13.49232 -5.44234,17.54334 -0.83953,3.5411 -2.66483,2.80059 -4.55219,1.79057 -0.25253,1.50161 0.43346,2.85373 2.84104,3.93155 -3.97996,1.89617 -4.03525,5.1912 -1.3067,9.45476 4.68256,-1.92718 6.52908,-4.65753 4.35813,-8.49279 z"
       id="path4182"
       inkscape:connector-curvature="0"
       sodipodi:nodetypes="ccccccccccccccc" />
    <path
       style="fill:none;fill-rule:evenodd;stroke:#000000;stroke-width:0.30000001;stroke-linecap:butt;stroke-linejoin:miter;stroke-miterlimit:5.06037712;stroke-dasharray:none;stroke-opacity:1"
       d="m 503.62947,994.04759 c 0.23147,-1.65157 -0.90452,-2.86961 -2.3294,-3.91064 -1.76468,0.0356 -3.39438,0.38166 -4.15302,1.86705 1.59657,0.74241 1.37786,5.57929 1.36836,6.95543 0.78231,-1.13251 3.3802,-5.21935 5.11406,-4.91184 z"
       id="path4186"
       inkscape:connector-curvature="0"
       sodipodi:nodetypes="ccccc" />
    <path
       style="fill:none;fill-rule:evenodd;stroke:#000000;stroke-width:0.30000001;stroke-linecap:butt;stroke-linejoin:miter;stroke-miterlimit:5.06037712;stroke-dasharray:none;stroke-opacity:1"
       d="m 502.20746,997.20316 c 1.52265,0.39464 3.04526,0.79019 4.64489,-0.0628 -0.63663,-1.311 -0.37194,-2.2233 0.26791,-2.96966 0.85669,0.66656 1.32824,1.76273 3.35878,1.11989 -0.64715,-1.07952 -0.11709,-1.78794 0.69866,-2.40629 0.22736,0.79844 1.50168,2.46686 2.35735,1.91026 -1.01124,0.27629 -0.63521,2.34549 -0.19874,3.0506 -1.00347,0.19326 -1.8817,0.11311 -2.24396,-1.0935 -1.83647,1.08234 -1.34417,2.1692 -1.42712,3.25494 -0.97985,-0.0238 -1.8305,-0.43845 -2.37061,-1.79253 -1.70239,0.6202 -2.43203,2.02053 -3.16241,3.42033 l -1.6409,4.7897 c -0.20547,1.5652 -0.41186,3.1305 0.62633,4.6147 1.21976,-0.7993 2.15456,-0.6512 2.97072,-0.1088 -0.55545,0.9368 -1.58267,1.5446 -0.70001,3.4842 0.98947,-0.7805 1.75475,-0.3425 2.46564,0.3912 -0.7623,0.3272 -2.25828,1.8062 -1.5887,2.6124 -0.38123,-0.9465 -2.3828,-0.3108 -3.02742,0.2127 -0.31308,-0.9742 -0.34049,-1.8583 0.80933,-2.3714 -1.29393,-1.6909 -2.30949,-1.0635 -3.3938,-1.0089 -0.0956,-0.9781 0.21146,-1.8771 1.48557,-2.5857 -0.82042,-1.6159 -2.29454,-2.1651 -3.76817,-2.715"
       id="path4188"
       inkscape:connector-curvature="0"
       sodipodi:nodetypes="cccccccccccccccccccccc" />
    <path
       style="fill:none;fill-rule:evenodd;stroke:#000000;stroke-width:0.30000001;stroke-linecap:round;stroke-linejoin:miter;stroke-miterlimit:5.06037712;stroke-dasharray:none;stroke-opacity:1"
       d="m 506.52662,1003.7626 c 1.14051,-0.052 1.75049,-0.6656 2.11959,-1.5346 2.09855,1.7599 1.93092,3.3231 2.04398,4.1583 -0.57211,0.6192 -1.33235,1.9957 -4.06148,2.2336 0.19652,-0.9234 0.0494,-1.7758 -0.85489,-2.4723"
       id="path4194"
       inkscape:connector-curvature="0"
       sodipodi:nodetypes="ccccc" />
    <path
       sodipodi:nodetypes="ccccc"
       inkscape:connector-curvature="0"
       id="path4198"
       d="m 497.55283,1013.4362 c -1.5966,-0.7424 -1.35491,-5.652 -1.38456,-7.0405 -0.82145,1.1202 -3.4423,5.2798 -5.17615,4.9722 -0.23148,1.6516 0.90452,2.8697 2.36854,3.923 1.80381,-0.023 3.43351,-0.3693 4.19217,-1.8547 z"
       style="fill:none;fill-rule:evenodd;stroke:#000000;stroke-width:0.30000001;stroke-linecap:butt;stroke-linejoin:miter;stroke-miterlimit:5.06037712;stroke-dasharray:none;stroke-opacity:1" />
    <path
       style="fill:none;fill-rule:evenodd;stroke:#000000;stroke-width:0.30000001;stroke-linecap:butt;stroke-linejoin:miter;stroke-miterlimit:5.06037712;stroke-dasharray:none;stroke-opacity:1"
       d="m 492.89814,1007.2243 c -1.52265,-0.3946 -3.04527,-0.7902 -4.64491,0.063 0.63665,1.311 0.37195,2.2233 -0.26791,2.9697 -0.85667,-0.6666 -1.32824,-1.7627 -3.35876,-1.1199 0.64715,1.0795 0.11709,1.7879 -0.69867,2.4063 -0.22735,-0.7985 -1.50167,-2.4669 -2.35734,-1.9103 1.01124,-0.2763 0.6352,-2.3455 0.19872,-3.0506 1.00348,-0.1932 1.88171,-0.1131 2.24398,1.0935 1.83647,-1.0823 1.34415,-2.1692 1.42711,-3.255 0.97986,0.024 1.8305,0.4385 2.3706,1.7926 1.70239,-0.6202 2.43205,-2.0205 3.16242,-3.4202 l 1.40605,-4.86381 c 0.20547,-1.56523 0.41187,-3.13052 -0.62631,-4.61468 -1.21979,0.79928 -2.15457,0.65114 -2.97072,0.10876 0.55545,-0.93682 1.58265,-1.54466 0.7,-3.48421 -0.98947,0.7805 -1.75476,0.34251 -2.46564,-0.3912 0.7623,-0.32721 2.25827,-1.80625 1.5887,-2.61242 0.38123,0.94653 2.3828,0.31085 3.02741,-0.2127 0.31309,0.97422 0.34049,1.85837 -0.80932,2.3714 1.29394,1.69088 2.30948,1.06354 3.39381,1.00887 0.0956,0.9782 -0.21147,1.87715 -1.48557,2.58581 0.8204,1.61584 2.29453,2.16502 3.76816,2.71496"
       id="path4204"
       inkscape:connector-curvature="0"
       sodipodi:nodetypes="cccccccccccccccccccccc" />
    <path
       sodipodi:nodetypes="ccccc"
       inkscape:connector-curvature="0"
       id="path4206"
       d="m 489.19655,998.29924 c -0.90435,-0.69645 -1.0515,-1.54895 -0.85488,-2.4723 -2.72915,0.23795 -3.48938,1.61439 -4.0615,2.23359 0.11306,0.8352 -0.0546,2.39847 2.04399,4.15837 0.36919,-0.869 0.97908,-1.4828 2.11959,-1.5346"
       style="fill:none;fill-rule:evenodd;stroke:#000000;stroke-width:0.30000001;stroke-linecap:round;stroke-linejoin:miter;stroke-miterlimit:5.06037712;stroke-dasharray:none;stroke-opacity:1" />
    <path
       sodipodi:nodetypes="ccccc"
       inkscape:connector-curvature="0"
       id="path4210"
       d="m 532.56121,909.99999 c 0.23147,-1.65157 -0.90452,-2.86961 -2.3294,-3.91064 -1.76468,0.0356 -3.39438,0.38167 -4.15303,1.86705 1.59658,0.74241 2.56686,1.81229 2.55735,3.18843 0.78231,-1.13251 2.19122,-1.45235 3.92508,-1.14484 z"
       style="fill:none;fill-rule:evenodd;stroke:#000000;stroke-width:0.30000001;stroke-linecap:butt;stroke-linejoin:miter;stroke-miterlimit:5.06037712;stroke-dasharray:none;stroke-opacity:1" />
    <path
       style="fill:none;fill-rule:evenodd;stroke:#000000;stroke-width:0.30000001;stroke-linecap:butt;stroke-linejoin:miter;stroke-miterlimit:5.06037712;stroke-dasharray:none;stroke-opacity:1"
       d="m 526.0417,930.65536 c -0.75865,1.48537 -2.38835,1.83152 -4.15303,1.86705 -1.42486,-1.04104 -2.56087,-2.25908 -2.32939,-3.91065 1.73385,0.30751 3.14277,-0.0123 3.92508,-1.14483 -0.009,1.37613 0.96076,2.44601 2.55734,3.18843 z"
       id="path4212"
       inkscape:connector-curvature="0"
       sodipodi:nodetypes="ccccc" />
    <path
       style="fill:none;fill-rule:evenodd;stroke:#000000;stroke-width:0.30000001;stroke-linecap:butt;stroke-linejoin:miter;stroke-miterlimit:5.06037712;stroke-dasharray:none;stroke-opacity:1"
       d="m 518.33777,913.1718 c -1.65257,-0.23134 -2.87134,0.90397 -3.91301,2.32799 0.0356,1.76361 0.3819,3.39233 1.86818,4.15053 0.74286,-1.59563 1.81339,-2.56531 3.19035,-2.55582 -1.13319,-0.78184 -1.45322,-2.18989 -1.14552,-3.9227 z"
       id="path4214"
       inkscape:connector-curvature="0"
       sodipodi:nodetypes="ccccc" />
    <path
       sodipodi:nodetypes="ccccc"
       inkscape:connector-curvature="0"
       id="path4216"
       d="m 536.04881,918.75524 c 1.48628,0.7582 1.83264,2.38691 1.86818,4.15053 -1.04167,1.424 -2.26044,2.55933 -3.91301,2.32799 0.3077,-1.73281 -0.0124,-3.14088 -1.14552,-3.92271 1.37696,0.009 2.44749,-0.96019 3.19035,-2.55581 z"
       style="fill:none;fill-rule:evenodd;stroke:#000000;stroke-width:0.30000001;stroke-linecap:butt;stroke-linejoin:miter;stroke-miterlimit:5.06037712;stroke-dasharray:none;stroke-opacity:1" />
    <path
       style="fill:none;fill-rule:evenodd;stroke:#000000;stroke-width:0.30000001;stroke-linecap:round;stroke-linejoin:miter;stroke-miterlimit:5.06037712;stroke-dasharray:none;stroke-opacity:1"
       d="m 526.27995,911.36717 c -0.14821,0.10613 -5.65008,2.93859 -5.65008,2.93859"
       id="path4218"
       inkscape:connector-curvature="0" />
    <path
       inkscape:connector-curvature="0"
       id="path4222"
       d="m 530.40191,912.66663 c 0.0604,0.17191 2.94029,5.64671 2.94029,5.64671"
       style="fill:none;fill-rule:evenodd;stroke:#000000;stroke-width:0.30000001;stroke-linecap:round;stroke-linejoin:miter;stroke-miterlimit:5.06037712;stroke-dasharray:none;stroke-opacity:1" />
    <path
       inkscape:connector-curvature="0"
       id="path4224"
       d="m 521.7933,925.58201 c -0.0604,-0.17192 -2.94029,-5.64672 -2.94029,-5.64672"
       style="fill:none;fill-rule:evenodd;stroke:#000000;stroke-width:0.30000001;stroke-linecap:round;stroke-linejoin:miter;stroke-miterlimit:5.06037712;stroke-dasharray:none;stroke-opacity:1" />
    <path
       style="fill:none;fill-rule:evenodd;stroke:#000000;stroke-width:0.30000001;stroke-linecap:round;stroke-linejoin:miter;stroke-miterlimit:5.06037712;stroke-dasharray:none;stroke-opacity:1"
       d="m 525.91524,926.88146 c 0.14822,-0.10613 5.6501,-2.93858 5.6501,-2.93858"
       id="path4226"
       inkscape:connector-curvature="0" />
    <path
       style="fill:none;fill-rule:evenodd;stroke:#000000;stroke-width:0.30000001;stroke-linecap:round;stroke-linejoin:miter;stroke-miterlimit:5.06037712;stroke-dasharray:none;stroke-opacity:1"
       d="m 503.2792,945.38541 1.29507,5.84174"
       id="path4230"
       inkscape:connector-curvature="0" />
    <path
       inkscape:connector-curvature="0"
       id="path4232"
       d="m 525.30115,952.32788 -4.41461,4.04176"
       style="fill:none;fill-rule:evenodd;stroke:#000000;stroke-width:0.30000001;stroke-linecap:round;stroke-linejoin:miter;stroke-miterlimit:5.06037712;stroke-dasharray:none;stroke-opacity:1" />
    <path
       inkscape:connector-curvature="0"
       id="path4234"
       d="m 503.2792,945.38541 1.29507,5.84174"
       style="fill:none;fill-rule:evenodd;stroke:#000000;stroke-width:0.30000001;stroke-linecap:round;stroke-linejoin:miter;stroke-miterlimit:5.06037712;stroke-dasharray:none;stroke-opacity:1" />
    <path
       style="fill:none;fill-rule:evenodd;stroke:#000000;stroke-width:0.30000001;stroke-linecap:round;stroke-linejoin:miter;stroke-miterlimit:5.06037712;stroke-dasharray:none;stroke-opacity:1"
       d="m 525.30115,952.32788 -4.41461,4.04176"
       id="path4236"
       inkscape:connector-curvature="0" />
    <path
       style="fill:none;fill-rule:evenodd;stroke:#000000;stroke-width:0.30000001;stroke-linecap:round;stroke-linejoin:miter;stroke-miterlimit:5.06037712;stroke-dasharray:none;stroke-opacity:1"
       d="m 516.30629,980.82579 -1.29506,-5.84173"
       id="path4238"
       inkscape:connector-curvature="0" />
    <path
       style="fill:none;fill-rule:evenodd;stroke:#000000;stroke-width:0.30000001;stroke-linecap:round;stroke-linejoin:miter;stroke-miterlimit:5.06037712;stroke-dasharray:none;stroke-opacity:1"
       d="m 494.28434,973.88333 4.41461,-4.04175"
       id="path4240"
       inkscape:connector-curvature="0" />
    <path
       inkscape:connector-curvature="0"
       id="path4244"
       d="m 622.73053,619.5833 -1.79839,5.69775 2.02723,3.18829 3.33641,-1.41067 4.08626,-12.94631 -1.94983,-2.9823 -3.49082,1.44874 -1.44435,4.57601"
       style="fill:none;fill-rule:evenodd;stroke:#000000;stroke-width:0.30000001;stroke-linecap:butt;stroke-linejoin:miter;stroke-miterlimit:5.06037712;stroke-dasharray:none;stroke-opacity:1"
       sodipodi:nodetypes="cccccccc" />
    <path
       sodipodi:nodetypes="cccccccc"
       style="fill:none;fill-rule:evenodd;stroke:#000000;stroke-width:0.30000001;stroke-linecap:butt;stroke-linejoin:miter;stroke-miterlimit:5.06037712;stroke-dasharray:none;stroke-opacity:1"
       d="m 594.39255,709.36488 -2.11614,6.70447 2.02723,3.1883 3.33641,-1.41067 4.08626,-12.9463 -1.94983,-2.98231 -3.49082,1.44873 -1.03031,3.26423"
       id="path4246"
       inkscape:connector-curvature="0" />
    <path
       inkscape:connector-curvature="0"
       id="path4248"
       d="m 566.31701,798.31501 -2.23415,7.07833 2.02723,3.1883 3.33641,-1.41068 4.08628,-12.9463 -1.94985,-2.9823 -3.49082,1.44872 -0.90993,2.8829"
       style="fill:none;fill-rule:evenodd;stroke:#000000;stroke-width:0.30000001;stroke-linecap:butt;stroke-linejoin:miter;stroke-miterlimit:5.06037712;stroke-dasharray:none;stroke-opacity:1"
       sodipodi:nodetypes="cccccccc" />
    <path
       style="fill:none;fill-rule:evenodd;stroke:#000000;stroke-width:0.30000001;stroke-linecap:butt;stroke-linejoin:miter;stroke-miterlimit:5.06037712;stroke-dasharray:none;stroke-opacity:1"
       d="m 610.35197,676.5875 5.32479,-16.87028 -1.85122,-3.63596 -3.6037,1.91628 -5.32481,16.87027 1.75977,3.92577 z"
       id="path4252"
       inkscape:connector-curvature="0"
       sodipodi:nodetypes="ccccccc" />
    <path
       sodipodi:nodetypes="ccc"
       inkscape:connector-curvature="0"
       id="path4264"
       d="m 609.30209,670.35946 c 1.17641,1.86485 0.60883,3.24495 -1.3393,4.24324 -1.0224,-1.93476 -0.69487,-3.39053 1.3393,-4.24324 z"
       style="fill:none;fill-rule:evenodd;stroke:#000000;stroke-width:0.30000001;stroke-linecap:butt;stroke-linejoin:miter;stroke-miterlimit:5.06037712;stroke-dasharray:none;stroke-opacity:1" />
    <path
       style="fill:none;fill-rule:evenodd;stroke:#000000;stroke-width:0.30000001;stroke-linecap:butt;stroke-linejoin:miter;stroke-miterlimit:5.06037712;stroke-dasharray:none;stroke-opacity:1"
       d="m 612.67533,659.67223 c 1.17641,1.86486 0.60883,3.24495 -1.33931,4.24324 -1.02239,-1.93475 -0.69487,-3.39052 1.33931,-4.24324 z"
       id="path4266"
       inkscape:connector-curvature="0"
       sodipodi:nodetypes="ccc" />
    <path
       sodipodi:nodetypes="ccc"
       inkscape:connector-curvature="0"
       id="path4268"
       d="m 610.72583,665.84871 c 1.32579,1.39155 0.91412,2.27773 -0.87279,2.7652 -1.18362,-1.42394 -1.01199,-2.38579 0.87279,-2.7652 z"
       style="fill:none;fill-rule:evenodd;stroke:#000000;stroke-width:0.30000001;stroke-linecap:butt;stroke-linejoin:miter;stroke-miterlimit:5.06037712;stroke-dasharray:none;stroke-opacity:1" />
    <path
       sodipodi:nodetypes="ccccccc"
       inkscape:connector-curvature="0"
       id="path4276"
       d="m 582.46655,764.93526 5.32481,-16.87028 -1.85123,-3.63596 -3.60371,1.91628 -5.32481,16.87027 1.75977,3.92577 z"
       style="fill:none;fill-rule:evenodd;stroke:#000000;stroke-width:0.30000001;stroke-linecap:butt;stroke-linejoin:miter;stroke-miterlimit:5.06037712;stroke-dasharray:none;stroke-opacity:1" />
    <path
       style="fill:none;fill-rule:evenodd;stroke:#000000;stroke-width:0.30000001;stroke-linecap:butt;stroke-linejoin:miter;stroke-miterlimit:5.06037712;stroke-dasharray:none;stroke-opacity:1"
       d="m 581.41668,758.70722 c 1.1764,1.86485 0.60884,3.24495 -1.33931,4.24324 -1.02239,-1.93476 -0.69486,-3.39053 1.33931,-4.24324 z"
       id="path4278"
       inkscape:connector-curvature="0"
       sodipodi:nodetypes="ccc" />
    <path
       sodipodi:nodetypes="ccc"
       inkscape:connector-curvature="0"
       id="path4280"
       d="m 584.78991,748.01999 c 1.17641,1.86486 0.60884,3.24495 -1.33931,4.24324 -1.02238,-1.93475 -0.69487,-3.39052 1.33931,-4.24324 z"
       style="fill:none;fill-rule:evenodd;stroke:#000000;stroke-width:0.30000001;stroke-linecap:butt;stroke-linejoin:miter;stroke-miterlimit:5.06037712;stroke-dasharray:none;stroke-opacity:1" />
    <path
       style="fill:none;fill-rule:evenodd;stroke:#000000;stroke-width:0.30000001;stroke-linecap:butt;stroke-linejoin:miter;stroke-miterlimit:5.06037712;stroke-dasharray:none;stroke-opacity:1"
       d="m 582.84041,754.19647 c 1.3258,1.39155 0.91413,2.27773 -0.87278,2.7652 -1.18362,-1.42394 -1.012,-2.38579 0.87278,-2.7652 z"
       id="path4282"
       inkscape:connector-curvature="0"
       sodipodi:nodetypes="ccc" />
    <path
       style="fill:none;fill-rule:evenodd;stroke:#000000;stroke-width:0.30000001;stroke-linecap:butt;stroke-linejoin:miter;stroke-miterlimit:5.06037712;stroke-dasharray:none;stroke-opacity:1"
       d="m 559.28005,838.39569 5.32481,-16.87027 -1.85123,-3.63596 -3.60371,1.91627 -5.32481,16.87028 1.75978,3.92578 z"
       id="path4284"
       inkscape:connector-curvature="0"
       sodipodi:nodetypes="ccccccc" />
    <path
       sodipodi:nodetypes="ccc"
       inkscape:connector-curvature="0"
       id="path4286"
       d="m 558.23018,832.16766 c 1.17641,1.86485 0.60884,3.24495 -1.33931,4.24324 -1.02238,-1.93475 -0.69486,-3.39053 1.33931,-4.24324 z"
       style="fill:none;fill-rule:evenodd;stroke:#000000;stroke-width:0.30000001;stroke-linecap:butt;stroke-linejoin:miter;stroke-miterlimit:5.06037712;stroke-dasharray:none;stroke-opacity:1" />
    <path
       style="fill:none;fill-rule:evenodd;stroke:#000000;stroke-width:0.30000001;stroke-linecap:butt;stroke-linejoin:miter;stroke-miterlimit:5.06037712;stroke-dasharray:none;stroke-opacity:1"
       d="m 561.60342,821.48043 c 1.1764,1.86485 0.60884,3.24495 -1.3393,4.24324 -1.0224,-1.93476 -0.69487,-3.39053 1.3393,-4.24324 z"
       id="path4288"
       inkscape:connector-curvature="0"
       sodipodi:nodetypes="ccc" />
    <path
       sodipodi:nodetypes="ccc"
       inkscape:connector-curvature="0"
       id="path4290"
       d="m 559.65392,827.6569 c 1.3258,1.39156 0.91413,2.27774 -0.87278,2.76521 -1.18363,-1.42393 -1.012,-2.3858 0.87278,-2.76521 z"
       style="fill:none;fill-rule:evenodd;stroke:#000000;stroke-width:0.30000001;stroke-linecap:butt;stroke-linejoin:miter;stroke-miterlimit:5.06037712;stroke-dasharray:none;stroke-opacity:1" />
    <path
       sodipodi:nodetypes="cccccccccccccc"
       inkscape:connector-curvature="0"
       id="path4294"
       d="m 549.20891,885.48133 c -1.63896,0.34856 -2.68554,2.06476 -3.66142,3.94417 l -0.84649,-4.76153 -1.5734,2.85822 c -0.83917,-2.98563 -2.80093,-2.63934 -5.04464,-1.45617 -0.0888,-1.17124 -1.70248,-2.77959 0.10665,-3.52184 -0.66162,-1.54815 -1.39275,-2.36305 -2.17032,-2.694 0.82685,0.17481 1.8935,-0.0733 3.32421,-0.9618 -1.05557,-1.64539 1.18947,-2.03725 1.93463,-2.9456 1.15831,2.25566 2.56617,3.66424 4.96762,1.70022 l -0.35238,3.24315 3.42703,-3.41429 c -0.27979,2.09885 -0.40797,4.10458 0.73422,5.3299 -1.20394,0.71428 -1.09461,1.68338 -0.84576,2.67957 z"
       style="fill:none;fill-rule:evenodd;stroke:#000000;stroke-width:0.30000001;stroke-linecap:butt;stroke-linejoin:miter;stroke-miterlimit:5.06037712;stroke-dasharray:none;stroke-opacity:1" />
    <ellipse
       style="opacity:1;fill:none;fill-opacity:1;stroke:#000000;stroke-width:0.30000001;stroke-linecap:butt;stroke-linejoin:miter;stroke-miterlimit:5.06037712;stroke-dasharray:none;stroke-dashoffset:0;stroke-opacity:1"
       id="path4296"
       cx="782.70477"
       cy="476.3533"
       rx="3.3926523"
       ry="3.6469004"
       transform="matrix(0.95372973,0.30066528,-0.30099516,0.95362567,0,0)" />
    <ellipse
       ry="3.6469004"
       rx="3.3926523"
       cy="522.16351"
       cx="782.70477"
       id="ellipse4298"
       style="opacity:1;fill:none;fill-opacity:1;stroke:#000000;stroke-width:0.30000001;stroke-linecap:butt;stroke-linejoin:miter;stroke-miterlimit:5.06037712;stroke-dasharray:none;stroke-dashoffset:0;stroke-opacity:1"
       transform="matrix(0.95372973,0.30066528,-0.30099516,0.95362567,0,0)" />
    <ellipse
       style="opacity:1;fill:none;fill-opacity:1;stroke:#000000;stroke-width:0.30000001;stroke-linecap:butt;stroke-linejoin:miter;stroke-miterlimit:5.06037712;stroke-dasharray:none;stroke-dashoffset:0;stroke-opacity:1"
       id="ellipse4300"
       cx="782.70477"
       cy="569.76514"
       rx="3.3926523"
       ry="3.6469004"
       transform="matrix(0.95372973,0.30066528,-0.30099516,0.95362567,0,0)" />
    <ellipse
       ry="3.6469004"
       rx="3.3926523"
       cy="428.23984"
       cx="782.70477"
       id="ellipse4302"
       style="opacity:1;fill:none;fill-opacity:1;stroke:#000000;stroke-width:0.30000001;stroke-linecap:butt;stroke-linejoin:miter;stroke-miterlimit:5.06037712;stroke-dasharray:none;stroke-dashoffset:0;stroke-opacity:1"
       transform="matrix(0.95372973,0.30066528,-0.30099516,0.95362567,0,0)" />
    <ellipse
       ry="2.1538503"
       rx="1.9894826"
       cy="738.55408"
       cx="783.65271"
       id="ellipse4304"
       style="opacity:1;fill:none;fill-opacity:1;stroke:#000000;stroke-width:0.30000001;stroke-linecap:butt;stroke-linejoin:miter;stroke-miterlimit:5.06037712;stroke-dasharray:none;stroke-dashoffset:0;stroke-opacity:1"
       transform="matrix(0.95372973,0.30066528,-0.30099516,0.95362567,0,0)" />
    <ellipse
       style="opacity:1;fill:none;fill-opacity:1;stroke:#000000;stroke-width:0.30000001;stroke-linecap:butt;stroke-linejoin:miter;stroke-miterlimit:5.06037712;stroke-dasharray:none;stroke-dashoffset:0;stroke-opacity:1"
       id="ellipse4306"
       cx="768.62518"
       cy="738.55408"
       rx="1.9894826"
       ry="2.1538503"
       transform="matrix(0.95372973,0.30066528,-0.30099516,0.95362567,0,0)" />
    <ellipse
       style="opacity:1;fill:none;fill-opacity:1;stroke:#000000;stroke-width:0.30000001;stroke-linecap:butt;stroke-linejoin:miter;stroke-miterlimit:5.06037712;stroke-dasharray:none;stroke-dashoffset:0;stroke-opacity:1"
       id="ellipse4308"
       cx="783.65271"
       cy="787.41455"
       rx="1.9894826"
       ry="2.1538503"
       transform="matrix(0.95372973,0.30066528,-0.30099516,0.95362567,0,0)" />
    <ellipse
       ry="2.1538503"
       rx="1.9894826"
       cy="787.41455"
       cx="768.62518"
       id="ellipse4310"
       style="opacity:1;fill:none;fill-opacity:1;stroke:#000000;stroke-width:0.30000001;stroke-linecap:butt;stroke-linejoin:miter;stroke-miterlimit:5.06037712;stroke-dasharray:none;stroke-dashoffset:0;stroke-opacity:1"
       transform="matrix(0.95372973,0.30066528,-0.30099516,0.95362567,0,0)" />
    <ellipse
       style="opacity:1;fill:none;fill-opacity:1;stroke:#000000;stroke-width:0.30000001;stroke-linecap:butt;stroke-linejoin:miter;stroke-miterlimit:5.06037712;stroke-dasharray:none;stroke-dashoffset:0;stroke-opacity:1"
       id="ellipse4312"
       cx="786.14563"
       cy="645.88196"
       rx="1.9894826"
       ry="2.1538503"
       transform="matrix(0.95372973,0.30066528,-0.30099516,0.95362567,0,0)" />
    <ellipse
       ry="2.1538503"
       rx="1.9894826"
       cy="645.88196"
       cx="779.80878"
       id="ellipse4314"
       style="opacity:1;fill:none;fill-opacity:1;stroke:#000000;stroke-width:0.30000001;stroke-linecap:butt;stroke-linejoin:miter;stroke-miterlimit:5.06037712;stroke-dasharray:none;stroke-dashoffset:0;stroke-opacity:1"
       transform="matrix(0.95372973,0.30066528,-0.30099516,0.95362567,0,0)" />
    <ellipse
       ry="2.1538503"
       rx="1.9894826"
       cy="665.15466"
       cx="786.14563"
       id="ellipse4316"
       style="opacity:1;fill:none;fill-opacity:1;stroke:#000000;stroke-width:0.30000001;stroke-linecap:butt;stroke-linejoin:miter;stroke-miterlimit:5.06037712;stroke-dasharray:none;stroke-dashoffset:0;stroke-opacity:1"
       transform="matrix(0.95372973,0.30066528,-0.30099516,0.95362567,0,0)" />
    <ellipse
       style="opacity:1;fill:none;fill-opacity:1;stroke:#000000;stroke-width:0.30000001;stroke-linecap:butt;stroke-linejoin:miter;stroke-miterlimit:5.06037712;stroke-dasharray:none;stroke-dashoffset:0;stroke-opacity:1"
       id="ellipse4318"
       cx="779.80878"
       cy="665.15466"
       rx="1.9894826"
       ry="2.1538503"
       transform="matrix(0.95372973,0.30066528,-0.30099516,0.95362567,0,0)" />
  </g>
  <g
     inkscape:groupmode="layer"
     id="layer5"
     inkscape:label="yatagan"
     sodipodi:insensitive="true">
    <path
       style="fill:none;fill-rule:evenodd;stroke:#000000;stroke-width:1px;stroke-linecap:butt;stroke-linejoin:miter;stroke-opacity:1"
       d="M 605.43174,330.3937 C 564.82666,218.22971 490.51742,126.85368 428.12011,27.398995 c 4.15241,82.118455 121.11685,176.803285 174.31525,347.735415 2.26876,2.18724 3.26445,7.71627 7.03119,5.97131"
       id="path4223"
       inkscape:connector-curvature="0"
       sodipodi:nodetypes="cccc" />
    <path
       style="fill:none;fill-rule:evenodd;stroke:#000000;stroke-width:1px;stroke-linecap:butt;stroke-linejoin:miter;stroke-opacity:1"
       d="m 605.80753,329.87946 c -3.42262,4.97331 -8.15628,26.52856 -0.21756,24.88133 -3.86621,5.62617 -2.7616,8.81387 2.45253,8.86076 -5.86808,10.24376 0.0315,10.40096 4.03481,12.18354 -1.19402,0.79114 -4.00995,1.58228 -3.48102,2.37342 l 8.14874,22.38924 c 4.83529,-1.03637 10.2058,-1.7918 16.29747,-5.85443 -9.03742,-21.85132 -18.00805,-43.36154 -27.23497,-64.83386 z"
       id="path4225"
       inkscape:connector-curvature="0"
       sodipodi:nodetypes="cccccccc" />
    <path
       style="fill:none;fill-rule:evenodd;stroke:#000000;stroke-width:1px;stroke-linecap:butt;stroke-linejoin:miter;stroke-opacity:1"
       d="m 616.82414,400.56775 -1.42405,2.76899 17.56329,48.25949 -2.37342,0.63291"
       id="path4227"
       inkscape:connector-curvature="0"
       sodipodi:nodetypes="cccc" />
    <path
       style="fill:none;fill-rule:evenodd;stroke:#000000;stroke-width:1px;stroke-linecap:butt;stroke-linejoin:miter;stroke-opacity:1"
       d="m 632.96338,394.47596 2.84811,1.02848 16.69303,48.97152 7.67405,-0.0791 c 27.21557,49.55289 -29.57881,43.30169 -32.35759,7.19937 11.4726,3.11675 22.48549,2.72821 32.27848,-6.96203"
       id="path4229"
       inkscape:connector-curvature="0"
       sodipodi:nodetypes="cccccc" />
    <path
       style="fill:none;fill-rule:evenodd;stroke:#000000;stroke-width:1px;stroke-linecap:butt;stroke-linejoin:miter;stroke-opacity:1"
       d="m 627.88897,452.94973 c -9.40485,1.96614 -14.62576,-1.24785 -21.14607,-2.85305 5.46612,30.57677 17.84306,35.309 34.18055,25.22984"
       id="path4231"
       inkscape:connector-curvature="0"
       sodipodi:nodetypes="ccc" />
  </g>
  <g
     inkscape:groupmode="layer"
     id="layer6"
     inkscape:label="yatagan detail"
     sodipodi:insensitive="true">
    <path
       style="fill:none;fill-rule:evenodd;stroke:#000000;stroke-width:0.30000001;stroke-linecap:butt;stroke-linejoin:miter;stroke-miterlimit:4.57838774;stroke-dasharray:none;stroke-opacity:1"
       d="m 488.92405,119.45081 c 7.72546,14.06164 5.54823,37.43613 15.3481,38.29114 -3.18331,-3.92143 0.14668,-9.77402 3.79077,-3.05498 4.5469,8.60032 3.16228,27.1483 12.65618,30.01902 -3.34297,-3.8454 1.24414,-10.21386 4.02124,-3.06227 3.19388,8.64602 2.35643,23.44609 13.03003,23.92454 l -3.35582,1.85724 c 13.55288,22.0169 26.49014,44.07867 36.3583,66.66376 l 3.23621,-1.65344 c -6.13095,9.70581 5.38179,13.27095 10.08128,18.94746 4.02703,4.97229 -1.8586,4.58997 -3.83847,2.73719 0.51095,11.43985 18.05938,26.67166 22.1611,44.55503"
       id="path4262"
       inkscape:connector-curvature="0"
       sodipodi:nodetypes="cccccccccccc" />
    <path
       style="fill:none;fill-rule:evenodd;stroke:#000000;stroke-width:0.30000001;stroke-linecap:butt;stroke-linejoin:miter;stroke-miterlimit:4.57838774;stroke-dasharray:none;stroke-opacity:1"
       d="m 609.17722,379.49828 c 5.72286,-3.08593 11.99999,-7.10986 15.11076,-5.77532"
       id="path4275"
       inkscape:connector-curvature="0"
       sodipodi:nodetypes="cc" />
    <ellipse
       style="opacity:1;fill:none;fill-opacity:1;stroke:#000000;stroke-width:0.30000001;stroke-linecap:butt;stroke-linejoin:miter;stroke-miterlimit:4.57838774;stroke-dasharray:none;stroke-dashoffset:0;stroke-opacity:1"
       id="path4277"
       cx="581.62329"
       cy="-400.26474"
       rx="2.6503165"
       ry="1.8591772"
       transform="rotate(64.551224)" />
    <ellipse
       transform="rotate(64.551224)"
       ry="1.8591772"
       rx="2.6503165"
       cy="-399.32144"
       cx="590.34943"
       id="ellipse4279"
       style="opacity:1;fill:none;fill-opacity:1;stroke:#000000;stroke-width:0.30000001;stroke-linecap:butt;stroke-linejoin:miter;stroke-miterlimit:4.57838774;stroke-dasharray:none;stroke-dashoffset:0;stroke-opacity:1" />
    <ellipse
       style="opacity:1;fill:none;fill-opacity:1;stroke:#000000;stroke-width:0.30000001;stroke-linecap:butt;stroke-linejoin:miter;stroke-miterlimit:4.57838774;stroke-dasharray:none;stroke-dashoffset:0;stroke-opacity:1"
       id="ellipse4281"
       cx="599.17676"
       cy="-398.85568"
       rx="2.6503165"
       ry="1.8591772"
       transform="rotate(64.551224)" />
    <circle
       style="opacity:1;fill:none;fill-opacity:1;stroke:#000000;stroke-width:0.30000001;stroke-linecap:butt;stroke-linejoin:miter;stroke-miterlimit:4.57838774;stroke-dasharray:none;stroke-dashoffset:0;stroke-opacity:1"
       id="path4283"
       cx="630.69"
       cy="406.67972"
       r="1.6782597" />
    <circle
       r="1.6782597"
       cy="418.42755"
       cx="635.38916"
       id="circle4285"
       style="opacity:1;fill:none;fill-opacity:1;stroke:#000000;stroke-width:0.30000001;stroke-linecap:butt;stroke-linejoin:miter;stroke-miterlimit:4.57838774;stroke-dasharray:none;stroke-dashoffset:0;stroke-opacity:1" />
    <circle
       style="opacity:1;fill:none;fill-opacity:1;stroke:#000000;stroke-width:0.30000001;stroke-linecap:butt;stroke-linejoin:miter;stroke-miterlimit:4.57838774;stroke-dasharray:none;stroke-dashoffset:0;stroke-opacity:1"
       id="circle4287"
       cx="639.52887"
       cy="429.61594"
       r="1.6782597" />
    <path
       style="fill:none;fill-rule:evenodd;stroke:#000000;stroke-width:0.30000001;stroke-linecap:butt;stroke-linejoin:miter;stroke-miterlimit:4.57838774;stroke-dasharray:none;stroke-opacity:1"
       d="m 652.39551,444.6084 c -2.89612,6.15427 -9.84529,6.51575 -15.46655,8.58229"
       id="path4289"
       inkscape:connector-curvature="0"
       sodipodi:nodetypes="cc" />
    <path
       style="fill:none;fill-rule:evenodd;stroke:#000000;stroke-width:0.30000001;stroke-linecap:butt;stroke-linejoin:miter;stroke-miterlimit:4.57838774;stroke-dasharray:none;stroke-opacity:1"
       d="m 606.63496,450.2026 c 3.79547,6.52093 14.67045,8.38429 23.77535,11.41217"
       id="path4291"
       inkscape:connector-curvature="0"
       sodipodi:nodetypes="cc" />
    <path
       style="fill:none;fill-rule:evenodd;stroke:#000000;stroke-width:0.30000001;stroke-linecap:butt;stroke-linejoin:miter;stroke-miterlimit:4.57838774;stroke-dasharray:none;stroke-opacity:1"
       d="m 618.9422,399.96669 20.2479,52.41484"
       id="path4304"
       inkscape:connector-curvature="0"
       sodipodi:nodetypes="cc" />
  </g>
</svg>
