<?xml version="1.0" encoding="UTF-8" standalone="no"?>
<!-- Created with Inkscape (http://www.inkscape.org/) -->

<svg
   xmlns:dc="http://purl.org/dc/elements/1.1/"
   xmlns:cc="http://creativecommons.org/ns#"
   xmlns:rdf="http://www.w3.org/1999/02/22-rdf-syntax-ns#"
   xmlns:svg="http://www.w3.org/2000/svg"
   xmlns="http://www.w3.org/2000/svg"
   xmlns:sodipodi="http://sodipodi.sourceforge.net/DTD/sodipodi-0.dtd"
   xmlns:inkscape="http://www.inkscape.org/namespaces/inkscape"
   width="210mm"
   height="297mm"
   viewBox="0 0 744.09448819 1052.3622047"
   id="svg2"
   version="1.1"
   inkscape:version="0.91 r13725"
   sodipodi:docname="golemi - berdan krnka.svg"
   inkscape:export-filename="/home/v/Dropbox/Files/PHONE/berdan krnka.png"
   inkscape:export-xdpi="250"
   inkscape:export-ydpi="250">
  <defs
     id="defs4" />
  <sodipodi:namedview
     id="base"
     pagecolor="#ffffff"
     bordercolor="#666666"
     borderopacity="1.0"
     inkscape:pageopacity="0.0"
     inkscape:pageshadow="2"
     inkscape:zoom="1.1172287"
     inkscape:cx="355.01265"
     inkscape:cy="299.05592"
     inkscape:document-units="px"
     inkscape:current-layer="layer5"
     showgrid="false"
     inkscape:window-width="1920"
     inkscape:window-height="1054"
     inkscape:window-x="0"
     inkscape:window-y="0"
     inkscape:window-maximized="1" />
  <metadata
     id="metadata7">
    <rdf:RDF>
      <cc:Work
         rdf:about="">
        <dc:format>image/svg+xml</dc:format>
        <dc:type
           rdf:resource="http://purl.org/dc/dcmitype/StillImage" />
        <dc:title />
      </cc:Work>
    </rdf:RDF>
  </metadata>
  <g
     inkscape:label="hartiq"
     inkscape:groupmode="layer"
     id="layer1"
     style="display:inline;opacity:1"
     sodipodi:insensitive="true">
    <rect
       style="opacity:0.98000004;fill:#ffffff;fill-opacity:1;stroke:none;stroke-width:6.04816818;stroke-linecap:round;stroke-linejoin:round;stroke-miterlimit:4;stroke-dasharray:none;stroke-dashoffset:0;stroke-opacity:1"
       id="rect4198"
       width="779.14575"
       height="1073.2108"
       x="-15.359398"
       y="-8.3220949" />
  </g>
  <g
     inkscape:groupmode="layer"
     id="layer3"
     inkscape:label="tekst"
     sodipodi:insensitive="true">
    <text
       xml:space="preserve"
       style="font-style:normal;font-weight:normal;font-size:40px;line-height:125%;font-family:sans-serif;letter-spacing:0px;word-spacing:0px;fill:#000000;fill-opacity:1;stroke:none;stroke-width:1px;stroke-linecap:butt;stroke-linejoin:miter;stroke-opacity:1"
       x="180.16371"
       y="-683.71973"
       id="text4759"
       sodipodi:linespacing="125%"
       transform="matrix(0,1,-1,0,0,0)"><tspan
         sodipodi:role="line"
         id="tspan4761"
         x="180.16371"
         y="-683.71973"
         style="font-style:normal;font-variant:normal;font-weight:normal;font-stretch:normal;font-size:27.5px;font-family:UnBatang;-inkscape-font-specification:UnBatang">Бердан I</tspan></text>
    <flowRoot
       xml:space="preserve"
       id="flowRoot4813"
       style="font-style:normal;font-weight:normal;font-size:40px;line-height:125%;font-family:sans-serif;letter-spacing:0px;word-spacing:0px;fill:#000000;fill-opacity:1;stroke:none;stroke-width:1px;stroke-linecap:butt;stroke-linejoin:miter;stroke-opacity:1"
       transform="matrix(0,-1,1,0,-133.71037,407.89375)"><flowRegion
         id="flowRegion4815"><rect
           transform="scale(-1,-1)"
           id="rect4817"
           width="331.4563"
           height="223.62251"
           x="-328.47644"
           y="-441.1127" /></flowRegion><flowPara
         style="font-style:normal;font-variant:normal;font-weight:500;font-stretch:normal;font-size:15px;font-family:'URW Palladio L';-inkscape-font-specification:'URW Palladio L Medium';text-align:justify;text-anchor:start"
         id="flowPara4823">Изобретена от американеца Хирам Бердан и произвеждана от компанията Колт, тази пушка е била силно използвана от Руската империя, с цел да се въоръжи с по-модерно оръжие от Крнката.</flowPara><flowPara
         style="font-style:normal;font-variant:normal;font-weight:500;font-stretch:normal;font-size:15px;font-family:'URW Palladio L';-inkscape-font-specification:'URW Palladio L Medium';text-align:justify;text-anchor:start"
         id="flowPara4155" /><flowPara
         style="font-style:normal;font-variant:normal;font-weight:500;font-stretch:normal;font-size:15px;font-family:'URW Palladio L';-inkscape-font-specification:'URW Palladio L Medium';text-align:justify;text-anchor:start"
         id="flowPara4157">Доказателство за нейните качества е употребата й в много конфликти из цял свят в продължение на много години включително през Балканските войни и Първата Световна Война.</flowPara></flowRoot>    <text
       xml:space="preserve"
       style="font-style:normal;font-weight:normal;font-size:40px;line-height:125%;font-family:sans-serif;letter-spacing:0px;word-spacing:0px;fill:#000000;fill-opacity:1;stroke:none;stroke-width:1px;stroke-linecap:butt;stroke-linejoin:miter;stroke-opacity:1"
       x="348.16803"
       y="-443.69559"
       id="text4825"
       sodipodi:linespacing="125%"
       transform="matrix(0,1,-1,0,0,0)"><tspan
         sodipodi:role="line"
         id="tspan4827"
         x="348.16803"
         y="-443.69559"
         style="font-style:normal;font-variant:normal;font-weight:normal;font-stretch:normal;font-size:20px;font-family:Ubuntu;-inkscape-font-specification:Ubuntu">10 щети</tspan></text>
    <text
       transform="matrix(0,1,-1,0,0,0)"
       sodipodi:linespacing="125%"
       id="text4152"
       y="-683.87231"
       x="748.54266"
       style="font-style:normal;font-weight:normal;font-size:40px;line-height:125%;font-family:sans-serif;letter-spacing:0px;word-spacing:0px;fill:#000000;fill-opacity:1;stroke:none;stroke-width:1px;stroke-linecap:butt;stroke-linejoin:miter;stroke-opacity:1"
       xml:space="preserve"><tspan
         style="font-style:normal;font-variant:normal;font-weight:normal;font-stretch:normal;font-size:27.5px;font-family:UnBatang;-inkscape-font-specification:UnBatang"
         y="-683.87231"
         x="748.54266"
         id="tspan4154"
         sodipodi:role="line">Крнка</tspan></text>
    <flowRoot
       transform="matrix(0,-1,1,0,-94.001505,968.10562)"
       style="font-style:normal;font-weight:normal;font-size:40px;line-height:125%;font-family:sans-serif;letter-spacing:0px;word-spacing:0px;fill:#000000;fill-opacity:1;stroke:none;stroke-width:1px;stroke-linecap:butt;stroke-linejoin:miter;stroke-opacity:1"
       id="flowRoot4156"
       xml:space="preserve"><flowRegion
         id="flowRegion4158"><rect
           y="-441.1127"
           x="-328.47644"
           height="223.62251"
           width="331.4563"
           id="rect4160"
           transform="scale(-1,-1)" /></flowRegion><flowPara
         style="font-style:normal;font-variant:normal;font-weight:500;font-stretch:normal;font-size:15px;font-family:'URW Palladio L';-inkscape-font-specification:'URW Palladio L Medium';text-align:justify;text-anchor:start"
         id="flowPara4170">М1867 или ‘винтовка крнка’ на руски, е пушка със задно зареждане проектирана от чешкия майстор на оръжия Силвестр Крнка.</flowPara><flowPara
         style="font-style:normal;font-variant:normal;font-weight:500;font-stretch:normal;font-size:15px;font-family:'URW Palladio L';-inkscape-font-specification:'URW Palladio L Medium';text-align:justify;text-anchor:start"
         id="flowPara4164" /><flowPara
         style="font-style:normal;font-variant:normal;font-weight:500;font-stretch:normal;font-size:15px;font-family:'URW Palladio L';-inkscape-font-specification:'URW Palladio L Medium';text-align:justify;text-anchor:start"
         id="flowPara4166">Влиза на въоръжение в Руската империя за пехота и кавалерия.</flowPara></flowRoot>    <text
       transform="matrix(0,1,-1,0,0,0)"
       sodipodi:linespacing="125%"
       id="text4164"
       y="-430.80176"
       x="668.8197"
       style="font-style:normal;font-weight:normal;font-size:40px;line-height:125%;font-family:sans-serif;letter-spacing:0px;word-spacing:0px;fill:#000000;fill-opacity:1;stroke:none;stroke-width:1px;stroke-linecap:butt;stroke-linejoin:miter;stroke-opacity:1"
       xml:space="preserve"><tspan
         style="font-style:normal;font-variant:normal;font-weight:normal;font-stretch:normal;font-size:20px;font-family:Ubuntu;-inkscape-font-specification:Ubuntu"
         y="-430.80176"
         x="668.8197"
         id="tspan4166"
         sodipodi:role="line">8 щети</tspan></text>
    <flowRoot
       xml:space="preserve"
       id="flowRoot4209"
       style="font-style:normal;font-variant:normal;font-weight:500;font-stretch:normal;font-size:40px;line-height:125%;font-family:'URW Palladio L';-inkscape-font-specification:'URW Palladio L Medium';letter-spacing:0px;word-spacing:0px;fill:#000000;fill-opacity:1;stroke:none;stroke-width:1px;stroke-linecap:butt;stroke-linejoin:miter;stroke-opacity:1"><flowRegion
         id="flowRegion4211"><rect
           id="rect4213"
           width="138.73615"
           height="116.35934"
           x="384.88092"
           y="798.1618"
           style="font-style:normal;font-variant:normal;font-weight:500;font-stretch:normal;font-family:'URW Palladio L';-inkscape-font-specification:'URW Palladio L Medium'" /></flowRegion><flowPara
         id="flowPara4215" /></flowRoot>    <flowRoot
       xml:space="preserve"
       id="flowRoot4217"
       style="font-style:normal;font-weight:normal;font-size:40px;line-height:125%;font-family:sans-serif;letter-spacing:0px;word-spacing:0px;fill:#000000;fill-opacity:1;stroke:none;stroke-width:1px;stroke-linecap:butt;stroke-linejoin:miter;stroke-opacity:1"><flowRegion
         id="flowRegion4219"><rect
           id="rect4221"
           width="162.90308"
           height="123.51992"
           x="370.55975"
           y="790.10614" /></flowRegion><flowPara
         id="flowPara4223" /></flowRoot>    <flowRoot
       xml:space="preserve"
       id="flowRoot4225"
       style="font-style:normal;font-variant:normal;font-weight:500;font-stretch:normal;font-size:15px;line-height:125%;font-family:'URW Palladio L';-inkscape-font-specification:'URW Palladio L Medium';letter-spacing:0px;word-spacing:0px;fill:#000000;fill-opacity:1;stroke:none;stroke-width:1px;stroke-linecap:butt;stroke-linejoin:miter;stroke-opacity:1"
       transform="matrix(0,1,-1,0,1244.7125,407.35438)"><flowRegion
         id="flowRegion4227"><rect
           id="rect4229"
           width="207.65671"
           height="116.35934"
           x="390.25134"
           y="765.04413"
           style="font-style:normal;font-variant:normal;font-weight:500;font-stretch:normal;font-size:15px;font-family:'URW Palladio L';-inkscape-font-specification:'URW Palladio L Medium'" /></flowRegion><flowPara
         id="flowPara4231"
         style="font-style:normal;font-variant:normal;font-weight:bold;font-stretch:normal;font-family:'URW Palladio L';-inkscape-font-specification:'URW Palladio L Bold'">Тежък приклад</flowPara><flowPara
         id="flowPara4233">При удар имаш 3/6 шанс да замаяш противника за 1 ход.</flowPara></flowRoot>  </g>
  <g
     inkscape:groupmode="layer"
     id="layer2"
     inkscape:label="berdan"
     sodipodi:insensitive="true">
    <path
       style="fill:none;fill-rule:evenodd;stroke:#000000;stroke-width:1px;stroke-linecap:butt;stroke-linejoin:miter;stroke-opacity:1"
       d="m 466.61392,29.419166 c 10.83351,16.144484 25.24731,51.980603 37.87097,77.970904 1.47821,2.96528 1.06832,4.68404 0.44753,6.15362 -1.54737,4.15059 -0.26193,4.58337 2.01391,7.04869 9.84737,12.23186 18.4117,25.10524 24.39071,39.27128 l 10.18145,25.06201 -1.00696,2.68522 106.32391,271.39688 c -2.74653,0.76491 -4.98671,2.71129 -8.53731,1.60004 L 515.11386,162.77264 C 494.00532,126.12403 458.28034,91.194994 429.74638,55.41996 c -2.22959,-2.910653 -3.17402,-5.796107 2.1258,-8.559125 l 27.18781,-15.16028 c 2.58179,-1.352364 6.43097,-4.321222 7.55393,-2.281389 z"
       id="path4161"
       inkscape:connector-curvature="0"
       sodipodi:nodetypes="cccccccccccccc" />
    <path
       style="fill:none;fill-rule:evenodd;stroke:#000000;stroke-width:1;stroke-linecap:butt;stroke-linejoin:miter;stroke-miterlimit:6.30000019;stroke-dasharray:none;stroke-opacity:1"
       d="m 484.6875,120.23721 c 0.0555,2.2097 -0.68805,4.09978 -3.125,5.3125 3.71982,-0.49947 6.88429,0.27044 9.4375,2.4375"
       id="path4163"
       inkscape:connector-curvature="0"
       sodipodi:nodetypes="ccc" />
    <path
       style="fill:none;fill-rule:evenodd;stroke:#000000;stroke-width:1px;stroke-linecap:butt;stroke-linejoin:miter;stroke-opacity:1"
       d="m 520.96092,139.92929 3.97748,-1.76776 14.76085,34.38306 -1.85616,2.82843"
       id="path4165"
       inkscape:connector-curvature="0" />
    <path
       style="fill:none;fill-rule:evenodd;stroke:#000000;stroke-width:1px;stroke-linecap:butt;stroke-linejoin:miter;stroke-opacity:1"
       d="m 527.28125,143.23721 1.0625,-3.6875 3.65625,-2.1875 -1.40625,-2.96875 -6.31093,2.1471 0.71875,1.8125"
       id="path4167"
       inkscape:connector-curvature="0"
       sodipodi:nodetypes="cccccc" />
    <path
       style="fill:none;fill-rule:evenodd;stroke:#000000;stroke-width:1px;stroke-linecap:butt;stroke-linejoin:miter;stroke-opacity:1"
       d="m 538.97424,173.82343 1.45226,3.14953 c 3.99414,-4.99843 6.37655,4.89743 1.56749,3.74476 l 7.06212,17.94283 2.56326,-0.61872 6.62913,2.2981 -0.26517,5.03814 9.104,22.89258 -5.21492,1.94455 -12.72791,-31.55465"
       id="path4169"
       inkscape:connector-curvature="0"
       sodipodi:nodetypes="cccccccccc" />
    <path
       style="fill:none;fill-rule:evenodd;stroke:#000000;stroke-width:1px;stroke-linecap:butt;stroke-linejoin:miter;stroke-opacity:1"
       d="m 638.68671,460.82739 2.76899,7.75317 c 3.31448,0.52472 6.09643,-0.25234 8.06962,-3.00633 l -2.76899,-6.56646"
       id="path4171"
       inkscape:connector-curvature="0"
       sodipodi:nodetypes="cccc" />
    <path
       style="fill:none;fill-rule:evenodd;stroke:#000000;stroke-width:1px;stroke-linecap:butt;stroke-linejoin:miter;stroke-opacity:1"
       d="m 645.12305,468.77534 10.96464,27.971 c 2.91865,0.49591 5.59682,-0.37081 7.88265,-3.039 l -9.96952,-25.73503 m -2.15384,-5.58399 -90.02155,-232.31746"
       id="path4175"
       inkscape:connector-curvature="0"
       sodipodi:nodetypes="cccccc" />
    <path
       style="fill:none;fill-rule:evenodd;stroke:#000000;stroke-width:1px;stroke-linecap:round;stroke-linejoin:round;stroke-opacity:1"
       d="m 650.50086,462.56888 c 1.79956,-0.61034 3.17931,-1.21938 5.419,-2.1289 l 2.29362,5.70609 c -2.06355,1.04255 -3.67375,1.36904 -5.50771,2.20122"
       id="path4177"
       inkscape:connector-curvature="0"
       sodipodi:nodetypes="cccc" />
    <path
       style="fill:none;fill-rule:evenodd;stroke:#000000;stroke-width:1px;stroke-linecap:butt;stroke-linejoin:miter;stroke-opacity:1"
       d="m 499.5625,139.29971 c 0.0157,2.33616 0.16999,4.44419 -1.75,6.125 -8.49746,7.66434 3.17801,19.53714 10.1875,19.9375 1.43657,0.20299 2.99876,0.004 3.875,2 l 1.39278,3.41014 c -1.82318,1.57465 0.13672,5.17595 1.0629,8.22347 l 35.24345,84.80806 -0.99818,2.0868 4.58861,10.83861 2.61076,-0.79114 62.57911,152.05697 4.35127,6.88291 c -2.19758,3.49171 -0.57891,4.83677 2.25474,5.49841 l 4.15349,-1.38449"
       id="path4183"
       inkscape:connector-curvature="0"
       sodipodi:nodetypes="cccccccccccccc" />
    <path
       style="fill:none;fill-rule:evenodd;stroke:#000000;stroke-width:1px;stroke-linecap:butt;stroke-linejoin:miter;stroke-opacity:1"
       d="m 504.52069,146.13857 c -3.41214,-2.38513 -5.60764,-1.26672 -6.62913,-0.90598"
       id="path4185"
       inkscape:connector-curvature="0"
       sodipodi:nodetypes="cc" />
    <path
       style="fill:none;fill-rule:evenodd;stroke:#000000;stroke-width:1px;stroke-linecap:butt;stroke-linejoin:miter;stroke-opacity:1"
       d="m 626.74051,439.94132 18.67088,46.5981 -0.79114,0.87025 1.50317,4.5095 c 1.37484,0.51871 2.63054,0.44172 3.56013,-1.26583 l -8.30697,-22.23101"
       id="path4187"
       inkscape:connector-curvature="0"
       sodipodi:nodetypes="cccccc" />
    <path
       style="fill:none;fill-rule:evenodd;stroke:#000000;stroke-width:1px;stroke-linecap:butt;stroke-linejoin:miter;stroke-opacity:1"
       d="m 509.57561,153.93381 c -4.49195,-2.49216 -8.14765,-2.30833 -10.40521,2.34956 -1.20742,-4.61673 3.29808,-5.83659 7.44028,-7.27246"
       id="path4189"
       inkscape:connector-curvature="0"
       sodipodi:nodetypes="ccc" />
    <path
       style="fill:none;fill-rule:evenodd;stroke:#000000;stroke-width:1px;stroke-linecap:butt;stroke-linejoin:miter;stroke-opacity:1"
       d="m 505.54778,164.73061 c 5.56035,-0.48349 7.04467,-3.10689 6.6571,-6.71304"
       id="path4191"
       inkscape:connector-curvature="0"
       sodipodi:nodetypes="cc" />
  </g>
  <g
     inkscape:groupmode="layer"
     id="layer4"
     inkscape:label="berdan detail"
     sodipodi:insensitive="true">
    <path
       style="fill:none;fill-rule:evenodd;stroke:#000000;stroke-width:0.30000001;stroke-linecap:butt;stroke-linejoin:miter;stroke-miterlimit:4.57000017;stroke-dasharray:none;stroke-opacity:1"
       d="m 573.02215,302.52043 10.99684,-4.03481"
       id="path4193"
       inkscape:connector-curvature="0" />
    <path
       inkscape:connector-curvature="0"
       id="path4195"
       d="m 574.84177,306.79258 10.99684,-4.03481"
       style="fill:none;fill-rule:evenodd;stroke:#000000;stroke-width:0.30000001;stroke-linecap:butt;stroke-linejoin:miter;stroke-miterlimit:4.57000017;stroke-dasharray:none;stroke-opacity:1" />
    <path
       inkscape:connector-curvature="0"
       id="path4197"
       d="m 627.14918,433.31726 8.54938,-3.18169"
       style="fill:none;fill-rule:evenodd;stroke:#000000;stroke-width:0.30000001;stroke-linecap:butt;stroke-linejoin:miter;stroke-miterlimit:4.57000017;stroke-dasharray:none;stroke-opacity:1"
       sodipodi:nodetypes="cc" />
    <path
       style="fill:none;fill-rule:evenodd;stroke:#000000;stroke-width:0.30000001;stroke-linecap:butt;stroke-linejoin:miter;stroke-miterlimit:4.57000017;stroke-dasharray:none;stroke-opacity:1"
       d="m 628.9688,437.58941 8.54938,-3.18169"
       id="path4199"
       inkscape:connector-curvature="0"
       sodipodi:nodetypes="cc" />
    <path
       style="fill:none;fill-rule:evenodd;stroke:#000000;stroke-width:0.30000001;stroke-linecap:butt;stroke-linejoin:miter;stroke-miterlimit:4.57000017;stroke-dasharray:none;stroke-opacity:1"
       d="m 650.2769,462.80524 2.15585,5.59731"
       id="path4201"
       inkscape:connector-curvature="0" />
    <path
       style="fill:none;fill-rule:evenodd;stroke:#000000;stroke-width:0.30000001;stroke-linecap:butt;stroke-linejoin:miter;stroke-miterlimit:4.57000017;stroke-dasharray:none;stroke-opacity:1"
       d="m 555.89558,275.77547 c 4.40437,-1.43318 0.49357,-9.01236 0.33565,-13.81767"
       id="path4203"
       inkscape:connector-curvature="0"
       sodipodi:nodetypes="cc" />
    <ellipse
       style="opacity:1;fill:none;fill-opacity:1;stroke:#000000;stroke-width:0.30000001;stroke-linecap:round;stroke-linejoin:miter;stroke-miterlimit:4.57000017;stroke-dasharray:none;stroke-dashoffset:0;stroke-opacity:1"
       id="path4205"
       cx="625.06781"
       cy="437.14014"
       rx="1.4265208"
       ry="1.5384048" />
    <ellipse
       ry="1.5384048"
       rx="1.4265208"
       cy="305.75555"
       cx="571.41766"
       id="ellipse4207"
       style="opacity:1;fill:none;fill-opacity:1;stroke:#000000;stroke-width:0.30000001;stroke-linecap:round;stroke-linejoin:miter;stroke-miterlimit:4.57000017;stroke-dasharray:none;stroke-dashoffset:0;stroke-opacity:1" />
    <path
       style="fill:none;fill-rule:evenodd;stroke:#000000;stroke-width:0.30000001;stroke-linecap:butt;stroke-linejoin:miter;stroke-miterlimit:4;stroke-dasharray:none;stroke-opacity:1"
       d="m 572.51035,301.50878 c -6.88052,2.93996 -1.99234,9.62217 2.62927,6.20957"
       id="path4235"
       inkscape:connector-curvature="0"
       sodipodi:nodetypes="cc" />
    <path
       style="fill:none;fill-rule:evenodd;stroke:#000000;stroke-width:0.30000001;stroke-linecap:butt;stroke-linejoin:miter;stroke-miterlimit:4;stroke-dasharray:none;stroke-opacity:1"
       d="m 551.9237,272.86648 c 2.49561,-1.45762 3.35262,-5.61674 1.67826,-11.24433 l -36.80984,-89.67502 c -1.11081,-1.57332 -2.15789,0.0396 -1.90202,0.89507 l 36.642,89.7869 c -0.24874,2.44777 -1.06944,3.66798 -2.06985,4.30753"
       id="path4237"
       inkscape:connector-curvature="0"
       sodipodi:nodetypes="cccccc" />
    <path
       style="fill:none;fill-rule:evenodd;stroke:#000000;stroke-width:0.30000001;stroke-linecap:butt;stroke-linejoin:miter;stroke-miterlimit:4;stroke-dasharray:none;stroke-opacity:1"
       d="m 558.22785,204.26094 4.27215,1.02848 -1.74051,1.7405 6.72469,16.77216 -1.02848,3.08544"
       id="path4198"
       inkscape:connector-curvature="0" />
  </g>
  <g
     inkscape:groupmode="layer"
     id="layer5"
     inkscape:label="krnka"
     sodipodi:insensitive="true">
    <path
       sodipodi:nodetypes="ccccccccccccccccc"
       inkscape:connector-curvature="0"
       id="path4280"
       d="m 539.07727,680.64571 c -0.0651,-4.93378 -3.01202,-14.08478 -15.84148,-33.79823 -1.12745,-1.90921 -2.83565,-6.04751 -1.31252,-9.42977 1.21019,-1.79442 0.46862,-7.21651 -0.45336,-11.52598 L 509.03106,569.2581 c -0.95509,-4.04856 -3.33614,-5.37787 -6.6607,-4.90787 l -31.6092,9.1457 c -3.64275,1.36069 -0.84237,3.48094 0.77264,4.12124 18.9633,42.28762 31.98431,62.62406 45.55511,84.99145 5.98294,8.32088 7.8001,26.54245 10.9971,41.4846 l 9.43837,60.82694 m 0.7936,5.11445 13.49518,86.97157 m 0.79346,5.11354 11.81678,76.15491 m 1.39892,5.11441 4.48598,16.40063"
       style="fill:none;fill-rule:evenodd;stroke:#000000;stroke-width:1px;stroke-linecap:butt;stroke-linejoin:miter;stroke-opacity:1" />
    <path
       sodipodi:nodetypes="ccccccc"
       inkscape:connector-curvature="0"
       id="path4282"
       d="m 550.70648,674.36749 c -1.47971,-1.41199 -15.60312,10.93188 -15.51247,7.12006 0.54076,-0.83602 0.66863,-2.85169 0.0723,-4.16846 -4.35939,-9.296 -15.28158,3.0076 -3.6188,8.02068 3.02436,0.7421 5.86763,-0.17738 8.68404,-1.34347 2.27842,-2.95698 6.30265,-5.4151 10.12407,-7.93118 1.39105,-1.02401 0.8047,-1.32595 0.25089,-1.69763 z"
       style="fill:none;fill-rule:evenodd;stroke:#000000;stroke-width:1px;stroke-linecap:butt;stroke-linejoin:miter;stroke-opacity:1" />
    <path
       sodipodi:nodetypes="ccccccc"
       inkscape:connector-curvature="0"
       id="path4284"
       d="m 539.80914,684.54957 c 1.15551,1.20781 2.19159,1.76942 3.56705,1.72177 l 0.60129,2.90385 c 0.91076,3.94225 -2.59194,6.05211 -2.41242,-0.1169 -1.12098,-0.34347 -2.24599,-0.67609 -3.07219,-1.81454 l -2.83855,0.646 -0.3814,-2.03441"
       style="fill:none;fill-rule:evenodd;stroke:#000000;stroke-width:1px;stroke-linecap:butt;stroke-linejoin:miter;stroke-opacity:1" />
    <path
       sodipodi:nodetypes="cccccc"
       inkscape:connector-curvature="0"
       id="path4286"
       d="m 536.40002,687.92065 1.83147,10.07239 c 0.13353,2.14623 0.94244,3.37979 2.76974,3.23723 l 4.88328,-0.97237 -1.03083,-5.49841 c -4.39912,1.00035 -5.00854,-2.50098 -5.38826,-6.27515"
       style="fill:none;fill-rule:evenodd;stroke:#000000;stroke-width:1px;stroke-linecap:butt;stroke-linejoin:miter;stroke-opacity:1" />
    <path
       sodipodi:nodetypes="cccccccccccc"
       inkscape:connector-curvature="0"
       id="path4288"
       d="m 544.83715,700.74318 4.12372,30.50539 m 1.10004,8.35194 3.19356,23.62449 m 0.60719,4.49173 11.81615,87.41058 m 0.6166,4.56128 10.43572,77.19878 m 0.61504,4.54988 6.22783,46.07071 c -2.25307,1.20745 -3.9827,1.07824 -5.84788,0.92766 l -2.8529,-21.83572"
       style="fill:none;fill-rule:evenodd;stroke:#000000;stroke-width:1px;stroke-linecap:butt;stroke-linejoin:miter;stroke-opacity:1" />
    <path
       sodipodi:nodetypes="ccccc"
       inkscape:connector-curvature="0"
       id="path4290"
       d="m 577.3122,966.25662 c -2.00058,0.39744 -3.94377,1.56114 -6.07581,0.20091 l -0.99129,-6.57554 c 2.06808,0.78111 3.90889,0.70632 6.07005,-0.25262 z"
       style="fill:none;fill-rule:evenodd;stroke:#000000;stroke-width:1px;stroke-linecap:butt;stroke-linejoin:miter;stroke-opacity:1" />
    <path
       sodipodi:nodetypes="ccccc"
       inkscape:connector-curvature="0"
       id="path4292"
       d="m 577.17116,936.90215 -11.60217,1.38369 c -5.16748,0.36585 -3.43908,6.37476 0.89609,5.01415 l 11.3762,-1.90763 c 0.83848,-1.64467 0.56496,-3.13447 -0.6701,-4.49022 z"
       style="fill:none;fill-rule:evenodd;stroke:#000000;stroke-width:1px;stroke-linecap:butt;stroke-linejoin:miter;stroke-opacity:1" />
    <path
       style="fill:none;fill-rule:evenodd;stroke:#000000;stroke-width:1px;stroke-linecap:butt;stroke-linejoin:miter;stroke-opacity:1"
       d="m 566.158,855.20352 -13.20146,1.66094 c -5.16693,0.37359 -3.42956,6.37989 0.90356,5.01274 l 12.9747,-2.18452 c 0.83603,-1.64593 0.56026,-3.13533 -0.6768,-4.48916 z"
       id="path4294"
       inkscape:connector-curvature="0"
       sodipodi:nodetypes="ccccc" />
    <path
       sodipodi:nodetypes="ccccc"
       inkscape:connector-curvature="0"
       id="path4296"
       d="m 553.7629,763.13112 -15.96102,1.82013 c -5.16692,0.3736 -3.42955,6.37991 0.90356,5.01275 l 15.73426,-2.34374 c 0.83604,-1.64593 0.56026,-3.13532 -0.6768,-4.48914 z"
       style="fill:none;fill-rule:evenodd;stroke:#000000;stroke-width:1px;stroke-linecap:butt;stroke-linejoin:miter;stroke-opacity:1" />
    <path
       sodipodi:nodetypes="cc"
       inkscape:connector-curvature="0"
       id="path4298"
       d="m 520.62698,670.27397 c -13.60695,-6.65076 -8.13658,24.92774 3.33998,13.26148"
       style="fill:none;fill-rule:evenodd;stroke:#000000;stroke-width:1px;stroke-linecap:butt;stroke-linejoin:miter;stroke-opacity:1" />
    <path
       sodipodi:nodetypes="cc"
       inkscape:connector-curvature="0"
       id="path4300"
       d="m 516.84016,662.21875 c 0.27238,2.82896 0.54609,5.77202 -1.35071,7.36782"
       style="fill:none;fill-rule:evenodd;stroke:#000000;stroke-width:1px;stroke-linecap:butt;stroke-linejoin:miter;stroke-opacity:1" />
    <path
       sodipodi:nodetypes="cc"
       inkscape:connector-curvature="0"
       id="path4302"
       d="m 517.09394,685.73467 c 3.12177,1.85394 7.46114,2.64688 8.76044,6.65076"
       style="fill:none;fill-rule:evenodd;stroke:#000000;stroke-width:1px;stroke-linecap:butt;stroke-linejoin:miter;stroke-opacity:1" />
    <path
       sodipodi:nodetypes="ccccc"
       inkscape:connector-curvature="0"
       id="path4304"
       d="m 540.93573,701.36223 5.37297,40.14376 c 2.90367,-1.82878 7.60751,-4.68118 10.92157,-4.32086 0.10979,-3.12809 -1.76807,-5.28063 -5.19511,-6.6728 l -2.70212,0.18462"
       style="fill:none;fill-rule:evenodd;stroke:#000000;stroke-width:1px;stroke-linecap:butt;stroke-linejoin:miter;stroke-opacity:1" />
    <path
       sodipodi:nodetypes="cc"
       inkscape:connector-curvature="0"
       id="path4306"
       d="m 550.98056,730.46856 c -0.55231,-4.80649 -3.91806,-13.69419 -1.65692,-14.41944"
       style="fill:none;fill-rule:evenodd;stroke:#000000;stroke-width:1px;stroke-linecap:round;stroke-linejoin:miter;stroke-opacity:1" />
    <path
       sodipodi:nodetypes="cccccccc"
       inkscape:connector-curvature="0"
       id="path4308"
       d="m 576.30545,959.67229 -2.42929,-17.65764 m -0.64348,-4.67711 -10.58081,-76.90777 m -0.64264,-4.67116 -12.01789,-87.35332 m -0.65855,-4.78672 -3.15706,-22.94755"
       style="fill:none;fill-rule:evenodd;stroke:#000000;stroke-width:1px;stroke-linecap:butt;stroke-linejoin:miter;stroke-opacity:1" />
    <path
       sodipodi:nodetypes="cc"
       inkscape:connector-curvature="0"
       id="path4310"
       d="m 522.05303,674.84453 c -3.7981,-1.39474 -6.99769,-1.7318 -7.86961,2.04453"
       style="fill:none;fill-rule:evenodd;stroke:#000000;stroke-width:1px;stroke-linecap:round;stroke-linejoin:miter;stroke-opacity:1" />
    <path
       style="fill:none;fill-rule:evenodd;stroke:#000000;stroke-width:1px;stroke-linecap:butt;stroke-linejoin:miter;stroke-opacity:1"
       d="m 566.49924,945.93125 4.96978,36.17823 -0.74128,1.48574 0.68065,4.25942 c 1.26352,0.2763 2.45443,0.16518 3.55278,-0.43959 l -0.5738,-4.27507 -1.13746,-1.20962 -2.02631,-15.51408"
       id="path4312"
       inkscape:connector-curvature="0"
       sodipodi:nodetypes="cccccccc" />
    <path
       sodipodi:nodetypes="cccc"
       inkscape:connector-curvature="0"
       id="path4314"
       d="m 582.67626,979.99241 c 0.38833,-0.35738 2.23719,-1.72854 2.23719,-1.72854 l -0.2886,-2.45017 -2.30592,0.14763"
       style="fill:none;fill-rule:evenodd;stroke:#000000;stroke-width:1px;stroke-linecap:butt;stroke-linejoin:miter;stroke-opacity:1" />
    <path
       sodipodi:nodetypes="cccc"
       inkscape:connector-curvature="0"
       id="path4316"
       d="m 510.62033,652.11533 c -2.2221,-1.21271 -4.40165,-1.72839 -6.47777,-0.55003 -1.12347,0.60529 -2.27678,-0.82428 -1.17525,-1.71483 1.53316,-1.12174 3.45926,-1.78206 3.80429,-4.29896"
       style="fill:none;fill-rule:evenodd;stroke:#000000;stroke-width:1px;stroke-linecap:butt;stroke-linejoin:miter;stroke-opacity:1" />
  </g>
  <g
     inkscape:groupmode="layer"
     id="layer6"
     inkscape:label="krnka detail"
     sodipodi:insensitive="true">
    <path
       sodipodi:nodetypes="ccccc"
       inkscape:connector-curvature="0"
       id="path4318"
       d="m 535.52824,680.61383 c 3.5167,-6.66131 -8.19536,-19.74155 -12.78394,-29.40546 -3.42134,-7.57249 -7.79807,-2.27516 -6.44691,1.4363 4.77961,11.46626 8.4645,23.08425 10.14375,34.98026 0.89031,8.96485 9.79274,5.20706 7.74589,-1.79368"
       style="fill:none;fill-rule:evenodd;stroke:#000000;stroke-width:0.30000001;stroke-linecap:butt;stroke-linejoin:miter;stroke-miterlimit:4;stroke-dasharray:none;stroke-opacity:1" />
    <ellipse
       ry="1.4921325"
       rx="1.4808531"
       cy="-407.04834"
       cx="823.63605"
       id="ellipse4320"
       style="opacity:1;fill:none;fill-opacity:1;stroke:#000000;stroke-width:0.30000001;stroke-linecap:round;stroke-linejoin:round;stroke-miterlimit:4;stroke-dasharray:none;stroke-dashoffset:0;stroke-opacity:1"
       transform="matrix(0.18426679,0.98287626,-0.98287626,0.18426679,0,0)" />
    <ellipse
       style="opacity:1;fill:none;fill-opacity:1;stroke:#000000;stroke-width:0.30000001;stroke-linecap:round;stroke-linejoin:round;stroke-miterlimit:4;stroke-dasharray:none;stroke-dashoffset:0;stroke-opacity:1"
       id="ellipse4322"
       cx="853.50153"
       cy="-387.03253"
       rx="1.4808531"
       ry="1.4921325"
       transform="matrix(0.18426679,0.98287626,-0.98287626,0.18426679,0,0)" />
    <ellipse
       ry="1.4921325"
       rx="1.4808531"
       cy="-384.78937"
       cx="946.61389"
       id="ellipse4324"
       style="opacity:1;fill:none;fill-opacity:1;stroke:#000000;stroke-width:0.30000001;stroke-linecap:round;stroke-linejoin:round;stroke-miterlimit:4;stroke-dasharray:none;stroke-dashoffset:0;stroke-opacity:1"
       transform="matrix(0.18426679,0.98287626,-0.98287626,0.18426679,0,0)" />
    <ellipse
       style="opacity:1;fill:none;fill-opacity:1;stroke:#000000;stroke-width:0.30000001;stroke-linecap:round;stroke-linejoin:round;stroke-miterlimit:4;stroke-dasharray:none;stroke-dashoffset:0;stroke-opacity:1"
       id="ellipse4326"
       cx="1028.9479"
       cy="-382.14368"
       rx="1.4808531"
       ry="1.4921325"
       transform="matrix(0.18426679,0.98287626,-0.98287626,0.18426679,0,0)" />
    <ellipse
       style="opacity:1;fill:none;fill-opacity:1;stroke:#000000;stroke-width:0.30000001;stroke-linecap:round;stroke-linejoin:round;stroke-miterlimit:4;stroke-dasharray:none;stroke-dashoffset:0;stroke-opacity:1"
       id="ellipse4328"
       cx="773.98047"
       cy="-394.52521"
       rx="1.4808531"
       ry="1.4921325"
       transform="matrix(0.18426679,0.98287626,-0.98287626,0.18426679,0,0)" />
    <ellipse
       ry="2.1265485"
       rx="2.1109116"
       cy="-396.87"
       cx="764.89581"
       id="ellipse4330"
       style="opacity:1;fill:none;fill-opacity:1;stroke:#000000;stroke-width:0.30000001;stroke-linecap:round;stroke-linejoin:round;stroke-miterlimit:4;stroke-dasharray:none;stroke-dashoffset:0;stroke-opacity:1"
       transform="matrix(0.18426679,0.98287626,-0.98287626,0.18426679,0,0)" />
    <ellipse
       ry="1.4921325"
       rx="1.4808531"
       cy="-390.31238"
       cx="735.57068"
       id="ellipse4332"
       style="opacity:1;fill:none;fill-opacity:1;stroke:#000000;stroke-width:0.30000001;stroke-linecap:round;stroke-linejoin:round;stroke-miterlimit:4;stroke-dasharray:none;stroke-dashoffset:0;stroke-opacity:1"
       transform="matrix(0.18426679,0.98287626,-0.98287626,0.18426679,0,0)" />
  </g>
</svg>
