<?xml version="1.0" encoding="UTF-8" standalone="no"?>
<!-- Created with Inkscape (http://www.inkscape.org/) -->

<svg
   xmlns:dc="http://purl.org/dc/elements/1.1/"
   xmlns:cc="http://creativecommons.org/ns#"
   xmlns:rdf="http://www.w3.org/1999/02/22-rdf-syntax-ns#"
   xmlns:svg="http://www.w3.org/2000/svg"
   xmlns="http://www.w3.org/2000/svg"
   xmlns:sodipodi="http://sodipodi.sourceforge.net/DTD/sodipodi-0.dtd"
   xmlns:inkscape="http://www.inkscape.org/namespaces/inkscape"
   width="210mm"
   height="297mm"
   viewBox="0 0 744.09448819 1052.3622047"
   id="svg2"
   version="1.1"
   inkscape:version="0.91 r13725"
   sodipodi:docname="golemi - espingol djezail.svg"
   inkscape:export-filename="/home/v/Dropbox/Files/PHONE/espingol djezail.png"
   inkscape:export-xdpi="250"
   inkscape:export-ydpi="250">
  <defs
     id="defs4" />
  <sodipodi:namedview
     id="base"
     pagecolor="#ffffff"
     bordercolor="#666666"
     borderopacity="1.0"
     inkscape:pageopacity="0.0"
     inkscape:pageshadow="2"
     inkscape:zoom="1.1172287"
     inkscape:cx="378.54139"
     inkscape:cy="326.91507"
     inkscape:document-units="px"
     inkscape:current-layer="layer1"
     showgrid="false"
     inkscape:window-width="1920"
     inkscape:window-height="1054"
     inkscape:window-x="0"
     inkscape:window-y="0"
     inkscape:window-maximized="1" />
  <metadata
     id="metadata7">
    <rdf:RDF>
      <cc:Work
         rdf:about="">
        <dc:format>image/svg+xml</dc:format>
        <dc:type
           rdf:resource="http://purl.org/dc/dcmitype/StillImage" />
        <dc:title />
      </cc:Work>
    </rdf:RDF>
  </metadata>
  <g
     inkscape:label="hartiq"
     inkscape:groupmode="layer"
     id="layer1"
     style="display:inline;opacity:1"
     sodipodi:insensitive="true">
    <rect
       style="opacity:0.98000004;fill:#ffffff;fill-opacity:1;stroke:none;stroke-width:6.04816818;stroke-linecap:round;stroke-linejoin:round;stroke-miterlimit:4;stroke-dasharray:none;stroke-dashoffset:0;stroke-opacity:1"
       id="rect4198"
       width="781.30011"
       height="1105.4335"
       x="-17.149542"
       y="-17.272816" />
  </g>
  <g
     inkscape:groupmode="layer"
     id="layer3"
     inkscape:label="tekst"
     sodipodi:insensitive="true">
    <text
       xml:space="preserve"
       style="font-style:normal;font-weight:normal;font-size:40px;line-height:125%;font-family:sans-serif;letter-spacing:0px;word-spacing:0px;fill:#000000;fill-opacity:1;stroke:none;stroke-width:1px;stroke-linecap:butt;stroke-linejoin:miter;stroke-opacity:1"
       x="185.99519"
       y="-684.60919"
       id="text4759"
       sodipodi:linespacing="125%"
       transform="matrix(0,1,-1,0,0,0)"><tspan
         sodipodi:role="line"
         id="tspan4761"
         x="185.99519"
         y="-684.60919"
         style="font-style:normal;font-variant:normal;font-weight:normal;font-stretch:normal;font-size:27.5px;font-family:UnBatang;-inkscape-font-specification:UnBatang">Еспингол</tspan></text>
    <flowRoot
       xml:space="preserve"
       id="flowRoot4813"
       style="font-style:normal;font-weight:normal;font-size:40px;line-height:125%;font-family:sans-serif;letter-spacing:0px;word-spacing:0px;fill:#000000;fill-opacity:1;stroke:none;stroke-width:1px;stroke-linecap:butt;stroke-linejoin:miter;stroke-opacity:1"
       transform="matrix(0,-1,1,0,-83.16475,407.2251)"><flowRegion
         id="flowRegion4815"><rect
           transform="scale(-1,-1)"
           id="rect4817"
           width="331.4563"
           height="223.62251"
           x="-328.47644"
           y="-441.1127" /></flowRegion><flowPara
         style="font-style:normal;font-variant:normal;font-weight:500;font-stretch:normal;font-size:15px;font-family:'URW Palladio L';-inkscape-font-specification:'URW Palladio L Medium';text-align:justify;text-anchor:start"
         id="flowPara4823">Френска пушка с къса и широка цев. Изстрелва много на брой малки оловни топчета. Цевта е от месинг, а дулото е разширено за да разпространи топчетата и да улесни пълненето, особено докато стрелецът язди.</flowPara></flowRoot>    <text
       xml:space="preserve"
       style="font-style:normal;font-weight:normal;font-size:40px;line-height:125%;font-family:sans-serif;letter-spacing:0px;word-spacing:0px;fill:#000000;fill-opacity:1;stroke:none;stroke-width:1px;stroke-linecap:butt;stroke-linejoin:miter;stroke-opacity:1"
       x="331.16168"
       y="-455.33151"
       id="text4825"
       sodipodi:linespacing="125%"
       transform="matrix(0,1,-1,0,0,0)"><tspan
         sodipodi:role="line"
         id="tspan4827"
         x="331.16168"
         y="-455.33151"
         style="font-style:normal;font-variant:normal;font-weight:normal;font-stretch:normal;font-size:20px;font-family:Ubuntu;-inkscape-font-specification:Ubuntu">6 щети</tspan></text>
    <text
       transform="matrix(0,1,-1,0,0,0)"
       sodipodi:linespacing="125%"
       id="text4152"
       y="-680.83557"
       x="683.30341"
       style="font-style:normal;font-weight:normal;font-size:40px;line-height:125%;font-family:sans-serif;letter-spacing:0px;word-spacing:0px;fill:#000000;fill-opacity:1;stroke:none;stroke-width:1px;stroke-linecap:butt;stroke-linejoin:miter;stroke-opacity:1"
       xml:space="preserve"><tspan
         style="font-style:normal;font-variant:normal;font-weight:normal;font-stretch:normal;font-size:27.5px;font-family:UnBatang;-inkscape-font-specification:UnBatang"
         y="-680.83557"
         x="683.30341"
         id="tspan4154"
         sodipodi:role="line">Индийски джезаил</tspan></text>
    <flowRoot
       transform="matrix(0,-1,1,0,-105.80625,973.36348)"
       style="font-style:normal;font-weight:normal;font-size:40px;line-height:125%;font-family:sans-serif;letter-spacing:0px;word-spacing:0px;fill:#000000;fill-opacity:1;stroke:none;stroke-width:1px;stroke-linecap:butt;stroke-linejoin:miter;stroke-opacity:1"
       id="flowRoot4156"
       xml:space="preserve"><flowRegion
         id="flowRegion4158"><rect
           y="-441.1127"
           x="-328.47644"
           height="223.62251"
           width="331.4563"
           id="rect4160"
           transform="scale(-1,-1)" /></flowRegion><flowPara
         style="font-style:normal;font-variant:normal;font-weight:500;font-stretch:normal;font-size:15px;font-family:'URW Palladio L';-inkscape-font-specification:'URW Palladio L Medium';text-align:justify;text-anchor:start"
         id="flowPara4170">Ръчно създавани и зареждани през дулото дълги пушки. Типични за Югозападна Азия и Северна Африка, джезаилите са майсторски изработени и изящно украсени. Изключително дългата цев ги прави много точни за времето им. Нестандартната форма на приклада позволява на ездач на камила да стреля с една ръка.</flowPara></flowRoot>    <text
       transform="matrix(0,1,-1,0,0,0)"
       sodipodi:linespacing="125%"
       id="text4164"
       y="-450.49335"
       x="650.44293"
       style="font-style:normal;font-weight:normal;font-size:40px;line-height:125%;font-family:sans-serif;letter-spacing:0px;word-spacing:0px;fill:#000000;fill-opacity:1;stroke:none;stroke-width:1px;stroke-linecap:butt;stroke-linejoin:miter;stroke-opacity:1"
       xml:space="preserve"><tspan
         style="font-style:normal;font-variant:normal;font-weight:normal;font-stretch:normal;font-size:20px;font-family:Ubuntu;-inkscape-font-specification:Ubuntu"
         y="-450.49335"
         x="650.44293"
         id="tspan4166"
         sodipodi:role="line">7 щети</tspan></text>
    <text
       xml:space="preserve"
       style="font-style:normal;font-weight:normal;font-size:40px;line-height:125%;font-family:sans-serif;letter-spacing:0px;word-spacing:0px;fill:#000000;fill-opacity:1;stroke:none;stroke-width:1px;stroke-linecap:butt;stroke-linejoin:miter;stroke-opacity:1"
       x="305.73349"
       y="67.117706"
       id="text4221"
       sodipodi:linespacing="125%"><tspan
         sodipodi:role="line"
         id="tspan4223"
         x="305.73349"
         y="67.117706">*</tspan></text>
    <text
       xml:space="preserve"
       style="font-style:normal;font-weight:normal;font-size:40px;line-height:125%;font-family:sans-serif;letter-spacing:0px;word-spacing:0px;fill:#000000;fill-opacity:1;stroke:none;stroke-width:1px;stroke-linecap:butt;stroke-linejoin:miter;stroke-opacity:1"
       x="307.71378"
       y="605.96429"
       id="text4221-3"
       sodipodi:linespacing="125%"><tspan
         sodipodi:role="line"
         id="tspan4223-6"
         x="307.71378"
         y="605.96429">*</tspan></text>
  </g>
  <g
     inkscape:groupmode="layer"
     id="layer5"
     inkscape:label="djezail"
     style="display:inline"
     sodipodi:insensitive="true">
    <path
       sodipodi:nodetypes="cccccccccccccccccccccccccccccc"
       inkscape:connector-curvature="0"
       id="path4262"
       d="m 530.15838,863.8815 7.62079,-20.06967 m 1.78712,-4.70697 3.78305,-9.96286 m 1.75223,-4.61559 9.96413,-26.24074 m 1.71821,-4.5237 7.02828,-18.50917 m 1.762,-4.64119 6.86317,-18.07436 m 1.74082,-4.58571 7.36595,-19.42239 m 3.3091,-8.69169 5.18891,-13.66516 m 1.71701,-4.52058 5.54671,-14.6075 m 1.74783,-4.60408 5.95754,-15.68929 m 1.73372,-4.56714 6.19312,-16.30973 m 1.69325,-4.45838 5.14172,-13.54072 m 1.75491,-4.62261 5.43088,-14.30231 m 1.71356,-4.51156 10.59839,-27.91112 c 0.69882,-0.34636 1.40584,-0.76079 2.17717,-1.70908 -1.80585,-2.4419 -4.12604,-3.00781 -6.74299,-2.49136 -0.20787,1.05284 0.0176,1.86261 0.31137,2.63405 l -4.4304,11.99123"
       style="fill:none;fill-rule:evenodd;stroke:#000000;stroke-width:1px;stroke-linecap:butt;stroke-linejoin:miter;stroke-opacity:1" />
    <path
       sodipodi:nodetypes="ccccccccccccccccccccccccccccccccccccccc"
       inkscape:connector-curvature="0"
       id="path4264"
       d="m 634.52828,573.57682 -1.20352,1.31877 -4.25697,11.56651 c 1.57905,0.55313 3.57618,0.74725 3.07169,3.08952 l -5.52272,14.07045 m -1.81439,4.6225 -5.57625,14.20684 m -1.74787,4.45313 -5.3039,13.51296 m -1.80929,4.60971 -6.33893,16.14998 m -1.77053,4.51076 -6.14636,15.6593 m -1.77065,4.51109 -5.71647,14.56406 m -1.79203,4.56568 -5.35137,13.63391 m -2.24907,5.77011 -8.69742,22.1187 m -1.81419,4.622 -7.08243,18.04415 m -1.77324,4.51787 -7.24019,18.44611 m -1.77063,4.51104 -10.26162,26.14393 m -1.79226,4.56627 -3.918,9.98207 m -1.79385,4.57016 -7.84911,19.99745 c -0.7306,3.46885 3.96578,3.33045 7.03439,0.71062 -8.17744,15.20365 -12.3762,35.26252 -20.67263,37.97503 -19.46084,-37.40762 -78.8218,37.40852 -16.3339,84.00247 -2.09487,1.24402 -4.14976,1.9448 -6.13065,1.63874 l -58.70387,-5.06088 c -2.69015,-0.32918 -5.71509,0.0499 -7.29927,-2.6186 13.6419,-8.29636 22.507,-33.80334 32.05117,-56.86379 10.37094,-22.02125 21.12302,-41.22484 46.11026,-52.28152 11.34969,-6.11449 19.43611,-20.31168 27.08798,-35.41549 35.42299,-79.35148 67.13725,-165.01508 100.69649,-247.53858"
       style="fill:none;fill-rule:evenodd;stroke:#000000;stroke-width:1px;stroke-linecap:butt;stroke-linejoin:miter;stroke-opacity:1" />
    <path
       sodipodi:nodetypes="cccccc"
       inkscape:connector-curvature="0"
       id="path4266"
       d="m 524.55363,880.32417 c 0.71367,0.65368 1.95595,1.60356 2.99592,1.34618 2.34092,-5.71586 2.30511,-5.52144 6.16581,-3.61544 1.21809,0.68854 -0.29695,2.5168 -0.87839,2.07805 -1.45986,-1.47165 -1.67076,-1.0812 -1.94461,-0.78449 -1.93607,8.02106 -5.37197,3.36952 -7.88846,4.26324"
       style="fill:none;fill-rule:evenodd;stroke:#000000;stroke-width:1px;stroke-linecap:butt;stroke-linejoin:miter;stroke-opacity:1" />
    <path
       sodipodi:nodetypes="cccc"
       inkscape:connector-curvature="0"
       id="path4268"
       d="m 506.21297,866.02588 -7.45711,-3.31401 c 0.11574,-1.08126 0.60772,-1.54934 1.62749,-1.15684 l 7.99806,2.67379"
       style="fill:none;fill-rule:evenodd;stroke:#000000;stroke-width:1px;stroke-linecap:butt;stroke-linejoin:miter;stroke-opacity:1" />
    <path
       sodipodi:nodetypes="cccc"
       inkscape:connector-curvature="0"
       id="path4270"
       d="m 509.01039,863.57982 -7.90773,-5.34925 c 0.0518,-0.55828 -0.215,-1.60197 1.73425,-0.43858 l 7.76609,4.27887"
       style="fill:none;fill-rule:evenodd;stroke:#000000;stroke-width:1px;stroke-linecap:butt;stroke-linejoin:miter;stroke-opacity:1" />
    <path
       sodipodi:nodetypes="cccc"
       inkscape:connector-curvature="0"
       id="path4272"
       d="m 466.97915,899.56693 c -3.02259,-0.54485 -4.50885,-1.29472 -5.44829,-1.69989 3.53789,3.05772 1.82393,5.96364 -1.63241,8.81924 -2.22726,1.99073 -0.14169,3.24601 0.24066,4.58048"
       style="fill:none;fill-rule:evenodd;stroke:#000000;stroke-width:1px;stroke-linecap:butt;stroke-linejoin:round;stroke-opacity:1" />
    <path
       sodipodi:nodetypes="ccc"
       inkscape:connector-curvature="0"
       id="path4274"
       d="m 528.636,870.12314 c -0.36356,0.30174 1.37539,1.18976 4.1203,-1.47503 l -2.6424,-1.72915"
       style="fill:none;fill-rule:evenodd;stroke:#000000;stroke-width:1px;stroke-linecap:butt;stroke-linejoin:miter;stroke-opacity:1" />
    <path
       sodipodi:nodetypes="cccc"
       inkscape:connector-curvature="0"
       id="path4276"
       d="m 622.68998,602.14095 7.06505,2.66853 -1.75527,4.65045 -7.10861,-2.76631"
       style="fill:none;fill-rule:evenodd;stroke:#000000;stroke-width:1px;stroke-linecap:butt;stroke-linejoin:miter;stroke-opacity:1" />
    <path
       style="fill:none;fill-rule:evenodd;stroke:#000000;stroke-width:1px;stroke-linecap:butt;stroke-linejoin:miter;stroke-opacity:1"
       d="m 615.56557,621.01531 7.06506,2.66853 -1.75527,4.65046 -7.10861,-2.76632"
       id="path4278"
       inkscape:connector-curvature="0"
       sodipodi:nodetypes="cccc" />
    <path
       sodipodi:nodetypes="cccc"
       inkscape:connector-curvature="0"
       id="path4280"
       d="m 608.14195,638.84382 7.64707,2.89083 -1.75527,4.65045 -7.69062,-2.98861"
       style="fill:none;fill-rule:evenodd;stroke:#000000;stroke-width:1px;stroke-linecap:butt;stroke-linejoin:miter;stroke-opacity:1" />
    <path
       style="fill:none;fill-rule:evenodd;stroke:#000000;stroke-width:1px;stroke-linecap:butt;stroke-linejoin:miter;stroke-opacity:1"
       d="m 600.21843,659.69954 7.64707,2.89083 -1.75527,4.65045 -7.69063,-2.98861"
       id="path4282"
       inkscape:connector-curvature="0"
       sodipodi:nodetypes="cccc" />
    <path
       sodipodi:nodetypes="cccc"
       inkscape:connector-curvature="0"
       id="path4284"
       d="m 592.06071,679.80328 8.07014,3.03744 -1.75527,4.65045 -8.1137,-3.13521"
       style="fill:none;fill-rule:evenodd;stroke:#000000;stroke-width:1px;stroke-linecap:butt;stroke-linejoin:miter;stroke-opacity:1" />
    <path
       style="fill:none;fill-rule:evenodd;stroke:#000000;stroke-width:1px;stroke-linecap:butt;stroke-linejoin:miter;stroke-opacity:1"
       d="m 592.06071,679.80328 8.07014,3.03744 -1.75527,4.65045 -8.1137,-3.13521"
       id="path4286"
       inkscape:connector-curvature="0"
       sodipodi:nodetypes="cccc" />
    <path
       sodipodi:nodetypes="cccc"
       inkscape:connector-curvature="0"
       id="path4288"
       d="m 584.45469,698.88537 8.49865,3.19051 -1.75527,4.65045 -8.5422,-3.28829"
       style="fill:none;fill-rule:evenodd;stroke:#000000;stroke-width:1px;stroke-linecap:butt;stroke-linejoin:miter;stroke-opacity:1" />
    <path
       style="fill:none;fill-rule:evenodd;stroke:#000000;stroke-width:1px;stroke-linecap:butt;stroke-linejoin:miter;stroke-opacity:1"
       d="m 577.47609,716.99952 8.49868,3.1904 -4.15746,10.97896 c -0.12316,-5.69865 -3.40693,-7.58425 -6.13999,-9.61682"
       id="path4290"
       inkscape:connector-curvature="0"
       sodipodi:nodetypes="cccc" />
    <path
       sodipodi:nodetypes="cccc"
       inkscape:connector-curvature="0"
       id="path4292"
       d="m 566.14953,744.88017 9.08636,3.42559 -1.75529,4.6505 -9.12984,-3.52354"
       style="fill:none;fill-rule:evenodd;stroke:#000000;stroke-width:1px;stroke-linecap:butt;stroke-linejoin:miter;stroke-opacity:1" />
    <path
       style="fill:none;fill-rule:evenodd;stroke:#000000;stroke-width:1px;stroke-linecap:butt;stroke-linejoin:miter;stroke-opacity:1"
       d="m 556.88854,767.35288 9.79203,3.68441 -1.75528,4.65051 -9.83552,-3.78238"
       id="path4294"
       inkscape:connector-curvature="0"
       sodipodi:nodetypes="cccc" />
    <path
       sodipodi:nodetypes="cccc"
       inkscape:connector-curvature="0"
       id="path4296"
       d="m 547.4576,790.0846 10.44028,3.94699 -1.75529,4.65051 -10.48377,-4.04496"
       style="fill:none;fill-rule:evenodd;stroke:#000000;stroke-width:1px;stroke-linecap:butt;stroke-linejoin:miter;stroke-opacity:1" />
    <path
       style="fill:none;fill-rule:evenodd;stroke:#000000;stroke-width:1px;stroke-linecap:butt;stroke-linejoin:miter;stroke-opacity:1"
       d="m 534.34509,820.37771 11.88049,4.52706 -1.75528,4.65051 -11.92399,-4.62503"
       id="path4298"
       inkscape:connector-curvature="0"
       sodipodi:nodetypes="cccc" />
    <path
       sodipodi:nodetypes="cccc"
       inkscape:connector-curvature="0"
       id="path4300"
       d="m 527.96393,834.67793 12.65652,4.82347 -1.75529,4.6505 -12.97714,-5.02729"
       style="fill:none;fill-rule:evenodd;stroke:#000000;stroke-width:1px;stroke-linecap:butt;stroke-linejoin:miter;stroke-opacity:1" />
  </g>
  <g
     inkscape:groupmode="layer"
     id="layer6"
     inkscape:label="djezail detail"
     style="display:inline"
     sodipodi:insensitive="true">
    <path
       sodipodi:nodetypes="cccc"
       inkscape:connector-curvature="0"
       id="path4302"
       d="m 511.63718,861.0262 c 1.2151,3.40135 4.93614,4.66354 8.03523,6.45665 -0.25636,1.24101 -0.54043,2.48579 1.75733,3.38119 -3.61327,9.46004 -10.60652,21.32261 -10.83982,28.38011"
       style="fill:none;fill-rule:evenodd;stroke:#000000;stroke-width:0.30000001;stroke-linecap:butt;stroke-linejoin:miter;stroke-miterlimit:4;stroke-dasharray:none;stroke-opacity:1" />
    <path
       sodipodi:nodetypes="ccccc"
       inkscape:connector-curvature="0"
       id="path4304"
       d="m 513.47638,873.88794 c -0.89661,3.03024 -1.10689,5.92571 -0.62247,8.68497 -2.53636,-1.2079 -5.20327,-1.0958 -7.90575,-0.62424 0.62791,-2.63853 0.42481,-5.50273 -0.39335,-8.53398 3.15336,1.54044 6.04665,1.07764 8.92157,0.47325 z"
       style="fill:none;fill-rule:evenodd;stroke:#000000;stroke-width:0.30000001;stroke-linecap:butt;stroke-linejoin:miter;stroke-miterlimit:4;stroke-dasharray:none;stroke-opacity:1" />
    <path
       inkscape:connector-curvature="0"
       id="path4306"
       d="m 469.8609,918.31043 c -1.3065,-0.49902 -11.291,-3.83359 -11.291,-3.83359"
       style="fill:none;fill-rule:evenodd;stroke:#000000;stroke-width:0.30000001;stroke-linecap:butt;stroke-linejoin:miter;stroke-miterlimit:4;stroke-dasharray:none;stroke-opacity:1" />
    <path
       inkscape:connector-curvature="0"
       id="path4308"
       d="m 469.34374,920.44833 -11.84118,-3.80417"
       style="fill:none;fill-rule:evenodd;stroke:#000000;stroke-width:0.30000001;stroke-linecap:butt;stroke-linejoin:miter;stroke-miterlimit:4;stroke-dasharray:none;stroke-opacity:1" />
    <path
       inkscape:connector-curvature="0"
       id="path4310"
       d="m 468.36748,923.78822 -12.32679,-3.63027"
       style="fill:none;fill-rule:evenodd;stroke:#000000;stroke-width:0.30000001;stroke-linecap:butt;stroke-linejoin:miter;stroke-miterlimit:4;stroke-dasharray:none;stroke-opacity:1" />
    <path
       inkscape:connector-curvature="0"
       id="path4312"
       d="m 468.13157,925.9737 -13.32734,-3.83281"
       style="fill:none;fill-rule:evenodd;stroke:#000000;stroke-width:0.30000001;stroke-linecap:butt;stroke-linejoin:miter;stroke-miterlimit:4;stroke-dasharray:none;stroke-opacity:1" />
    <path
       sodipodi:nodetypes="csssccccc"
       inkscape:connector-curvature="0"
       id="path4314"
       d="m 456.38917,934.97264 c -1.49255,-0.84873 -2.41015,-2.56223 -2.18985,-4.4078 0.2913,-2.4404 2.46182,-4.18785 4.84799,-3.903 2.38619,0.28476 4.08443,2.49404 3.79321,4.93436 -0.23069,1.93281 -1.64017,3.43101 -3.40195,3.82908 -0.13081,1.75902 0.68278,3.10597 1.6891,4.36875 -1.7526,0.66718 -3.14149,1.79666 -3.98181,3.62335 -0.79995,-1.72828 -1.71428,-3.35147 -3.26488,-4.38967 1.13145,-0.8478 2.06058,-2.04069 2.50819,-4.05507 z"
       style="opacity:1;fill:none;fill-opacity:1;stroke:#000000;stroke-width:0.30000001;stroke-linecap:round;stroke-linejoin:round;stroke-miterlimit:4;stroke-dasharray:none;stroke-dashoffset:0;stroke-opacity:1" />
    <path
       style="opacity:1;fill:none;fill-opacity:1;stroke:#000000;stroke-width:0.30000001;stroke-linecap:round;stroke-linejoin:round;stroke-miterlimit:4;stroke-dasharray:none;stroke-dashoffset:0;stroke-opacity:1"
       d="m 456.60329,970.38405 c 1.53999,0.75921 2.557,2.41561 2.44585,4.27101 -0.14698,2.45329 -2.21074,4.32573 -4.60952,4.18189 -2.39885,-0.14314 -4.22435,-2.24883 -4.07745,-4.70213 0.11643,-1.94308 1.43506,-3.52177 3.17037,-4.02296 0.0269,-1.76363 -0.86467,-3.06029 -1.94368,-4.26156 1.71022,-0.76931 3.03017,-1.97875 3.76134,-3.85175 0.90042,1.67813 1.90885,3.24456 3.51792,4.1896 -1.0795,0.91302 -1.9367,2.15855 -2.26483,4.1959 z"
       id="path4316"
       inkscape:connector-curvature="0"
       sodipodi:nodetypes="csssccccc" />
    <circle
       r="2.511867"
       cy="-765.85901"
       cx="727.4303"
       id="circle4318"
       style="opacity:1;fill:none;fill-opacity:1;stroke:#000000;stroke-width:0.30000001;stroke-linecap:round;stroke-linejoin:round;stroke-miterlimit:4;stroke-dasharray:none;stroke-dashoffset:0;stroke-opacity:1"
       transform="matrix(-0.35681011,0.93417694,-0.93417694,-0.35681011,0,0)" />
    <path
       sodipodi:nodetypes="ccccc"
       inkscape:connector-curvature="0"
       id="path4320"
       d="m 462.37636,953.74551 c -0.43267,-0.41928 -5.51347,-7.73757 -5.51347,-7.73757 l -7.45278,5.87627 5.76877,7.62345 z"
       style="fill:none;fill-rule:evenodd;stroke:#000000;stroke-width:0.30000001;stroke-linecap:butt;stroke-linejoin:miter;stroke-miterlimit:4;stroke-dasharray:none;stroke-opacity:1" />
    <path
       sodipodi:nodetypes="cccc"
       inkscape:connector-curvature="0"
       id="path4322"
       d="m 436.51976,963.43266 c -0.1852,0.49328 -2.53644,7.75542 -1.58546,7.94798 4.39029,1.43515 3.22128,3.85642 1.73011,6.33484 1.05487,2.07953 3.04642,3.06451 4.77004,4.36259"
       style="fill:none;fill-rule:evenodd;stroke:#000000;stroke-width:0.30000001;stroke-linecap:butt;stroke-linejoin:miter;stroke-miterlimit:4;stroke-dasharray:none;stroke-opacity:1" />
    <path
       sodipodi:nodetypes="cccc"
       inkscape:connector-curvature="0"
       id="path4324"
       d="m 477.89265,967.12935 c 0.31688,2.02335 1.10151,4.06691 0.56231,6.05341 -4.92547,1.60513 -5.00626,4.79815 -4.10352,8.31346 -1.31366,1.57294 -3.1743,2.30577 -5.0275,3.05002"
       style="fill:none;fill-rule:evenodd;stroke:#000000;stroke-width:0.30000001;stroke-linecap:butt;stroke-linejoin:miter;stroke-miterlimit:4;stroke-dasharray:none;stroke-opacity:1" />
    <path
       sodipodi:nodetypes="cccc"
       inkscape:connector-curvature="0"
       id="path4326"
       d="m 576.5008,718.03327 c -1.10682,-0.68535 -2.1036,-0.74995 -3.10614,-0.8476 -8.31245,-12.29485 -10.31749,3.70403 -0.36283,0.28479 -1.10396,3.40791 0.36121,4.66313 1.4755,5.56026"
       style="fill:none;fill-rule:evenodd;stroke:#000000;stroke-width:0.30000001;stroke-linecap:butt;stroke-linejoin:miter;stroke-miterlimit:4;stroke-dasharray:none;stroke-opacity:1" />
    <path
       sodipodi:nodetypes="cc"
       inkscape:connector-curvature="0"
       id="path4328"
       d="m 524.94492,862.519 c -4.18349,0.60523 -6.49511,-3.69034 -9.58891,-5.93809"
       style="fill:none;fill-rule:evenodd;stroke:#000000;stroke-width:0.30000001;stroke-linecap:butt;stroke-linejoin:miter;stroke-miterlimit:4;stroke-dasharray:none;stroke-opacity:1" />
  </g>
  <g
     inkscape:groupmode="layer"
     id="layer2"
     inkscape:label="espingol"
     sodipodi:insensitive="true">
    <path
       sodipodi:nodetypes="cccccccccccccccc"
       inkscape:connector-curvature="0"
       id="path4215"
       d="m 585.88898,190.73276 c 0.0577,-18.43147 -18.40108,-39.73212 -26.26062,-61.4855 -2.147,-5.67717 -0.55506,-8.00386 2.50841,-9.34172 15.52024,-7.98898 3.43481,-41.046976 -2.05772,-63.919134 -4.16257,-14.26579 1.36571,-25.000415 -11.4526,-24.180447 l -38.67065,6.504439 c -4.3215,0.665522 -5.97574,3.272535 -4.17217,8.396484 8.70261,34.33438 23.65659,65.764628 35.48489,98.646948 8.37354,18.74442 7.51112,42.49173 8.55352,65.20724 0.64277,16.75375 -0.73753,34.52544 2.06379,50.19323 3.24465,26.11221 3.31795,49.595 4.9318,74.35506 0.87298,6.62975 -0.0211,13.4408 5.10185,15.49365 -0.21891,-19.07631 9.30433,-11.24987 9.4421,-26.86856 l 0.1329,-31.13163 m 0.0695,-16.27972 0.22176,-51.94291"
       style="fill:none;fill-rule:evenodd;stroke:#000000;stroke-width:1px;stroke-linecap:butt;stroke-linejoin:miter;stroke-opacity:1" />
    <path
       sodipodi:nodetypes="ccc"
       inkscape:connector-curvature="0"
       id="path4217"
       d="m 546.26188,162.58757 c -15.3333,4.49637 -19.23083,27.78889 0.47488,31.88183 l 2.79948,12.25574"
       style="fill:none;fill-rule:evenodd;stroke:#000000;stroke-width:1px;stroke-linecap:butt;stroke-linejoin:miter;stroke-opacity:1" />
    <path
       sodipodi:nodetypes="cc"
       inkscape:connector-curvature="0"
       id="path4219"
       d="m 549.1867,193.42493 -2.47951,1.0841"
       style="fill:none;fill-rule:evenodd;stroke:#000000;stroke-width:1px;stroke-linecap:butt;stroke-linejoin:miter;stroke-opacity:1" />
    <path
       sodipodi:nodetypes="cccccccccc"
       inkscape:connector-curvature="0"
       id="path4221"
       d="m 561.88803,350.10459 c 0.51854,40.95864 1.3339,75.76302 3.2278,116.52173 -0.17825,2.77256 -0.31885,5.57691 -2.5569,6.60749 -0.32311,2.93491 1.04611,4.06911 2.47425,5.14056 6.03627,2.42689 12.25001,2.18393 18.57351,0.2895 2.14791,-1.67705 3.02253,-3.66903 2.78234,-5.93684 -2.5095,-0.55146 -2.54864,-3.29367 -2.58834,-6.03528 3.06924,-76.47257 3.29872,-153.87198 2.64225,-231.22119 m -0.0368,-4.23302 c -0.0981,-11.02519 -0.21346,-22.04894 -0.34043,-33.06848"
       style="fill:none;fill-rule:evenodd;stroke:#000000;stroke-width:1px;stroke-linecap:butt;stroke-linejoin:miter;stroke-opacity:1" />
    <path
       sodipodi:nodetypes="cccccccccc"
       inkscape:connector-curvature="0"
       id="path4223"
       d="m 570.7759,189.82098 c -1.8897,-15.74204 -21.67938,-4.84912 -8.76666,6.03449 4.72915,2.66455 10.2405,3.49137 16.22637,3.20332 -0.31611,3.86965 -1.58746,7.15473 -4.64449,9.34705 0.11708,2.22442 2.07868,1.97663 3.32947,2.68153 3.52732,-2.64578 5.3583,-7.16691 7.01159,-11.88453 1.43888,-1.19129 3.13254,-1.93441 7.2826,1.64328 6.34306,1.12773 2.21374,-3.79834 -0.0982,-7.67383 -2.41357,-2.32025 -5.73463,-2.26337 -9.18191,-1.8759 -6.81812,-3.96023 -7.47331,-1.0218 -11.15878,-1.47541 z"
       style="fill:none;fill-rule:evenodd;stroke:#000000;stroke-width:1px;stroke-linecap:butt;stroke-linejoin:miter;stroke-opacity:1" />
    <path
       sodipodi:nodetypes="cc"
       inkscape:connector-curvature="0"
       id="path4225"
       d="m 578.21182,198.96641 c 0.40088,-2.41496 2.00368,-3.48448 3.56887,-4.59613"
       style="fill:none;fill-rule:evenodd;stroke:#000000;stroke-width:1px;stroke-linecap:round;stroke-linejoin:miter;stroke-opacity:1" />
    <path
       sodipodi:nodetypes="cc"
       inkscape:connector-curvature="0"
       id="path4227"
       d="m 548.28435,177.11153 c -3.76288,0.72421 -7.83547,0.52697 -10.16778,5.50762"
       style="fill:none;fill-rule:evenodd;stroke:#000000;stroke-width:1px;stroke-linecap:round;stroke-linejoin:miter;stroke-opacity:1" />
    <path
       sodipodi:nodetypes="ccccccccccccccccc"
       inkscape:connector-curvature="0"
       id="path4229"
       d="m 592.02579,240.63849 c -4.86848,-4.68231 -10.41534,-7.86751 -12.70365,-18.24376 -2.29333,0.39131 -4.58721,0.56852 -6.88289,0.0171 -0.87921,1.86879 -0.30256,4.22917 -5.84319,4.52405 l -3.01302,-2.68232 0.18756,11.78748 c -0.87581,1.09388 -1.94338,1.56334 -3.55953,0.24625 l -0.36703,-20.33144 c 1.30022,1.34806 2.55853,2.81754 4.67224,1.80797 l -0.0616,-8.82107 c 0.46332,-2.08893 1.5666,-3.59894 3.1926,-4.63612 l 3.99523,-0.01 0.15585,14.95221 c 2.74163,0.82289 5.72985,0.64885 8.78222,0.215 2.3795,8.66941 7.1871,13.31707 11.20305,19.27599 0.55089,0.63154 1.05713,1.42138 0.7666,2.05501 -0.17436,0.13343 -0.34941,-0.009 -0.52448,-0.1569 z"
       style="fill:none;fill-rule:evenodd;stroke:#000000;stroke-width:1px;stroke-linecap:butt;stroke-linejoin:miter;stroke-opacity:1" />
  </g>
  <g
     inkscape:groupmode="layer"
     id="layer4"
     inkscape:label="espingol detail"
     sodipodi:insensitive="true">
    <path
       sodipodi:nodetypes="cc"
       inkscape:connector-curvature="0"
       id="path4231"
       d="m 583.65067,473.85265 c -5.70958,2.7203 -11.54321,3.30332 -17.5642,0.65908"
       style="fill:none;fill-rule:evenodd;stroke:#000000;stroke-width:0.30000001;stroke-linecap:butt;stroke-linejoin:miter;stroke-miterlimit:4;stroke-dasharray:none;stroke-opacity:1" />
    <path
       style="fill:none;fill-rule:evenodd;stroke:#000000;stroke-width:0.30000001;stroke-linecap:butt;stroke-linejoin:miter;stroke-miterlimit:4;stroke-dasharray:none;stroke-opacity:1"
       d="m 586.30936,474.43343 c -5.89855,4.60919 -17.8926,4.89572 -23.69143,0.0309"
       id="path4233"
       inkscape:connector-curvature="0"
       sodipodi:nodetypes="cc" />
    <path
       sodipodi:nodetypes="cccc"
       inkscape:connector-curvature="0"
       id="path4235"
       d="m 586.6838,276.36928 c -4.35631,1.22875 -8.73309,2.16173 -13.19781,1.82304 l -1.90662,-1.84136 c -6.10012,-0.46783 -13.33785,0.74798 -18.29659,-1.409"
       style="fill:none;fill-rule:evenodd;stroke:#000000;stroke-width:0.30000001;stroke-linecap:butt;stroke-linejoin:miter;stroke-miterlimit:4;stroke-dasharray:none;stroke-opacity:1" />
    <path
       sodipodi:nodetypes="cccc"
       inkscape:connector-curvature="0"
       id="path4237"
       d="m 586.8819,288.54384 c -4.40728,0.78235 -8.5321,1.61702 -13.03119,1.33941 l -2.28679,2.7469 c -7.38176,0.0874 -14.5319,0.0771 -16.95524,-1.91583"
       style="fill:none;fill-rule:evenodd;stroke:#000000;stroke-width:0.30000001;stroke-linecap:butt;stroke-linejoin:miter;stroke-miterlimit:4;stroke-dasharray:none;stroke-opacity:1" />
    <path
       sodipodi:nodetypes="cc"
       inkscape:connector-curvature="0"
       id="path4239"
       d="m 573.606,281.46463 c 10e-4,0.5594 0.0357,8.71294 0.0357,8.71294"
       style="fill:none;fill-rule:evenodd;stroke:#000000;stroke-width:0.30000001;stroke-linecap:butt;stroke-linejoin:miter;stroke-miterlimit:4;stroke-dasharray:none;stroke-opacity:1" />
    <path
       inkscape:connector-curvature="0"
       id="path4241"
       d="m 571.38681,276.39013 0.0204,16.15901"
       style="fill:none;fill-rule:evenodd;stroke:#000000;stroke-width:0.30000001;stroke-linecap:butt;stroke-linejoin:miter;stroke-miterlimit:4;stroke-dasharray:none;stroke-opacity:1" />
    <path
       sodipodi:nodetypes="cc"
       inkscape:connector-curvature="0"
       id="path4243"
       d="M 557.89857,39.022338 C 538.86471,34.818269 511.17505,49.36299 505.3845,45.306601"
       style="fill:none;fill-rule:evenodd;stroke:#000000;stroke-width:0.30000001;stroke-linecap:butt;stroke-linejoin:miter;stroke-miterlimit:4;stroke-dasharray:none;stroke-opacity:1" />
    <path
       sodipodi:nodetypes="cc"
       inkscape:connector-curvature="0"
       id="path4245"
       d="m 559.05191,52.893131 c -21.26207,17.975444 -2.86339,43.023826 7.26963,63.679209"
       style="fill:none;fill-rule:evenodd;stroke:#000000;stroke-width:0.30000001;stroke-linecap:butt;stroke-linejoin:miter;stroke-miterlimit:4;stroke-dasharray:none;stroke-opacity:1" />
    <path
       sodipodi:nodetypes="cc"
       inkscape:connector-curvature="0"
       id="path4247"
       d="m 560.07984,56.302865 c -18.12951,15.236622 -0.80968,38.948514 7.81669,57.338325"
       style="fill:none;fill-rule:evenodd;stroke:#000000;stroke-width:0.30000001;stroke-linecap:butt;stroke-linejoin:miter;stroke-miterlimit:4;stroke-dasharray:none;stroke-opacity:1" />
    <path
       sodipodi:nodetypes="cc"
       inkscape:connector-curvature="0"
       id="path4249"
       d="M 560.08238,120.93914 C 549.5389,113.43225 548.20925,99.189288 542.27964,88.30927"
       style="fill:none;fill-rule:evenodd;stroke:#000000;stroke-width:0.30000001;stroke-linecap:round;stroke-linejoin:miter;stroke-miterlimit:4;stroke-dasharray:none;stroke-opacity:1" />
    <path
       sodipodi:nodetypes="ccccccc"
       inkscape:connector-curvature="0"
       id="path4251"
       d="m 569.57857,185.5518 c -1.94472,-7.73069 -2.77189,-15.71264 -12.00048,-21.80566 -5.74077,8.27148 -0.61251,21.456 -0.39537,31.88398 0.49163,13.61132 0.65452,26.99895 0.49238,38.923 1.16449,2.99051 0.35934,5.77682 -2.03727,7.91649 -4.57986,4.5137 0.99658,6.10313 2.97234,9.05713 -6.46099,-10.16686 2.54328,-5.94274 1.62341,-15.27308"
       style="fill:none;fill-rule:evenodd;stroke:#000000;stroke-width:0.30000001;stroke-linecap:butt;stroke-linejoin:miter;stroke-miterlimit:4;stroke-dasharray:none;stroke-opacity:1" />
    <path
       inkscape:connector-curvature="0"
       id="path4253"
       d="m 570.26711,198.59458 0.0695,5.48215"
       style="fill:none;fill-rule:evenodd;stroke:#000000;stroke-width:0.30000001;stroke-linecap:butt;stroke-linejoin:miter;stroke-miterlimit:4;stroke-dasharray:none;stroke-opacity:1" />
    <path
       sodipodi:nodetypes="ccccc"
       inkscape:connector-curvature="0"
       id="path4255"
       d="m 571.5876,189.69649 c -1.64295,-10.63976 -2.72347,-21.31216 -14.79078,-31.34676 -7.77341,10.46934 -3.32812,23.53876 -2.20357,36.20006 l 0.38879,43.85773 c 0.0914,3.16349 -1.71532,4.60839 -1.15724,7.05151"
       style="fill:none;fill-rule:evenodd;stroke:#000000;stroke-width:0.30000001;stroke-linecap:butt;stroke-linejoin:miter;stroke-miterlimit:4;stroke-dasharray:none;stroke-opacity:1" />
    <path
       sodipodi:nodetypes="cc"
       inkscape:connector-curvature="0"
       id="path4257"
       d="m 563.80061,232.20397 c -0.41918,1.83325 -3.76983,1.09608 -3.62306,0.088"
       style="fill:none;fill-rule:evenodd;stroke:#000000;stroke-width:0.30000001;stroke-linecap:butt;stroke-linejoin:miter;stroke-miterlimit:4;stroke-dasharray:none;stroke-opacity:1" />
    <path
       sodipodi:nodetypes="ccc"
       inkscape:connector-curvature="0"
       id="path4259"
       d="m 568.87382,204.38272 -0.006,13.5681 c -1.83027,0.0926 -3.01343,-1.0238 -4.11962,-2.28406"
       style="fill:none;fill-rule:evenodd;stroke:#000000;stroke-width:0.30000001;stroke-linecap:butt;stroke-linejoin:miter;stroke-miterlimit:4;stroke-dasharray:none;stroke-opacity:1" />
    <ellipse
       ry="3.9159393"
       rx="4.2236204"
       cy="-563.2821"
       cx="189.80307"
       id="ellipse4261"
       style="opacity:1;fill:none;fill-opacity:1;stroke:#000000;stroke-width:0.30000001;stroke-linecap:round;stroke-linejoin:round;stroke-miterlimit:4;stroke-dasharray:none;stroke-dashoffset:0;stroke-opacity:1"
       transform="matrix(0.00248741,0.99999691,-0.99999691,0.00248741,0,0)" />
    <path
       inkscape:connector-curvature="0"
       id="path4263"
       d="m 561.36934,185.09753 4.90162,6.55429"
       style="fill:none;fill-rule:evenodd;stroke:#000000;stroke-width:0.30000001;stroke-linecap:butt;stroke-linejoin:miter;stroke-miterlimit:4;stroke-dasharray:none;stroke-opacity:1" />
    <rect
       y="-566.18805"
       x="180.00601"
       height="8.1487341"
       width="1.9778481"
       id="rect4265"
       style="opacity:1;fill:none;fill-opacity:1;stroke:#000000;stroke-width:0.30000001;stroke-linecap:round;stroke-linejoin:round;stroke-miterlimit:4;stroke-dasharray:none;stroke-dashoffset:0;stroke-opacity:1"
       transform="matrix(0.00248741,0.99999691,-0.99999691,0.00248741,0,0)" />
    <path
       sodipodi:nodetypes="cc"
       inkscape:connector-curvature="0"
       id="path4267"
       d="m 571.70958,215.31314 c 0.6744,-1.35447 1.86934,-4.42036 3.07238,-5.24886"
       style="fill:none;fill-rule:evenodd;stroke:#000000;stroke-width:0.30000001;stroke-linecap:butt;stroke-linejoin:miter;stroke-miterlimit:4;stroke-dasharray:none;stroke-opacity:1" />
    <path
       sodipodi:nodetypes="cc"
       inkscape:connector-curvature="0"
       id="path4269"
       d="m 582.04577,204.15217 c 1.33685,-0.85232 2.79501,-0.71726 4.03292,-0.76161"
       style="fill:none;fill-rule:evenodd;stroke:#000000;stroke-width:0.30000001;stroke-linecap:butt;stroke-linejoin:miter;stroke-miterlimit:4;stroke-dasharray:none;stroke-opacity:1" />
  </g>
</svg>
