<?xml version="1.0" encoding="UTF-8" standalone="no"?>
<!-- Created with Inkscape (http://www.inkscape.org/) -->

<svg
   xmlns:dc="http://purl.org/dc/elements/1.1/"
   xmlns:cc="http://creativecommons.org/ns#"
   xmlns:rdf="http://www.w3.org/1999/02/22-rdf-syntax-ns#"
   xmlns:svg="http://www.w3.org/2000/svg"
   xmlns="http://www.w3.org/2000/svg"
   xmlns:sodipodi="http://sodipodi.sourceforge.net/DTD/sodipodi-0.dtd"
   xmlns:inkscape="http://www.inkscape.org/namespaces/inkscape"
   width="210mm"
   height="297mm"
   viewBox="0 0 744.09448819 1052.3622047"
   id="svg2"
   version="1.1"
   inkscape:version="0.92.4 (5da689c313, 2019-01-14)"
   sodipodi:docname="golemi - espingol djezail.svg"
   inkscape:export-filename="/home/v/Dropbox/Files/PHONE/espingol djezail.png"
   inkscape:export-xdpi="250"
   inkscape:export-ydpi="250">
  <defs
     id="defs4" />
  <sodipodi:namedview
     id="base"
     pagecolor="#ffffff"
     bordercolor="#666666"
     borderopacity="1.0"
     inkscape:pageopacity="0.0"
     inkscape:pageshadow="2"
     inkscape:zoom="1"
     inkscape:cx="213.77522"
     inkscape:cy="408.326"
     inkscape:document-units="px"
     inkscape:current-layer="layer3"
     showgrid="false"
     inkscape:window-width="1920"
     inkscape:window-height="1052"
     inkscape:window-x="0"
     inkscape:window-y="0"
     inkscape:window-maximized="1" />
  <metadata
     id="metadata7">
    <rdf:RDF>
      <cc:Work
         rdf:about="">
        <dc:format>image/svg+xml</dc:format>
        <dc:type
           rdf:resource="http://purl.org/dc/dcmitype/StillImage" />
        <dc:title />
      </cc:Work>
    </rdf:RDF>
  </metadata>
  <g
     inkscape:groupmode="layer"
     id="layer7"
     inkscape:label="laser cut"
     sodipodi:insensitive="true">
    <path
       style="display:inline;fill:none;stroke:#ff0000;stroke-width:0.9375px;stroke-linecap:butt;stroke-linejoin:miter;stroke-opacity:1"
       d="M -0.09856435,0.05327154 V 1052.4117 H 743.99449 V 0.05327154 Z"
       id="path1049"
       inkscape:connector-curvature="0" />
    <path
       style="display:inline;fill:none;stroke:#ff0000;stroke-width:0.9375px;stroke-linecap:butt;stroke-linejoin:miter;stroke-opacity:1"
       d="M 743.99451,526.23249 H -0.09858435"
       id="path1049-3"
       inkscape:connector-curvature="0"
       sodipodi:nodetypes="cc" />
    <path
       style="display:inline;fill:none;stroke:#000000;stroke-width:0.9375px;stroke-linecap:butt;stroke-linejoin:miter;stroke-opacity:1"
       d="M 371.94796,1052.4117 V 0.05326054"
       id="path1049-5"
       inkscape:connector-curvature="0"
       sodipodi:nodetypes="cc" />
  </g>
  <g
     inkscape:label="hartiq"
     inkscape:groupmode="layer"
     id="layer1"
     style="display:none;opacity:1"
     sodipodi:insensitive="true">
    <rect
       style="opacity:0.98000004;fill:#ffffff;fill-opacity:1;stroke:none;stroke-width:6.04816818;stroke-linecap:round;stroke-linejoin:round;stroke-miterlimit:4;stroke-dasharray:none;stroke-dashoffset:0;stroke-opacity:1"
       id="rect4198"
       width="781.30011"
       height="1105.4335"
       x="-17.149542"
       y="-17.272816" />
  </g>
  <g
     inkscape:groupmode="layer"
     id="layer3"
     inkscape:label="tekst"
     sodipodi:insensitive="true">
    <text
       xml:space="preserve"
       style="font-style:normal;font-weight:normal;line-height:0%;font-family:sans-serif;letter-spacing:0px;word-spacing:0px;fill:#000000;fill-opacity:1;stroke:none;stroke-width:1px;stroke-linecap:butt;stroke-linejoin:miter;stroke-opacity:1"
       x="201.29741"
       y="-681.08771"
       id="text4759"
       transform="rotate(90)"><tspan
         sodipodi:role="line"
         id="tspan4761"
         x="201.29741"
         y="-681.08771"
         style="font-style:normal;font-variant:normal;font-weight:normal;font-stretch:normal;font-size:27.5px;line-height:1.25;font-family:UnBatang;-inkscape-font-specification:UnBatang">Еспингол</tspan></text>
    <flowRoot
       xml:space="preserve"
       id="flowRoot4813"
       style="font-style:normal;font-weight:normal;line-height:0.01%;font-family:sans-serif;letter-spacing:0px;word-spacing:0px;fill:#000000;fill-opacity:1;stroke:none;stroke-width:1px;stroke-linecap:butt;stroke-linejoin:miter;stroke-opacity:1"
       transform="rotate(-90,192.54449,193.61337)"><flowRegion
         id="flowRegion4815"><rect
           transform="scale(-1)"
           id="rect4817"
           width="411.69312"
           height="292.71603"
           x="-328.47644"
           y="-441.1127" /></flowRegion><flowPara
         style="font-style:normal;font-variant:normal;font-weight:500;font-stretch:normal;font-size:15px;line-height:1.25;font-family:'URW Palladio L';-inkscape-font-specification:'URW Palladio L Medium';text-align:justify;text-anchor:start"
         id="flowPara4823">Френска пушка с къса и широка цев. Изстрелва много на брой малки оловни топчета. Цевта е от месинг, а дулото е разширено за да разпространи топчетата и да улесни пълненето, особено докато стрелецът язди.</flowPara></flowRoot>    <text
       transform="rotate(90)"
       id="text4152"
       y="-682.75146"
       x="666.646"
       style="font-style:normal;font-weight:normal;line-height:0%;font-family:sans-serif;letter-spacing:0px;word-spacing:0px;fill:#000000;fill-opacity:1;stroke:none;stroke-width:1px;stroke-linecap:butt;stroke-linejoin:miter;stroke-opacity:1"
       xml:space="preserve"><tspan
         style="font-style:normal;font-variant:normal;font-weight:normal;font-stretch:normal;font-size:27.5px;line-height:1.25;font-family:UnBatang;-inkscape-font-specification:UnBatang"
         y="-682.75146"
         x="666.646"
         id="tspan4154"
         sodipodi:role="line">Индийски джезаил</tspan></text>
    <flowRoot
       transform="rotate(-90,433.31692,479.02252)"
       style="font-style:normal;font-weight:normal;line-height:0.01%;font-family:sans-serif;letter-spacing:0px;word-spacing:0px;fill:#000000;fill-opacity:1;stroke:none;stroke-width:1px;stroke-linecap:butt;stroke-linejoin:miter;stroke-opacity:1"
       id="flowRoot4156"
       xml:space="preserve"><flowRegion
         id="flowRegion4158"><rect
           y="-441.1127"
           x="-328.47644"
           height="266.82983"
           width="411.04517"
           id="rect4160"
           transform="scale(-1)" /></flowRegion><flowPara
         style="font-style:normal;font-variant:normal;font-weight:500;font-stretch:normal;font-size:15px;line-height:1.25;font-family:'URW Palladio L';-inkscape-font-specification:'URW Palladio L Medium';text-align:justify;text-anchor:start"
         id="flowPara4170">Ръчно създавани и зареждани през дулото дълги пушки. Типични за Югозападна Азия и Северна Африка, джезаилите са майсторски изработени и изящно украсени. Изключително дългата цев ги прави много точни за времето им. Нестандартната форма на приклада позволява на ездач на камила да стреля с една ръка.</flowPara></flowRoot>    <g
       id="g127"
       transform="translate(-38.612112,-13.989971)">
      <text
         transform="rotate(90)"
         xml:space="preserve"
         style="font-style:normal;font-weight:normal;font-size:12px;line-height:0%;font-family:sans-serif;letter-spacing:0px;word-spacing:0px;display:inline;fill:#000000;fill-opacity:1;stroke:none;stroke-width:1px;stroke-linecap:butt;stroke-linejoin:miter;stroke-opacity:1"
         x="633.56781"
         y="-472.73871"
         id="text4164-1-0-2-6"><tspan
           sodipodi:role="line"
           id="tspan4166-1-8-7-1"
           x="633.56781"
           y="-472.73871"
           style="font-style:normal;font-variant:normal;font-weight:normal;font-stretch:normal;font-size:27.5px;line-height:1.25;font-family:'URW Palladio L';-inkscape-font-specification:'URW Palladio L';stroke-width:1px">7</tspan></text>
      <text
         transform="rotate(90)"
         xml:space="preserve"
         style="font-style:normal;font-weight:normal;font-size:12px;line-height:0%;font-family:sans-serif;letter-spacing:0px;word-spacing:0px;display:inline;fill:#000000;fill-opacity:1;stroke:none;stroke-width:1px;stroke-linecap:butt;stroke-linejoin:miter;stroke-opacity:1"
         x="654.42285"
         y="-477.39371"
         id="text4164-7-1-0-8"><tspan
           sodipodi:role="line"
           id="tspan4166-0-6-9-7"
           x="654.42285"
           y="-477.39371"
           style="font-style:normal;font-variant:normal;font-weight:normal;font-stretch:normal;font-size:20px;line-height:1.25;font-family:'URW Palladio L';-inkscape-font-specification:'URW Palladio L';stroke-width:1px">щети</tspan></text>
    </g>
    <g
       id="g133"
       transform="translate(-36.068502,2.3082018)">
      <text
         transform="rotate(90)"
         xml:space="preserve"
         style="font-style:normal;font-weight:normal;font-size:12px;line-height:0%;font-family:sans-serif;letter-spacing:0px;word-spacing:0px;display:inline;fill:#000000;fill-opacity:1;stroke:none;stroke-width:1px;stroke-linecap:butt;stroke-linejoin:miter;stroke-opacity:1"
         x="360.13184"
         y="-470.1951"
         id="text4164-1-0-2-6-3"><tspan
           sodipodi:role="line"
           id="tspan4166-1-8-7-1-6"
           x="360.13184"
           y="-470.1951"
           style="font-style:normal;font-variant:normal;font-weight:normal;font-stretch:normal;font-size:27.5px;line-height:1.25;font-family:'URW Palladio L';-inkscape-font-specification:'URW Palladio L';stroke-width:1px">6</tspan></text>
      <text
         transform="rotate(90)"
         xml:space="preserve"
         style="font-style:normal;font-weight:normal;font-size:12px;line-height:0%;font-family:sans-serif;letter-spacing:0px;word-spacing:0px;display:inline;fill:#000000;fill-opacity:1;stroke:none;stroke-width:1px;stroke-linecap:butt;stroke-linejoin:miter;stroke-opacity:1"
         x="380.98688"
         y="-473.77283"
         id="text4164-7-1-0-8-7"><tspan
           sodipodi:role="line"
           id="tspan4166-0-6-9-7-5"
           x="380.98688"
           y="-473.77283"
           style="font-style:normal;font-variant:normal;font-weight:normal;font-stretch:normal;font-size:20px;line-height:1.25;font-family:'URW Palladio L';-inkscape-font-specification:'URW Palladio L';stroke-width:1px">щети</tspan></text>
    </g>
  </g>
  <g
     inkscape:groupmode="layer"
     id="layer5"
     inkscape:label="djezail"
     style="display:inline"
     sodipodi:insensitive="true">
    <path
       sodipodi:nodetypes="cccccccccccccccccccccccccccccc"
       inkscape:connector-curvature="0"
       id="path4262"
       d="m 538.67755,887.01162 8.69358,-22.88796 m 2.03869,-5.36794 4.3156,-11.36191 m 1.9989,-5.26373 11.36678,-29.92561 m 1.96009,-5.15894 8.01765,-21.10832 m 2.01004,-5.29294 7.82931,-20.61246 m 1.98588,-5.22965 8.40286,-22.1498 m 3.77493,-9.91222 5.91936,-15.58409 m 1.95871,-5.15539 6.32754,-16.65877 m 1.99387,-5.2506 6.79619,-17.89246 m 1.97777,-5.20848 7.06493,-18.60004 m 1.93162,-5.08445 5.86552,-15.44218 m 2.00196,-5.27174 6.19539,-16.31072 m 1.95478,-5.1451 12.09033,-31.83054 c 0.79719,-0.39501 1.60374,-0.86763 2.48365,-1.94909 -2.06005,-2.7848 -4.70686,-3.43017 -7.69221,-2.84121 -0.23712,1.20069 0.0201,2.12417 0.35521,3.00394 l -5.05407,13.67511"
       style="fill:none;fill-rule:evenodd;stroke:#000000;stroke-width:1px;stroke-linecap:butt;stroke-linejoin:miter;stroke-opacity:1" />
    <path
       sodipodi:nodetypes="ccccccccccccccccccccccccccccccccccccccc"
       inkscape:connector-curvature="0"
       id="path4264"
       d="m 657.73972,555.9408 -1.37294,1.50396 -4.85622,13.19074 c 1.80133,0.6308 4.0796,0.85218 3.50409,3.52336 l -6.30016,16.0463 m -2.06981,5.27161 -6.36122,16.20185 m -1.99391,5.07847 -6.05054,15.41052 m -2.06399,5.25703 -7.23127,18.41784 m -2.01977,5.14419 -7.01159,17.85826 m -2.0199,5.14456 -6.52119,16.60922 m -2.04429,5.20683 -6.10469,15.54845 m -2.56568,6.58038 -9.92177,25.22473 m -2.06957,5.27105 -8.07944,20.578 m -2.02285,5.15229 -8.25941,21.03642 m -2.01988,5.14451 -11.70615,29.81519 m -2.04456,5.20749 -4.46954,11.38381 m -2.04638,5.21192 -8.95404,22.8056 c -0.83344,3.95597 4.52405,3.79814 8.02463,0.81042 -9.32858,17.33862 -14.11841,40.21427 -23.58274,43.30769 -22.20036,-42.6606 -89.91764,42.66162 -18.63323,95.79851 -2.38978,1.4187 -4.73394,2.2179 -6.99368,1.8689 l -66.96767,-5.7715 c -3.06886,-0.3754 -6.51962,0.057 -8.3268,-2.9864 15.56228,-9.4614 25.67533,-38.55017 36.56305,-64.84889 11.83087,-25.11359 24.09652,-47.01386 52.60125,-59.62317 12.9474,-6.97312 22.17215,-23.16396 30.90119,-40.38873 40.40952,-90.49444 76.58824,-188.18739 114.87165,-282.29928"
       style="fill:none;fill-rule:evenodd;stroke:#000000;stroke-width:1px;stroke-linecap:butt;stroke-linejoin:miter;stroke-opacity:1" />
    <path
       sodipodi:nodetypes="cccccc"
       inkscape:connector-curvature="0"
       id="path4266"
       d="m 532.28381,905.76326 c 0.81414,0.74547 2.2313,1.82874 3.41767,1.53522 2.67045,-6.51851 2.6296,-6.29679 7.03377,-4.12314 1.38956,0.78523 -0.33875,2.87023 -1.00204,2.36986 -1.66536,-1.6783 -1.90596,-1.23303 -2.21835,-0.89465 -2.20861,9.14742 -6.12819,3.84268 -8.99893,4.8619"
       style="fill:none;fill-rule:evenodd;stroke:#000000;stroke-width:1px;stroke-linecap:butt;stroke-linejoin:miter;stroke-opacity:1" />
    <path
       sodipodi:nodetypes="cccc"
       inkscape:connector-curvature="0"
       id="path4268"
       d="m 511.36132,889.45713 -8.50686,-3.77938 c 0.13204,-1.23309 0.69327,-1.76691 1.85659,-1.3193 l 9.12396,3.04926"
       style="fill:none;fill-rule:evenodd;stroke:#000000;stroke-width:1px;stroke-linecap:butt;stroke-linejoin:miter;stroke-opacity:1" />
    <path
       sodipodi:nodetypes="cccc"
       inkscape:connector-curvature="0"
       id="path4270"
       d="m 514.55254,886.66758 -9.02092,-6.10042 c 0.0591,-0.63668 -0.24526,-1.82693 1.97839,-0.50017 l 8.85933,4.87974"
       style="fill:none;fill-rule:evenodd;stroke:#000000;stroke-width:1px;stroke-linecap:butt;stroke-linejoin:miter;stroke-opacity:1" />
    <path
       sodipodi:nodetypes="cccc"
       inkscape:connector-curvature="0"
       id="path4272"
       d="m 466.60451,927.70819 c -3.44808,-0.62136 -5.14356,-1.47653 -6.21525,-1.93859 4.03592,3.48709 2.08069,6.80109 -1.86221,10.05768 -2.5408,2.27028 -0.16163,3.70183 0.27455,5.22369"
       style="fill:none;fill-rule:evenodd;stroke:#000000;stroke-width:1px;stroke-linecap:butt;stroke-linejoin:round;stroke-opacity:1" />
    <path
       sodipodi:nodetypes="ccc"
       inkscape:connector-curvature="0"
       id="path4274"
       d="m 536.94087,894.12974 c -0.41475,0.34412 1.569,1.35684 4.70031,-1.68215 l -3.01437,-1.97197"
       style="fill:none;fill-rule:evenodd;stroke:#000000;stroke-width:1px;stroke-linecap:butt;stroke-linejoin:miter;stroke-opacity:1" />
    <path
       sodipodi:nodetypes="cccc"
       inkscape:connector-curvature="0"
       id="path4276"
       d="m 644.23493,588.51605 8.05961,3.04327 -2.00236,5.30349 -8.1093,-3.15478"
       style="fill:none;fill-rule:evenodd;stroke:#000000;stroke-width:1px;stroke-linecap:butt;stroke-linejoin:miter;stroke-opacity:1" />
    <path
       style="fill:none;fill-rule:evenodd;stroke:#000000;stroke-width:1px;stroke-linecap:butt;stroke-linejoin:miter;stroke-opacity:1"
       d="m 636.10761,610.04085 8.05962,3.04327 -2.00237,5.3035 -8.10929,-3.15479"
       id="path4278"
       inkscape:connector-curvature="0"
       sodipodi:nodetypes="cccc" />
    <path
       sodipodi:nodetypes="cccc"
       inkscape:connector-curvature="0"
       id="path4280"
       d="m 627.63896,630.37294 8.72356,3.29678 -2.00236,5.30349 -8.77324,-3.40829"
       style="fill:none;fill-rule:evenodd;stroke:#000000;stroke-width:1px;stroke-linecap:butt;stroke-linejoin:miter;stroke-opacity:1" />
    <path
       style="fill:none;fill-rule:evenodd;stroke:#000000;stroke-width:1px;stroke-linecap:butt;stroke-linejoin:miter;stroke-opacity:1"
       d="m 618.60004,654.15733 8.72355,3.29677 -2.00236,5.3035 -8.77324,-3.40828"
       id="path4282"
       inkscape:connector-curvature="0"
       sodipodi:nodetypes="cccc" />
    <path
       sodipodi:nodetypes="cccc"
       inkscape:connector-curvature="0"
       id="path4284"
       d="m 609.29395,677.08415 9.20618,3.46397 -2.00236,5.30349 -9.25587,-3.57547"
       style="fill:none;fill-rule:evenodd;stroke:#000000;stroke-width:1px;stroke-linecap:butt;stroke-linejoin:miter;stroke-opacity:1" />
    <path
       style="fill:none;fill-rule:evenodd;stroke:#000000;stroke-width:1px;stroke-linecap:butt;stroke-linejoin:miter;stroke-opacity:1"
       d="m 609.29395,677.08415 9.20618,3.46397 -2.00236,5.30349 -9.25587,-3.57547"
       id="path4286"
       inkscape:connector-curvature="0"
       sodipodi:nodetypes="cccc" />
    <path
       sodipodi:nodetypes="cccc"
       inkscape:connector-curvature="0"
       id="path4288"
       d="m 600.61722,698.84585 9.69501,3.63853 -2.00236,5.30349 -9.7447,-3.75004"
       style="fill:none;fill-rule:evenodd;stroke:#000000;stroke-width:1px;stroke-linecap:butt;stroke-linejoin:miter;stroke-opacity:1" />
    <path
       style="fill:none;fill-rule:evenodd;stroke:#000000;stroke-width:1px;stroke-linecap:butt;stroke-linejoin:miter;stroke-opacity:1"
       d="m 592.65624,719.50368 9.69504,3.63841 -4.7427,12.52069 c -0.14051,-6.49888 -3.88654,-8.64927 -7.00433,-10.96726"
       id="path4290"
       inkscape:connector-curvature="0"
       sodipodi:nodetypes="cccc" />
    <path
       sodipodi:nodetypes="cccc"
       inkscape:connector-curvature="0"
       id="path4292"
       d="m 579.73522,751.29948 10.36546,3.90663 -2.00239,5.30356 -10.41506,-4.01834"
       style="fill:none;fill-rule:evenodd;stroke:#000000;stroke-width:1px;stroke-linecap:butt;stroke-linejoin:miter;stroke-opacity:1" />
    <path
       style="fill:none;fill-rule:evenodd;stroke:#000000;stroke-width:1px;stroke-linecap:butt;stroke-linejoin:miter;stroke-opacity:1"
       d="m 569.17055,776.92794 11.17046,4.20179 -2.00237,5.30355 -11.22008,-4.31351"
       id="path4294"
       inkscape:connector-curvature="0"
       sodipodi:nodetypes="cccc" />
    <path
       sodipodi:nodetypes="cccc"
       inkscape:connector-curvature="0"
       id="path4296"
       d="m 558.41201,802.85177 11.90996,4.50124 -2.00238,5.30357 -11.95958,-4.61299"
       style="fill:none;fill-rule:evenodd;stroke:#000000;stroke-width:1px;stroke-linecap:butt;stroke-linejoin:miter;stroke-opacity:1" />
    <path
       style="fill:none;fill-rule:evenodd;stroke:#000000;stroke-width:1px;stroke-linecap:butt;stroke-linejoin:miter;stroke-opacity:1"
       d="m 543.45363,837.3988 13.55292,5.16277 -2.00237,5.30356 -13.60255,-5.27451"
       id="path4298"
       inkscape:connector-curvature="0"
       sodipodi:nodetypes="cccc" />
    <path
       sodipodi:nodetypes="cccc"
       inkscape:connector-curvature="0"
       id="path4300"
       d="m 536.17419,853.70713 14.43819,5.50081 -2.00238,5.30354 -14.80395,-5.73324"
       style="fill:none;fill-rule:evenodd;stroke:#000000;stroke-width:1px;stroke-linecap:butt;stroke-linejoin:miter;stroke-opacity:1" />
  </g>
  <g
     inkscape:groupmode="layer"
     id="layer6"
     inkscape:label="djezail detail"
     style="display:inline"
     sodipodi:insensitive="true">
    <path
       sodipodi:nodetypes="cccc"
       inkscape:connector-curvature="0"
       id="path4302"
       d="m 517.5491,883.75537 c 1.38616,3.87898 5.63101,5.31842 9.16636,7.36333 -0.29245,1.41528 -0.6165,2.83485 2.00471,3.85599 -4.12191,10.78847 -12.09961,24.31685 -12.36575,32.3654"
       style="fill:none;fill-rule:evenodd;stroke:#000000;stroke-width:0.30000001;stroke-linecap:butt;stroke-linejoin:miter;stroke-miterlimit:4;stroke-dasharray:none;stroke-opacity:1" />
    <path
       sodipodi:nodetypes="ccccc"
       inkscape:connector-curvature="0"
       id="path4304"
       d="m 519.64721,898.42322 c -1.02283,3.45576 -1.26271,6.75783 -0.7101,9.90456 -2.89341,-1.37752 -5.93573,-1.24967 -9.01865,-0.71189 0.71631,-3.00905 0.48461,-6.27546 -0.44872,-9.73238 3.59726,1.75677 6.89784,1.22898 10.17747,0.53971 z"
       style="fill:none;fill-rule:evenodd;stroke:#000000;stroke-width:0.30000001;stroke-linecap:butt;stroke-linejoin:miter;stroke-miterlimit:4;stroke-dasharray:none;stroke-opacity:1" />
    <path
       inkscape:connector-curvature="0"
       id="path4306"
       d="m 469.89193,949.08375 c -1.49041,-0.56909 -12.88045,-4.37192 -12.88045,-4.37192"
       style="fill:none;fill-rule:evenodd;stroke:#000000;stroke-width:0.30000001;stroke-linecap:butt;stroke-linejoin:miter;stroke-miterlimit:4;stroke-dasharray:none;stroke-opacity:1" />
    <path
       inkscape:connector-curvature="0"
       id="path4308"
       d="M 469.30197,951.52188 455.79389,947.1835"
       style="fill:none;fill-rule:evenodd;stroke:#000000;stroke-width:0.30000001;stroke-linecap:butt;stroke-linejoin:miter;stroke-miterlimit:4;stroke-dasharray:none;stroke-opacity:1" />
    <path
       inkscape:connector-curvature="0"
       id="path4310"
       d="m 468.18828,955.33077 -14.06205,-4.14005"
       style="fill:none;fill-rule:evenodd;stroke:#000000;stroke-width:0.30000001;stroke-linecap:butt;stroke-linejoin:miter;stroke-miterlimit:4;stroke-dasharray:none;stroke-opacity:1" />
    <path
       inkscape:connector-curvature="0"
       id="path4312"
       d="m 467.91916,957.82314 -15.20345,-4.37103"
       style="fill:none;fill-rule:evenodd;stroke:#000000;stroke-width:0.30000001;stroke-linecap:butt;stroke-linejoin:miter;stroke-miterlimit:4;stroke-dasharray:none;stroke-opacity:1" />
    <path
       sodipodi:nodetypes="csssccccc"
       inkscape:connector-curvature="0"
       id="path4314"
       d="m 454.52377,968.08577 c -1.70266,-0.96792 -2.74943,-2.92204 -2.49812,-5.02677 0.33231,-2.7831 2.80838,-4.77593 5.53045,-4.45109 2.7221,0.32475 4.6594,2.84428 4.32718,5.62728 -0.26316,2.20422 -1.87106,3.91281 -3.88085,4.36678 -0.14922,2.00602 0.7789,3.54213 1.92688,4.98223 -1.99931,0.76087 -3.58372,2.04896 -4.54233,4.13217 -0.91256,-1.97099 -1.9556,-3.82211 -3.72448,-5.0061 1.29072,-0.96685 2.35065,-2.32726 2.86127,-4.6245 z"
       style="opacity:1;fill:none;fill-opacity:1;stroke:#000000;stroke-width:0.30000001;stroke-linecap:round;stroke-linejoin:round;stroke-miterlimit:4;stroke-dasharray:none;stroke-dashoffset:0;stroke-opacity:1" />
    <path
       style="opacity:1;fill:none;fill-opacity:1;stroke:#000000;stroke-width:0.30000001;stroke-linecap:round;stroke-linejoin:round;stroke-miterlimit:4;stroke-dasharray:none;stroke-dashoffset:0;stroke-opacity:1"
       d="m 454.76803,1008.4698 c 1.75678,0.8659 2.91695,2.7549 2.79015,4.8708 -0.16767,2.7978 -2.52195,4.9332 -5.2584,4.7692 -2.73654,-0.1633 -4.81901,-2.5647 -4.65144,-5.3625 0.13282,-2.2159 1.63707,-4.0163 3.61667,-4.5879 0.0307,-2.0113 -0.98639,-3.49 -2.2173,-4.86 1.95097,-0.8773 3.45673,-2.2566 4.29083,-4.3926 1.02717,1.9138 2.17756,3.7002 4.01314,4.7779 -1.23146,1.0413 -2.20933,2.4617 -2.58365,4.7851 z"
       id="path4316"
       inkscape:connector-curvature="0"
       sodipodi:nodetypes="csssccccc" />
    <ellipse
       cy="-776.83716"
       cx="761.47333"
       id="circle4318"
       style="opacity:1;fill:none;fill-opacity:1;stroke:#000000;stroke-width:0.30000001;stroke-linecap:round;stroke-linejoin:round;stroke-miterlimit:4;stroke-dasharray:none;stroke-dashoffset:0;stroke-opacity:1"
       transform="matrix(-0.35690447,0.93414089,-0.93421299,-0.35671569,0,0)"
       rx="2.8647077"
       ry="2.8653548" />
    <path
       sodipodi:nodetypes="ccccc"
       inkscape:connector-curvature="0"
       id="path4320"
       d="m 461.35378,989.49482 c -0.49358,-0.47815 -6.2896,-8.82412 -6.2896,-8.82412 l -8.50192,6.70145 6.58084,8.69398 z"
       style="fill:none;fill-rule:evenodd;stroke:#000000;stroke-width:0.30000001;stroke-linecap:butt;stroke-linejoin:miter;stroke-miterlimit:4;stroke-dasharray:none;stroke-opacity:1" />
    <path
       sodipodi:nodetypes="cccc"
       inkscape:connector-curvature="0"
       id="path4322"
       d="m 431.85732,1000.5423 c -0.21127,0.5625 -2.89349,8.8445 -1.80865,9.0641 5.00832,1.6367 3.67475,4.3979 1.97366,7.2244 1.20337,2.3715 3.47527,3.4948 5.44153,4.9751"
       style="fill:none;fill-rule:evenodd;stroke:#000000;stroke-width:0.30000001;stroke-linecap:butt;stroke-linejoin:miter;stroke-miterlimit:4;stroke-dasharray:none;stroke-opacity:1" />
    <path
       sodipodi:nodetypes="cccc"
       inkscape:connector-curvature="0"
       id="path4324"
       d="m 479.05432,1004.7581 c 0.36149,2.3075 1.25657,4.638 0.64147,6.9035 -5.61884,1.8305 -5.71101,5.4719 -4.68118,9.4808 -1.49859,1.7938 -3.62115,2.6296 -5.73523,3.4783"
       style="fill:none;fill-rule:evenodd;stroke:#000000;stroke-width:0.30000001;stroke-linecap:butt;stroke-linejoin:miter;stroke-miterlimit:4;stroke-dasharray:none;stroke-opacity:1" />
    <path
       sodipodi:nodetypes="cccc"
       inkscape:connector-curvature="0"
       id="path4326"
       d="m 591.54365,720.6826 c -1.26262,-0.7816 -2.39973,-0.85527 -3.5434,-0.96663 -9.4826,-14.02135 -11.76989,4.22417 -0.4139,0.32478 -1.25937,3.88648 0.41206,5.31796 1.6832,6.34106"
       style="fill:none;fill-rule:evenodd;stroke:#000000;stroke-width:0.30000001;stroke-linecap:butt;stroke-linejoin:miter;stroke-miterlimit:4;stroke-dasharray:none;stroke-opacity:1" />
    <path
       sodipodi:nodetypes="cc"
       inkscape:connector-curvature="0"
       id="path4328"
       d="m 532.73019,885.45779 c -4.7724,0.69023 -7.40944,-4.20855 -10.93875,-6.77195"
       style="fill:none;fill-rule:evenodd;stroke:#000000;stroke-width:0.30000001;stroke-linecap:butt;stroke-linejoin:miter;stroke-miterlimit:4;stroke-dasharray:none;stroke-opacity:1" />
  </g>
  <g
     inkscape:groupmode="layer"
     id="layer2"
     inkscape:label="espingol"
     sodipodi:insensitive="true">
    <path
       sodipodi:nodetypes="cccccccccccccccc"
       inkscape:connector-curvature="0"
       id="path4215"
       d="m 585.88898,190.73276 c 0.0577,-18.43147 -18.40108,-39.73212 -26.26062,-61.4855 -2.147,-5.67717 -0.55506,-8.00386 2.50841,-9.34172 15.52024,-7.98898 3.43481,-41.046976 -2.05772,-63.919134 -4.16257,-14.26579 1.36571,-25.000415 -11.4526,-24.180447 l -38.67065,6.504439 c -4.3215,0.665522 -5.97574,3.272535 -4.17217,8.396484 8.70261,34.33438 23.65659,65.764628 35.48489,98.646948 8.37354,18.74442 7.51112,42.49173 8.55352,65.20724 0.64277,16.75375 -0.73753,34.52544 2.06379,50.19323 3.24465,26.11221 3.31795,49.595 4.9318,74.35506 0.87298,6.62975 -0.0211,13.4408 5.10185,15.49365 -0.21891,-19.07631 9.30433,-11.24987 9.4421,-26.86856 l 0.1329,-31.13163 m 0.0695,-16.27972 0.22176,-51.94291"
       style="fill:none;fill-rule:evenodd;stroke:#000000;stroke-width:1px;stroke-linecap:butt;stroke-linejoin:miter;stroke-opacity:1" />
    <path
       sodipodi:nodetypes="ccc"
       inkscape:connector-curvature="0"
       id="path4217"
       d="m 546.26188,162.58757 c -15.3333,4.49637 -19.23083,27.78889 0.47488,31.88183 l 2.79948,12.25574"
       style="fill:none;fill-rule:evenodd;stroke:#000000;stroke-width:1px;stroke-linecap:butt;stroke-linejoin:miter;stroke-opacity:1" />
    <path
       sodipodi:nodetypes="cc"
       inkscape:connector-curvature="0"
       id="path4219"
       d="m 549.1867,193.42493 -2.47951,1.0841"
       style="fill:none;fill-rule:evenodd;stroke:#000000;stroke-width:1px;stroke-linecap:butt;stroke-linejoin:miter;stroke-opacity:1" />
    <path
       sodipodi:nodetypes="cccccccccc"
       inkscape:connector-curvature="0"
       id="path4221"
       d="m 561.88803,350.10459 c 0.51854,40.95864 1.3339,75.76302 3.2278,116.52173 -0.17825,2.77256 -0.31885,5.57691 -2.5569,6.60749 -0.32311,2.93491 1.04611,4.06911 2.47425,5.14056 6.03627,2.42689 12.25001,2.18393 18.57351,0.2895 2.14791,-1.67705 3.02253,-3.66903 2.78234,-5.93684 -2.5095,-0.55146 -2.54864,-3.29367 -2.58834,-6.03528 3.06924,-76.47257 3.29872,-153.87198 2.64225,-231.22119 m -0.0368,-4.23302 c -0.0981,-11.02519 -0.21346,-22.04894 -0.34043,-33.06848"
       style="fill:none;fill-rule:evenodd;stroke:#000000;stroke-width:1px;stroke-linecap:butt;stroke-linejoin:miter;stroke-opacity:1" />
    <path
       sodipodi:nodetypes="cccccccccc"
       inkscape:connector-curvature="0"
       id="path4223"
       d="m 570.7759,189.82098 c -1.8897,-15.74204 -21.67938,-4.84912 -8.76666,6.03449 4.72915,2.66455 10.2405,3.49137 16.22637,3.20332 -0.31611,3.86965 -1.58746,7.15473 -4.64449,9.34705 0.11708,2.22442 2.07868,1.97663 3.32947,2.68153 3.52732,-2.64578 5.3583,-7.16691 7.01159,-11.88453 1.43888,-1.19129 3.13254,-1.93441 7.2826,1.64328 6.34306,1.12773 2.21374,-3.79834 -0.0982,-7.67383 -2.41357,-2.32025 -5.73463,-2.26337 -9.18191,-1.8759 -6.81812,-3.96023 -7.47331,-1.0218 -11.15878,-1.47541 z"
       style="fill:none;fill-rule:evenodd;stroke:#000000;stroke-width:1px;stroke-linecap:butt;stroke-linejoin:miter;stroke-opacity:1" />
    <path
       sodipodi:nodetypes="cc"
       inkscape:connector-curvature="0"
       id="path4225"
       d="m 578.21182,198.96641 c 0.40088,-2.41496 2.00368,-3.48448 3.56887,-4.59613"
       style="fill:none;fill-rule:evenodd;stroke:#000000;stroke-width:1px;stroke-linecap:round;stroke-linejoin:miter;stroke-opacity:1" />
    <path
       sodipodi:nodetypes="cc"
       inkscape:connector-curvature="0"
       id="path4227"
       d="m 548.28435,177.11153 c -3.76288,0.72421 -7.83547,0.52697 -10.16778,5.50762"
       style="fill:none;fill-rule:evenodd;stroke:#000000;stroke-width:1px;stroke-linecap:round;stroke-linejoin:miter;stroke-opacity:1" />
    <path
       sodipodi:nodetypes="ccccccccccccccccc"
       inkscape:connector-curvature="0"
       id="path4229"
       d="m 592.02579,240.63849 c -4.86848,-4.68231 -10.41534,-7.86751 -12.70365,-18.24376 -2.29333,0.39131 -4.58721,0.56852 -6.88289,0.0171 -0.87921,1.86879 -0.30256,4.22917 -5.84319,4.52405 l -3.01302,-2.68232 0.18756,11.78748 c -0.87581,1.09388 -1.94338,1.56334 -3.55953,0.24625 l -0.36703,-20.33144 c 1.30022,1.34806 2.55853,2.81754 4.67224,1.80797 l -0.0616,-8.82107 c 0.46332,-2.08893 1.5666,-3.59894 3.1926,-4.63612 l 3.99523,-0.01 0.15585,14.95221 c 2.74163,0.82289 5.72985,0.64885 8.78222,0.215 2.3795,8.66941 7.1871,13.31707 11.20305,19.27599 0.55089,0.63154 1.05713,1.42138 0.7666,2.05501 -0.17436,0.13343 -0.34941,-0.009 -0.52448,-0.1569 z"
       style="fill:none;fill-rule:evenodd;stroke:#000000;stroke-width:1px;stroke-linecap:butt;stroke-linejoin:miter;stroke-opacity:1" />
  </g>
  <g
     inkscape:groupmode="layer"
     id="layer4"
     inkscape:label="espingol detail"
     sodipodi:insensitive="true">
    <path
       sodipodi:nodetypes="cc"
       inkscape:connector-curvature="0"
       id="path4231"
       d="m 583.65067,473.85265 c -5.70958,2.7203 -11.54321,3.30332 -17.5642,0.65908"
       style="fill:none;fill-rule:evenodd;stroke:#000000;stroke-width:0.30000001;stroke-linecap:butt;stroke-linejoin:miter;stroke-miterlimit:4;stroke-dasharray:none;stroke-opacity:1" />
    <path
       style="fill:none;fill-rule:evenodd;stroke:#000000;stroke-width:0.30000001;stroke-linecap:butt;stroke-linejoin:miter;stroke-miterlimit:4;stroke-dasharray:none;stroke-opacity:1"
       d="m 586.30936,474.43343 c -5.89855,4.60919 -17.8926,4.89572 -23.69143,0.0309"
       id="path4233"
       inkscape:connector-curvature="0"
       sodipodi:nodetypes="cc" />
    <path
       sodipodi:nodetypes="cccc"
       inkscape:connector-curvature="0"
       id="path4235"
       d="m 586.6838,276.36928 c -4.35631,1.22875 -8.73309,2.16173 -13.19781,1.82304 l -1.90662,-1.84136 c -6.10012,-0.46783 -13.33785,0.74798 -18.29659,-1.409"
       style="fill:none;fill-rule:evenodd;stroke:#000000;stroke-width:0.30000001;stroke-linecap:butt;stroke-linejoin:miter;stroke-miterlimit:4;stroke-dasharray:none;stroke-opacity:1" />
    <path
       sodipodi:nodetypes="cccc"
       inkscape:connector-curvature="0"
       id="path4237"
       d="m 586.8819,288.54384 c -4.40728,0.78235 -8.5321,1.61702 -13.03119,1.33941 l -2.28679,2.7469 c -7.38176,0.0874 -14.5319,0.0771 -16.95524,-1.91583"
       style="fill:none;fill-rule:evenodd;stroke:#000000;stroke-width:0.30000001;stroke-linecap:butt;stroke-linejoin:miter;stroke-miterlimit:4;stroke-dasharray:none;stroke-opacity:1" />
    <path
       sodipodi:nodetypes="cc"
       inkscape:connector-curvature="0"
       id="path4239"
       d="m 573.606,281.46463 c 10e-4,0.5594 0.0357,8.71294 0.0357,8.71294"
       style="fill:none;fill-rule:evenodd;stroke:#000000;stroke-width:0.30000001;stroke-linecap:butt;stroke-linejoin:miter;stroke-miterlimit:4;stroke-dasharray:none;stroke-opacity:1" />
    <path
       inkscape:connector-curvature="0"
       id="path4241"
       d="m 571.38681,276.39013 0.0204,16.15901"
       style="fill:none;fill-rule:evenodd;stroke:#000000;stroke-width:0.30000001;stroke-linecap:butt;stroke-linejoin:miter;stroke-miterlimit:4;stroke-dasharray:none;stroke-opacity:1" />
    <path
       sodipodi:nodetypes="cc"
       inkscape:connector-curvature="0"
       id="path4243"
       d="M 557.89857,39.022338 C 538.86471,34.818269 511.17505,49.36299 505.3845,45.306601"
       style="fill:none;fill-rule:evenodd;stroke:#000000;stroke-width:0.30000001;stroke-linecap:butt;stroke-linejoin:miter;stroke-miterlimit:4;stroke-dasharray:none;stroke-opacity:1" />
    <path
       sodipodi:nodetypes="cc"
       inkscape:connector-curvature="0"
       id="path4245"
       d="m 559.05191,52.893131 c -21.26207,17.975444 -2.86339,43.023826 7.26963,63.679209"
       style="fill:none;fill-rule:evenodd;stroke:#000000;stroke-width:0.30000001;stroke-linecap:butt;stroke-linejoin:miter;stroke-miterlimit:4;stroke-dasharray:none;stroke-opacity:1" />
    <path
       sodipodi:nodetypes="cc"
       inkscape:connector-curvature="0"
       id="path4247"
       d="m 560.07984,56.302865 c -18.12951,15.236622 -0.80968,38.948514 7.81669,57.338325"
       style="fill:none;fill-rule:evenodd;stroke:#000000;stroke-width:0.30000001;stroke-linecap:butt;stroke-linejoin:miter;stroke-miterlimit:4;stroke-dasharray:none;stroke-opacity:1" />
    <path
       sodipodi:nodetypes="cc"
       inkscape:connector-curvature="0"
       id="path4249"
       d="M 560.08238,120.93914 C 549.5389,113.43225 548.20925,99.189288 542.27964,88.30927"
       style="fill:none;fill-rule:evenodd;stroke:#000000;stroke-width:0.30000001;stroke-linecap:round;stroke-linejoin:miter;stroke-miterlimit:4;stroke-dasharray:none;stroke-opacity:1" />
    <path
       sodipodi:nodetypes="ccccccc"
       inkscape:connector-curvature="0"
       id="path4251"
       d="m 569.57857,185.5518 c -1.94472,-7.73069 -2.77189,-15.71264 -12.00048,-21.80566 -5.74077,8.27148 -0.61251,21.456 -0.39537,31.88398 0.49163,13.61132 0.65452,26.99895 0.49238,38.923 1.16449,2.99051 0.35934,5.77682 -2.03727,7.91649 -4.57986,4.5137 0.99658,6.10313 2.97234,9.05713 -6.46099,-10.16686 2.54328,-5.94274 1.62341,-15.27308"
       style="fill:none;fill-rule:evenodd;stroke:#000000;stroke-width:0.30000001;stroke-linecap:butt;stroke-linejoin:miter;stroke-miterlimit:4;stroke-dasharray:none;stroke-opacity:1" />
    <path
       inkscape:connector-curvature="0"
       id="path4253"
       d="m 570.26711,198.59458 0.0695,5.48215"
       style="fill:none;fill-rule:evenodd;stroke:#000000;stroke-width:0.30000001;stroke-linecap:butt;stroke-linejoin:miter;stroke-miterlimit:4;stroke-dasharray:none;stroke-opacity:1" />
    <path
       sodipodi:nodetypes="ccccc"
       inkscape:connector-curvature="0"
       id="path4255"
       d="m 571.5876,189.69649 c -1.64295,-10.63976 -2.72347,-21.31216 -14.79078,-31.34676 -7.77341,10.46934 -3.32812,23.53876 -2.20357,36.20006 l 0.38879,43.85773 c 0.0914,3.16349 -1.71532,4.60839 -1.15724,7.05151"
       style="fill:none;fill-rule:evenodd;stroke:#000000;stroke-width:0.30000001;stroke-linecap:butt;stroke-linejoin:miter;stroke-miterlimit:4;stroke-dasharray:none;stroke-opacity:1" />
    <path
       sodipodi:nodetypes="cc"
       inkscape:connector-curvature="0"
       id="path4257"
       d="m 563.80061,232.20397 c -0.41918,1.83325 -3.76983,1.09608 -3.62306,0.088"
       style="fill:none;fill-rule:evenodd;stroke:#000000;stroke-width:0.30000001;stroke-linecap:butt;stroke-linejoin:miter;stroke-miterlimit:4;stroke-dasharray:none;stroke-opacity:1" />
    <path
       sodipodi:nodetypes="ccc"
       inkscape:connector-curvature="0"
       id="path4259"
       d="m 568.87382,204.38272 -0.006,13.5681 c -1.83027,0.0926 -3.01343,-1.0238 -4.11962,-2.28406"
       style="fill:none;fill-rule:evenodd;stroke:#000000;stroke-width:0.30000001;stroke-linecap:butt;stroke-linejoin:miter;stroke-miterlimit:4;stroke-dasharray:none;stroke-opacity:1" />
    <ellipse
       ry="3.9159393"
       rx="4.2236204"
       cy="-563.2821"
       cx="189.80307"
       id="ellipse4261"
       style="opacity:1;fill:none;fill-opacity:1;stroke:#000000;stroke-width:0.30000001;stroke-linecap:round;stroke-linejoin:round;stroke-miterlimit:4;stroke-dasharray:none;stroke-dashoffset:0;stroke-opacity:1"
       transform="matrix(0.00248741,0.99999691,-0.99999691,0.00248741,0,0)" />
    <path
       inkscape:connector-curvature="0"
       id="path4263"
       d="m 561.36934,185.09753 4.90162,6.55429"
       style="fill:none;fill-rule:evenodd;stroke:#000000;stroke-width:0.30000001;stroke-linecap:butt;stroke-linejoin:miter;stroke-miterlimit:4;stroke-dasharray:none;stroke-opacity:1" />
    <rect
       y="-566.18805"
       x="180.00601"
       height="8.1487341"
       width="1.9778481"
       id="rect4265"
       style="opacity:1;fill:none;fill-opacity:1;stroke:#000000;stroke-width:0.30000001;stroke-linecap:round;stroke-linejoin:round;stroke-miterlimit:4;stroke-dasharray:none;stroke-dashoffset:0;stroke-opacity:1"
       transform="matrix(0.00248741,0.99999691,-0.99999691,0.00248741,0,0)" />
    <path
       sodipodi:nodetypes="cc"
       inkscape:connector-curvature="0"
       id="path4267"
       d="m 571.70958,215.31314 c 0.6744,-1.35447 1.86934,-4.42036 3.07238,-5.24886"
       style="fill:none;fill-rule:evenodd;stroke:#000000;stroke-width:0.30000001;stroke-linecap:butt;stroke-linejoin:miter;stroke-miterlimit:4;stroke-dasharray:none;stroke-opacity:1" />
    <path
       sodipodi:nodetypes="cc"
       inkscape:connector-curvature="0"
       id="path4269"
       d="m 582.04577,204.15217 c 1.33685,-0.85232 2.79501,-0.71726 4.03292,-0.76161"
       style="fill:none;fill-rule:evenodd;stroke:#000000;stroke-width:0.30000001;stroke-linecap:butt;stroke-linejoin:miter;stroke-miterlimit:4;stroke-dasharray:none;stroke-opacity:1" />
  </g>
</svg>
