<?xml version="1.0" encoding="UTF-8" standalone="no"?>
<!-- Created with Inkscape (http://www.inkscape.org/) -->

<svg
   xmlns:dc="http://purl.org/dc/elements/1.1/"
   xmlns:cc="http://creativecommons.org/ns#"
   xmlns:rdf="http://www.w3.org/1999/02/22-rdf-syntax-ns#"
   xmlns:svg="http://www.w3.org/2000/svg"
   xmlns="http://www.w3.org/2000/svg"
   xmlns:sodipodi="http://sodipodi.sourceforge.net/DTD/sodipodi-0.dtd"
   xmlns:inkscape="http://www.inkscape.org/namespaces/inkscape"
   width="210mm"
   height="297mm"
   viewBox="0 0 210 297"
   version="1.1"
   id="svg2375"
   inkscape:version="0.92.4 (5da689c313, 2019-01-14)"
   sodipodi:docname="haiduti-tokens.svg">
  <defs
     id="defs2369" />
  <sodipodi:namedview
     id="base"
     pagecolor="#ffffff"
     bordercolor="#666666"
     borderopacity="1.0"
     inkscape:pageopacity="0.0"
     inkscape:pageshadow="2"
     inkscape:zoom="1.979899"
     inkscape:cx="284.23184"
     inkscape:cy="193.2653"
     inkscape:document-units="mm"
     inkscape:current-layer="layer1"
     showgrid="false"
     inkscape:window-width="1920"
     inkscape:window-height="1052"
     inkscape:window-x="0"
     inkscape:window-y="0"
     inkscape:window-maximized="1" />
  <metadata
     id="metadata2372">
    <rdf:RDF>
      <cc:Work
         rdf:about="">
        <dc:format>image/svg+xml</dc:format>
        <dc:type
           rdf:resource="http://purl.org/dc/dcmitype/StillImage" />
        <dc:title />
      </cc:Work>
    </rdf:RDF>
  </metadata>
  <g
     inkscape:label="Layer 1"
     inkscape:groupmode="layer"
     id="layer1">
    <g
       aria-label="1"
       style="font-style:normal;font-weight:normal;font-size:8.85104179px;line-height:1.25;font-family:sans-serif;letter-spacing:0px;word-spacing:0px;fill:#000000;fill-opacity:1;stroke:none;stroke-width:0.26458332"
       id="text1242-3"
       transform="translate(-8.5044642,6.2366071)">
      <path
         d="m 64.911034,242.17241 h 1.426193 v -4.92252 l -1.551525,0.31117 v -0.79521 l 1.542882,-0.31117 h 0.873003 v 5.71773 h 1.426193 v 0.73471 h -3.716746 z"
         style="stroke-width:0.26458332"
         id="path3029"
         inkscape:connector-curvature="0" />
    </g>
    <path
       style="fill:none;stroke:#ff0000;stroke-width:0.26458332px;stroke-linecap:butt;stroke-linejoin:miter;stroke-opacity:1"
       d="m 54.167551,242.25764 c -1.599808,1.59779 -2.078961,4.00664 -1.212117,6.09939 0.866844,2.09275 2.908975,3.45726 5.174147,3.45726 2.265174,0 4.307305,-1.36451 5.174149,-3.45726 0.866844,-2.09275 0.387691,-4.5016 -1.207193,-6.09939 l -3.96203,-3.96493 z"
       id="path984-3"
       inkscape:connector-curvature="0"
       sodipodi:nodetypes="csssccc" />
    <path
       style="fill:none;stroke:#ff0000;stroke-width:0.26458332px;stroke-linecap:butt;stroke-linejoin:miter;stroke-opacity:1"
       d="m 54.167551,234.32779 c -1.599808,-1.59779 -2.078961,-4.00664 -1.212117,-6.09939 0.866844,-2.09275 2.908975,-3.45726 5.174147,-3.45726 2.265174,0 4.307305,1.36451 5.174149,3.45726 0.866844,2.09275 0.387694,4.5016 -1.207193,6.09939 l -3.96203,3.96492 z"
       id="path984-3-7"
       inkscape:connector-curvature="0"
       sodipodi:nodetypes="csssccc" />
    <path
       style="fill:none;stroke:#ff0000;stroke-width:0.26458332px;stroke-linecap:butt;stroke-linejoin:miter;stroke-opacity:1"
       d="m 62.099437,242.25967 c 1.597784,1.59981 4.006638,2.07896 6.099387,1.21212 2.09275,-0.86685 3.45725,-2.90898 3.45725,-5.17415 0,-2.26517 -1.3645,-4.3073 -3.45725,-5.17415 -2.092749,-0.86684 -4.501606,-0.38769 -6.099387,1.20719"
       id="path984-3-8"
       inkscape:connector-curvature="0"
       sodipodi:nodetypes="csssc" />
    <path
       style="fill:none;stroke:#ff0000;stroke-width:0.26458332px;stroke-linecap:butt;stroke-linejoin:miter;stroke-opacity:1"
       d="m 54.169578,234.32576 c -1.597784,-1.59981 -4.006641,-2.07896 -6.099387,-1.21212 -2.092748,0.86685 -3.457255,2.90898 -3.457255,5.17415 0,2.26517 1.364507,4.3073 3.457255,5.17415 2.092746,0.86684 4.501605,0.38769 6.099387,-1.20719"
       id="path984-3-4"
       inkscape:connector-curvature="0"
       sodipodi:nodetypes="csssc" />
    <g
       aria-label="2"
       transform="rotate(-90,-1.1339286,7.3705357)"
       style="font-style:normal;font-weight:normal;font-size:8.85104179px;line-height:1.25;font-family:sans-serif;letter-spacing:0px;word-spacing:0px;fill:#000000;fill-opacity:1;stroke:none;stroke-width:0.26458332"
       id="text1242-3-5">
      <path
         d="m -233.30648,76.753415 h 3.04687 v 0.734706 h -4.09706 v -0.734706 q 0.497,-0.514294 1.35272,-1.378653 0.86004,-0.868681 1.08045,-1.119346 0.41921,-0.471076 0.58344,-0.79521 0.16855,-0.328457 0.16855,-0.643948 0,-0.514294 -0.36303,-0.838429 -0.35871,-0.324135 -0.93783,-0.324135 -0.41057,0 -0.86868,0.142619 -0.45379,0.14262 -0.97241,0.43218 v -0.881647 q 0.52726,-0.211768 0.98537,-0.319813 0.45811,-0.108045 0.83843,-0.108045 1.00266,0 1.59907,0.501329 0.59641,0.501329 0.59641,1.339757 0,0.397606 -0.15127,0.756315 -0.14694,0.354387 -0.54022,0.838429 -0.10805,0.125332 -0.68717,0.726062 -0.57912,0.596408 -1.63364,1.672535 z"
         style="stroke-width:0.26458332"
         id="path3026"
         inkscape:connector-curvature="0" />
    </g>
    <g
       aria-label="4"
       transform="rotate(90,-7.3705357,-1.1339286)"
       style="font-style:normal;font-weight:normal;font-size:8.85104179px;line-height:1.25;font-family:sans-serif;letter-spacing:0px;word-spacing:0px;fill:#000000;fill-opacity:1;stroke:none;stroke-width:0.26458332"
       id="text1242-3-6">
      <path
         d="m 232.77442,-61.593816 -2.20411,3.444473 h 2.20411 z m -0.22905,-0.760636 h 1.09773 v 4.205109 h 0.92055 v 0.726062 h -0.92055 v 1.521273 h -0.86868 v -1.521273 h -2.91289 v -0.84275 z"
         style="stroke-width:0.26458332"
         id="path3032"
         inkscape:connector-curvature="0" />
    </g>
    <g
       aria-label="3"
       transform="rotate(180,-4.2522321,3.1183036)"
       style="font-style:normal;font-weight:normal;font-size:8.85104179px;line-height:1.25;font-family:sans-serif;letter-spacing:0px;word-spacing:0px;fill:#000000;fill-opacity:1;stroke:none;stroke-width:0.26458332"
       id="text1242-3-5-6">
      <path
         d="m -65.985399,-224.78581 q 0.626661,0.13398 0.976726,0.55751 0.354388,0.42354 0.354388,1.04588 0,0.95511 -0.656913,1.47805 -0.656914,0.52294 -1.867017,0.52294 -0.406249,0 -0.838429,-0.0821 -0.427858,-0.0778 -0.885968,-0.2377 v -0.84275 q 0.363031,0.21176 0.79521,0.31981 0.43218,0.10804 0.903256,0.10804 0.821142,0 1.249,-0.32413 0.43218,-0.32414 0.43218,-0.94215 0,-0.57048 -0.401928,-0.89029 -0.397605,-0.32414 -1.110702,-0.32414 h -0.751992 v -0.71742 h 0.786567 q 0.643948,0 0.98537,-0.25498 0.341422,-0.25931 0.341422,-0.74335 0,-0.49701 -0.354388,-0.76064 -0.350065,-0.26795 -1.006979,-0.26795 -0.358709,0 -0.76928,0.0778 -0.41057,0.0778 -0.903255,0.24202 v -0.77792 q 0.497006,-0.1383 0.929186,-0.20745 0.436502,-0.0692 0.821142,-0.0692 0.994013,0 1.573134,0.45379 0.579121,0.44947 0.579121,1.21875 0,0.5359 -0.306848,0.90758 -0.306847,0.36735 -0.873003,0.50997 z"
         style="stroke-width:0.26458332"
         id="path3035"
         inkscape:connector-curvature="0" />
    </g>
    <g
       aria-label="5"
       style="font-style:normal;font-weight:normal;font-size:8.85104179px;line-height:1.25;font-family:sans-serif;letter-spacing:0px;word-spacing:0px;fill:#000000;fill-opacity:1;stroke:none;stroke-width:0.26458332"
       id="text1242-3-1"
       transform="translate(-8.5044642,6.2366071)">
      <path
         d="m 65.09958,265.36726 h 3.427186 v 0.7347 h -2.627654 v 1.58178 q 0.19016,-0.0648 0.380319,-0.0951 0.190159,-0.0346 0.380318,-0.0346 1.080449,0 1.711432,0.59208 0.630982,0.59209 0.630982,1.60339 0,1.04155 -0.648269,1.62068 -0.64827,0.57479 -1.828121,0.57479 -0.406249,0 -0.829785,-0.0691 -0.419214,-0.0692 -0.868681,-0.20745 v -0.87733 q 0.388961,0.21177 0.803854,0.3155 0.414893,0.10372 0.877325,0.10372 0.747671,0 1.184173,-0.39328 0.436501,-0.39329 0.436501,-1.06749 0,-0.6742 -0.436501,-1.06748 -0.436502,-0.39329 -1.184173,-0.39329 -0.350066,0 -0.700131,0.0778 -0.345744,0.0778 -0.708775,0.24202 z"
         style="stroke-width:0.26458332"
         id="path3017"
         inkscape:connector-curvature="0" />
    </g>
    <path
       style="fill:none;stroke:#ff0000;stroke-width:0.26458332px;stroke-linecap:butt;stroke-linejoin:miter;stroke-opacity:1"
       d="m 54.498714,271.17023 c -1.599811,1.59779 -2.078961,4.00664 -1.212117,6.09939 0.866844,2.09275 2.908975,3.45725 5.174147,3.45725 2.265172,0 4.307303,-1.3645 5.174147,-3.45725 0.866843,-2.09275 0.387694,-4.5016 -1.207191,-6.09939 l -3.962032,-3.96493 z"
       id="path984-3-5"
       inkscape:connector-curvature="0"
       sodipodi:nodetypes="csssccc" />
    <path
       style="fill:none;stroke:#ff0000;stroke-width:0.26458332px;stroke-linecap:butt;stroke-linejoin:miter;stroke-opacity:1"
       d="m 54.498714,263.24037 c -1.599811,-1.59778 -2.078961,-4.00664 -1.212117,-6.09938 0.866844,-2.09275 2.908975,-3.45726 5.174147,-3.45726 2.265172,0 4.307305,1.36451 5.174147,3.45726 0.866843,2.09274 0.387694,4.5016 -1.207191,6.09938 l -3.962032,3.96493 z"
       id="path984-3-7-4"
       inkscape:connector-curvature="0"
       sodipodi:nodetypes="csssccc" />
    <path
       style="fill:none;stroke:#ff0000;stroke-width:0.26458332px;stroke-linecap:butt;stroke-linejoin:miter;stroke-opacity:1"
       d="m 62.430597,271.17226 c 1.597785,1.59981 4.006641,2.07896 6.099387,1.21211 2.09275,-0.86684 3.45726,-2.90897 3.45726,-5.17414 0,-2.26517 -1.36451,-4.30731 -3.45726,-5.17415 -2.092746,-0.86684 -4.501602,-0.3877 -6.099387,1.20719"
       id="path984-3-8-7"
       inkscape:connector-curvature="0"
       sodipodi:nodetypes="csssc" />
    <path
       style="fill:none;stroke:#ff0000;stroke-width:0.26458332px;stroke-linecap:butt;stroke-linejoin:miter;stroke-opacity:1"
       d="m 54.500741,263.23835 c -1.597784,-1.59981 -4.006641,-2.07897 -6.099389,-1.21212 -2.092746,0.86684 -3.457252,2.90898 -3.457255,5.17415 3e-6,2.26517 1.364509,4.3073 3.457255,5.17414 2.092748,0.86685 4.501605,0.3877 6.099389,-1.20719"
       id="path984-3-4-6"
       inkscape:connector-curvature="0"
       sodipodi:nodetypes="csssc" />
    <g
       aria-label="6"
       transform="rotate(-90,-1.1339286,7.3705357)"
       style="font-style:normal;font-weight:normal;font-size:8.85104179px;line-height:1.25;font-family:sans-serif;letter-spacing:0px;word-spacing:0px;fill:#000000;fill-opacity:1;stroke:none;stroke-width:0.26458332"
       id="text1242-3-5-69">
      <path
         d="m -260.99601,74.245148 q -0.58776,0 -0.9335,0.401927 -0.34143,0.401928 -0.34143,1.102059 0,0.695809 0.34143,1.102058 0.34574,0.401927 0.9335,0.401927 0.58777,0 0.92919,-0.401927 0.34574,-0.406249 0.34574,-1.102058 0,-0.700131 -0.34574,-1.102059 -0.34142,-0.401927 -0.92919,-0.401927 z m 1.73304,-2.735698 v 0.795211 q -0.32845,-0.155585 -0.66555,-0.237699 -0.33278,-0.08211 -0.66124,-0.08211 -0.86436,0 -1.32247,0.583443 -0.45379,0.583442 -0.51861,1.763293 0.25498,-0.375996 0.63962,-0.574799 0.38464,-0.203124 0.84708,-0.203124 0.9724,0 1.53423,0.592086 0.56616,0.587764 0.56616,1.603387 0,0.994013 -0.58777,1.594743 -0.58776,0.60073 -1.56449,0.60073 -1.11934,0 -1.71143,-0.855716 -0.59208,-0.860038 -0.59208,-2.489355 0,-1.529917 0.72606,-2.437494 0.72606,-0.9119 1.94913,-0.9119 0.32846,0 0.66123,0.06483 0.3371,0.06483 0.70013,0.194481 z"
         style="stroke-width:0.26458332"
         id="path3014"
         inkscape:connector-curvature="0" />
    </g>
    <g
       aria-label="8"
       transform="rotate(90,-7.3705357,-1.1339286)"
       style="font-style:normal;font-weight:normal;font-size:8.85104179px;line-height:1.25;font-family:sans-serif;letter-spacing:0px;word-spacing:0px;fill:#000000;fill-opacity:1;stroke:none;stroke-width:0.26458332"
       id="text1242-3-6-5">
      <path
         d="m 261.15544,-59.297324 q -0.62234,0 -0.98105,0.332778 -0.35439,0.332779 -0.35439,0.916221 0,0.583443 0.35439,0.916222 0.35871,0.332778 0.98105,0.332778 0.62234,0 0.98105,-0.332778 0.35871,-0.337101 0.35871,-0.916222 0,-0.583442 -0.35871,-0.916221 -0.35439,-0.332778 -0.98105,-0.332778 z m -0.873,-0.371675 q -0.56184,-0.138297 -0.87733,-0.522937 -0.31117,-0.38464 -0.31117,-0.93783 0,-0.773602 0.54887,-1.223069 0.55319,-0.449467 1.51263,-0.449467 0.96376,0 1.51263,0.449467 0.54887,0.449467 0.54887,1.223069 0,0.55319 -0.31549,0.93783 -0.31117,0.38464 -0.86869,0.522937 0.63099,0.146941 0.98105,0.574799 0.35439,0.427858 0.35439,1.045875 0,0.937831 -0.5748,1.439159 -0.57048,0.501329 -1.63796,0.501329 -1.06748,0 -1.64228,-0.501329 -0.57048,-0.501328 -0.57048,-1.439159 0,-0.618017 0.35439,-1.045875 0.35438,-0.427858 0.98537,-0.574799 z m -0.31982,-1.378653 q 0,0.501328 0.31117,0.782245 0.31549,0.280917 0.88165,0.280917 0.56183,0 0.87732,-0.280917 0.31982,-0.280917 0.31982,-0.782245 0,-0.501329 -0.31982,-0.782246 -0.31549,-0.280916 -0.87732,-0.280916 -0.56616,0 -0.88165,0.280916 -0.31117,0.280917 -0.31117,0.782246 z"
         style="stroke-width:0.26458332"
         id="path3020"
         inkscape:connector-curvature="0" />
    </g>
    <g
       aria-label="7"
       transform="rotate(180,-4.2522321,3.1183036)"
       style="font-style:normal;font-weight:normal;font-size:8.85104179px;line-height:1.25;font-family:sans-serif;letter-spacing:0px;word-spacing:0px;fill:#000000;fill-opacity:1;stroke:none;stroke-width:0.26458332"
       id="text1242-3-5-6-4">
      <path
         d="m -69.181912,-256.67177 h 4.148926 v 0.37167 l -2.342415,6.08077 H -68.2873 l 2.204117,-5.71774 h -3.098729 z"
         style="stroke-width:0.26458332"
         id="path3023"
         inkscape:connector-curvature="0" />
    </g>
    <path
       style="fill:none;stroke:#ff0000;stroke-width:0.26458332px;stroke-linecap:butt;stroke-linejoin:miter;stroke-opacity:1"
       d="m 32.404221,271.56127 c 1.597783,1.59981 4.006639,2.07896 6.099386,1.21212 2.092748,-0.86685 3.457257,-2.90897 3.457257,-5.17415 0,-2.26517 -1.364509,-4.3073 -3.457257,-5.17414 -2.092747,-0.86685 -4.501604,-0.3877 -6.099386,1.20719"
       id="path984-3-8-7-2"
       inkscape:connector-curvature="0"
       sodipodi:nodetypes="csssc" />
    <path
       style="fill:none;stroke:#ff0000;stroke-width:0.26458332px;stroke-linecap:butt;stroke-linejoin:miter;stroke-opacity:1"
       d="m 24.474363,263.62736 c -1.597784,-1.59981 -4.00664,-2.07896 -6.099387,-1.21212 -2.092747,0.86685 -3.457254,2.90898 -3.457255,5.17415 10e-7,2.26518 1.364508,4.30731 3.457255,5.17415 2.092747,0.86684 4.501604,0.38769 6.099387,-1.20719"
       id="path984-3-4-6-6"
       inkscape:connector-curvature="0"
       sodipodi:nodetypes="csssc" />
    <path
       style="opacity:1;fill:none;fill-opacity:1;stroke:#000000;stroke-width:0.26499999;stroke-linecap:round;stroke-linejoin:bevel;stroke-miterlimit:4;stroke-dasharray:none;stroke-opacity:1"
       id="path2741-6-8"
       sodipodi:type="arc"
       sodipodi:cx="265.73322"
       sodipodi:cy="-48.105312"
       sodipodi:rx="4.3073902"
       sodipodi:ry="4.3073902"
       sodipodi:start="6.0046133"
       sodipodi:end="6.0006332"
       sodipodi:open="true"
       d="m 269.87455,-49.289771 a 4.3073902,4.3073902 0 0 1 -2.95276,5.324614 4.3073902,4.3073902 0 0 1 -5.32755,-2.947457 4.3073902,4.3073902 0 0 1 2.94216,-5.330481 4.3073902,4.3073902 0 0 1 5.3334,2.93685"
       transform="rotate(92.517054)" />
    <path
       style="opacity:1;fill:none;fill-opacity:1;stroke:#000000;stroke-width:0.26499999;stroke-linecap:round;stroke-linejoin:bevel;stroke-miterlimit:4;stroke-dasharray:none;stroke-opacity:1"
       id="path2741-6-8-7"
       sodipodi:type="arc"
       sodipodi:cx="-266.44107"
       sodipodi:cy="32.222149"
       sodipodi:rx="4.3073902"
       sodipodi:ry="4.3073902"
       sodipodi:start="6.0046133"
       sodipodi:end="6.0006332"
       sodipodi:open="true"
       d="m -262.29973,31.03769 a 4.3073902,4.3073902 0 0 1 -2.95276,5.324615 4.3073902,4.3073902 0 0 1 -5.32755,-2.947458 4.3073902,4.3073902 0 0 1 2.94215,-5.33048 4.3073902,4.3073902 0 0 1 5.33341,2.936849"
       transform="rotate(-87.482946)" />
    <path
       style="opacity:1;fill:none;fill-opacity:1;stroke:#000000;stroke-width:0.26499999;stroke-linecap:round;stroke-linejoin:bevel;stroke-miterlimit:4;stroke-dasharray:none;stroke-opacity:1"
       id="path2741-6-2"
       sodipodi:type="arc"
       sodipodi:cx="38.401913"
       sodipodi:cy="228.89259"
       sodipodi:rx="4.3073902"
       sodipodi:ry="4.3073902"
       sodipodi:start="6.0046133"
       sodipodi:end="6.0006332"
       sodipodi:open="true"
       d="m 42.543249,227.70813 a 4.3073902,4.3073902 0 0 1 -2.952757,5.32462 4.3073902,4.3073902 0 0 1 -5.32755,-2.94746 4.3073902,4.3073902 0 0 1 2.942155,-5.33048 4.3073902,4.3073902 0 0 1 5.333405,2.93685"
       transform="rotate(2.5170543)" />
    <path
       style="fill:none;stroke:#ff0000;stroke-width:0.26458332px;stroke-linecap:butt;stroke-linejoin:miter;stroke-opacity:1"
       d="m 24.350506,242.27262 c -1.59981,1.59778 -2.078961,4.00664 -1.212117,6.09939 0.866844,2.09274 2.908975,3.45725 5.174148,3.45725 2.265173,0 4.307303,-1.36451 5.174147,-3.45725 0.866843,-2.09275 0.387692,-4.50161 -1.207192,-6.09939 l -3.96203,-3.96493 z"
       id="path984-3-5-8-6"
       inkscape:connector-curvature="0"
       sodipodi:nodetypes="csssccc" />
    <path
       style="fill:none;stroke:#ff0000;stroke-width:0.26458332px;stroke-linecap:butt;stroke-linejoin:miter;stroke-opacity:1"
       d="m 24.350506,234.34276 c -1.59981,-1.59778 -2.078961,-4.00664 -1.212117,-6.09939 0.866844,-2.09274 2.908975,-3.45725 5.174148,-3.45725 2.265173,0 4.307304,1.36451 5.174147,3.45725 0.866843,2.09275 0.387693,4.50161 -1.207192,6.09939 l -3.96203,3.96493 z"
       id="path984-3-7-4-9-1"
       inkscape:connector-curvature="0"
       sodipodi:nodetypes="csssccc" />
    <path
       style="fill:none;stroke:#ff0000;stroke-width:0.26458332px;stroke-linecap:butt;stroke-linejoin:miter;stroke-opacity:1"
       d="m 32.282391,242.27465 c 1.597783,1.59981 4.006639,2.07896 6.099386,1.21211 2.092748,-0.86684 3.457257,-2.90897 3.457257,-5.17414 0,-2.26518 -1.364509,-4.30731 -3.457257,-5.17415 -2.092747,-0.86684 -4.501604,-0.3877 -6.099386,1.20719"
       id="path984-3-8-7-2-0"
       inkscape:connector-curvature="0"
       sodipodi:nodetypes="csssc" />
    <path
       style="fill:none;stroke:#ff0000;stroke-width:0.26458332px;stroke-linecap:butt;stroke-linejoin:miter;stroke-opacity:1"
       d="m 24.352532,234.34074 c -1.597784,-1.59981 -4.00664,-2.07897 -6.099387,-1.21212 -2.092747,0.86684 -3.457254,2.90897 -3.457255,5.17415 10e-7,2.26517 1.364508,4.3073 3.457255,5.17414 2.092747,0.86685 4.501604,0.3877 6.099387,-1.20719"
       id="path984-3-4-6-6-6"
       inkscape:connector-curvature="0"
       sodipodi:nodetypes="csssc" />
    <path
       style="opacity:1;fill:none;fill-opacity:1;stroke:#000000;stroke-width:0.26499999;stroke-linecap:round;stroke-linejoin:bevel;stroke-miterlimit:4;stroke-dasharray:none;stroke-opacity:1"
       id="path2741-6-8-1"
       sodipodi:type="arc"
       sodipodi:cx="236.48022"
       sodipodi:cy="-46.697422"
       sodipodi:rx="4.3073902"
       sodipodi:ry="4.3073902"
       sodipodi:start="6.0046133"
       sodipodi:end="6.0006332"
       sodipodi:open="true"
       d="m 240.62156,-47.881881 a 4.3073902,4.3073902 0 0 1 -2.95276,5.324615 4.3073902,4.3073902 0 0 1 -5.32755,-2.947458 4.3073902,4.3073902 0 0 1 2.94216,-5.33048 4.3073902,4.3073902 0 0 1 5.3334,2.936849"
       transform="rotate(92.517054)" />
    <path
       style="opacity:1;fill:none;fill-opacity:1;stroke:#000000;stroke-width:0.26499999;stroke-linecap:round;stroke-linejoin:bevel;stroke-miterlimit:4;stroke-dasharray:none;stroke-opacity:1"
       id="path2741-6-1-5"
       sodipodi:type="arc"
       sodipodi:cx="-39.109764"
       sodipodi:cy="-244.77574"
       sodipodi:rx="4.3073902"
       sodipodi:ry="4.3073902"
       sodipodi:start="6.0046133"
       sodipodi:end="6.0006332"
       sodipodi:open="true"
       d="m -34.968428,-245.9602 a 4.3073902,4.3073902 0 0 1 -2.952757,5.32461 4.3073902,4.3073902 0 0 1 -5.32755,-2.94745 4.3073902,4.3073902 0 0 1 2.942155,-5.33048 4.3073902,4.3073902 0 0 1 5.333405,2.93685"
       transform="rotate(-177.48295)" />
    <path
       style="opacity:1;fill:none;fill-opacity:1;stroke:#000000;stroke-width:0.26499999;stroke-linecap:round;stroke-linejoin:bevel;stroke-miterlimit:4;stroke-dasharray:none;stroke-opacity:1"
       id="path2741-6-8-7-9"
       sodipodi:type="arc"
       sodipodi:cx="-237.1881"
       sodipodi:cy="30.814264"
       sodipodi:rx="4.3073902"
       sodipodi:ry="4.3073902"
       sodipodi:start="6.0046133"
       sodipodi:end="6.0006332"
       sodipodi:open="true"
       d="m -233.04676,29.629805 a 4.3073902,4.3073902 0 0 1 -2.95276,5.324615 4.3073902,4.3073902 0 0 1 -5.32755,-2.947458 4.3073902,4.3073902 0 0 1 2.94216,-5.33048 4.3073902,4.3073902 0 0 1 5.3334,2.93685"
       transform="rotate(-87.482946)" />
    <g
       aria-label="ю"
       style="font-style:normal;font-weight:normal;font-size:8.85104179px;line-height:1.25;font-family:sans-serif;letter-spacing:0px;word-spacing:0px;fill:#000000;fill-opacity:1;stroke:none;stroke-width:0.26458332"
       id="text1242-3-4"
       transform="translate(-8.203786,5.9025202)">
      <path
         d="m 37.783839,267.92581 q -0.639626,0 -1.0113,0.50133 -0.371675,0.497 -0.371675,1.36568 0,0.86869 0.367353,1.37001 0.371675,0.49701 1.015622,0.49701 0.635305,0 1.006979,-0.50133 0.371675,-0.50133 0.371675,-1.36569 0,-0.86003 -0.371675,-1.36136 -0.371674,-0.50565 -1.006979,-0.50565 z m -2.195473,1.37433 q 0.08211,-0.82114 0.618017,-1.43484 0.540225,-0.61369 1.577456,-0.61369 1.037232,0 1.629318,0.6742 0.592087,0.6742 0.592087,1.86701 0,1.1885 -0.592087,1.86702 -0.592086,0.6742 -1.629318,0.6742 -1.041553,0 -1.61203,-0.65259 -0.566156,-0.65259 -0.605052,-1.7244 h -0.898934 v 2.25166 h -0.79521 v -4.84041 h 0.79521 v 1.93184 z"
         style="stroke-width:0.26458332"
         id="path3008"
         inkscape:connector-curvature="0" />
    </g>
    <path
       style="fill:none;stroke:#ff0000;stroke-width:0.26458332px;stroke-linecap:butt;stroke-linejoin:miter;stroke-opacity:1"
       d="m 24.472337,271.55925 c -1.59981,1.59778 -2.078961,4.00664 -1.212117,6.09938 0.866844,2.09275 2.908974,3.45726 5.174147,3.45726 2.265174,0 4.307304,-1.36451 5.174147,-3.45726 0.866844,-2.09274 0.387694,-4.5016 -1.207191,-6.09938 l -3.962031,-3.96493 z"
       id="path984-3-09"
       inkscape:connector-curvature="0"
       sodipodi:nodetypes="csssccc" />
    <path
       style="fill:none;stroke:#ff0000;stroke-width:0.26458332px;stroke-linecap:butt;stroke-linejoin:miter;stroke-opacity:1"
       d="m 24.474363,263.62736 c -1.59981,-1.59778 -2.078961,-4.00664 -1.212117,-6.09938 0.866844,-2.09275 2.908974,-3.45726 5.174147,-3.45726 2.265173,0 4.307303,1.36451 5.174146,3.45726 0.866844,2.09274 0.387695,4.5016 -1.207191,6.09938 l -3.96203,3.96493 z"
       id="path984-3-7-1"
       inkscape:connector-curvature="0"
       sodipodi:nodetypes="csssccc" />
    <g
       aria-label="ж"
       transform="rotate(180,-4.2522321,3.2519384)"
       style="font-style:normal;font-weight:normal;font-size:8.85104179px;line-height:1.25;font-family:sans-serif;letter-spacing:0px;word-spacing:0px;fill:#000000;fill-opacity:1;stroke:none;stroke-width:0.26458332"
       id="text1242-3-5-6-7">
      <path
         d="m -37.336397,-255.44674 h 0.790889 v 2.27327 l 2.113359,-2.27327 h 0.924865 l -1.737363,1.8627 1.988027,2.97772 h -0.851394 l -1.629318,-2.44614 -0.808176,0.86868 v 1.57746 h -0.790889 v -1.57746 l -0.808176,-0.86868 -1.629318,2.44614 h -0.851394 l 1.988027,-2.97772 -1.737363,-1.8627 h 0.924865 l 2.113359,2.27327 z"
         style="stroke-width:0.26458332"
         id="path3011"
         inkscape:connector-curvature="0" />
    </g>
    <g
       transform="translate(51.585436,6.0157588)"
       aria-label="1"
       style="font-style:normal;font-weight:normal;font-size:8.85104179px;line-height:1.25;font-family:sans-serif;letter-spacing:0px;word-spacing:0px;fill:#000000;fill-opacity:1;stroke:none;stroke-width:0.26458332"
       id="text1242-3-3">
      <path
         inkscape:connector-curvature="0"
         d="m 64.911034,242.17241 h 1.426193 v -4.92252 l -1.551525,0.31117 v -0.79521 l 1.542882,-0.31117 h 0.873003 v 5.71773 h 1.426193 v 0.73471 h -3.716746 z"
         style="stroke-width:0.26458332"
         id="path3029-6" />
    </g>
    <path
       style="fill:none;stroke:#ff0000;stroke-width:0.26458332px;stroke-linecap:butt;stroke-linejoin:miter;stroke-opacity:1"
       d="m 114.25746,242.0368 c -1.59981,1.59779 -2.07896,4.00664 -1.21212,6.09939 0.86684,2.09275 2.90898,3.45726 5.17415,3.45726 2.26517,0 4.3073,-1.36451 5.17415,-3.45726 0.86684,-2.09275 0.38769,-4.5016 -1.2072,-6.09939 l -3.96203,-3.96493 z"
       id="path984-3-75"
       inkscape:connector-curvature="0"
       sodipodi:nodetypes="csssccc" />
    <path
       style="fill:none;stroke:#ff0000;stroke-width:0.26458332px;stroke-linecap:butt;stroke-linejoin:miter;stroke-opacity:1"
       d="m 114.25746,234.10695 c -1.59981,-1.59779 -2.07896,-4.00664 -1.21212,-6.09939 0.86684,-2.09275 2.90898,-3.45726 5.17415,-3.45726 2.26517,0 4.3073,1.36451 5.17415,3.45726 0.86684,2.09275 0.38769,4.5016 -1.2072,6.09939 l -3.96203,3.96492 z"
       id="path984-3-7-3"
       inkscape:connector-curvature="0"
       sodipodi:nodetypes="csssccc" />
    <path
       style="fill:none;stroke:#ff0000;stroke-width:0.26458332px;stroke-linecap:butt;stroke-linejoin:miter;stroke-opacity:1"
       d="m 122.18934,242.03883 c 1.59779,1.59981 4.00664,2.07896 6.09939,1.21212 2.09275,-0.86685 3.45725,-2.90898 3.45725,-5.17415 0,-2.26517 -1.3645,-4.3073 -3.45725,-5.17415 -2.09275,-0.86684 -4.50161,-0.38769 -6.09939,1.20719"
       id="path984-3-8-5"
       inkscape:connector-curvature="0"
       sodipodi:nodetypes="csssc" />
    <path
       style="fill:none;stroke:#ff0000;stroke-width:0.26458332px;stroke-linecap:butt;stroke-linejoin:miter;stroke-opacity:1"
       d="m 114.25948,234.10492 c -1.59778,-1.59981 -4.00664,-2.07896 -6.09938,-1.21212 -2.09275,0.86685 -3.45726,2.90898 -3.45726,5.17415 0,2.26517 1.36451,4.3073 3.45726,5.17415 2.09274,0.86684 4.5016,0.38769 6.09938,-1.20719"
       id="path984-3-4-62"
       inkscape:connector-curvature="0"
       sodipodi:nodetypes="csssc" />
    <g
       aria-label="2"
       transform="rotate(-90,28.800599,-22.784837)"
       style="font-style:normal;font-weight:normal;font-size:8.85104179px;line-height:1.25;font-family:sans-serif;letter-spacing:0px;word-spacing:0px;fill:#000000;fill-opacity:1;stroke:none;stroke-width:0.26458332"
       id="text1242-3-5-9">
      <path
         inkscape:connector-curvature="0"
         d="m -233.30648,76.753415 h 3.04687 v 0.734706 h -4.09706 v -0.734706 q 0.497,-0.514294 1.35272,-1.378653 0.86004,-0.868681 1.08045,-1.119346 0.41921,-0.471076 0.58344,-0.79521 0.16855,-0.328457 0.16855,-0.643948 0,-0.514294 -0.36303,-0.838429 -0.35871,-0.324135 -0.93783,-0.324135 -0.41057,0 -0.86868,0.142619 -0.45379,0.14262 -0.97241,0.43218 v -0.881647 q 0.52726,-0.211768 0.98537,-0.319813 0.45811,-0.108045 0.83843,-0.108045 1.00266,0 1.59907,0.501329 0.59641,0.501329 0.59641,1.339757 0,0.397606 -0.15127,0.756315 -0.14694,0.354387 -0.54022,0.838429 -0.10805,0.125332 -0.68717,0.726062 -0.57912,0.596408 -1.63364,1.672535 z"
         style="stroke-width:0.26458332"
         id="path3026-1" />
    </g>
    <g
       aria-label="4"
       transform="rotate(90,22.784838,28.800599)"
       style="font-style:normal;font-weight:normal;font-size:8.85104179px;line-height:1.25;font-family:sans-serif;letter-spacing:0px;word-spacing:0px;fill:#000000;fill-opacity:1;stroke:none;stroke-width:0.26458332"
       id="text1242-3-6-2">
      <path
         inkscape:connector-curvature="0"
         d="m 232.77442,-61.593816 -2.20411,3.444473 h 2.20411 z m -0.22905,-0.760636 h 1.09773 v 4.205109 h 0.92055 v 0.726062 h -0.92055 v 1.521273 h -0.86868 v -1.521273 h -2.91289 v -0.84275 z"
         style="stroke-width:0.26458332"
         id="path3032-7" />
    </g>
    <g
       aria-label="3"
       transform="rotate(180,25.792719,3.0078795)"
       style="font-style:normal;font-weight:normal;font-size:8.85104179px;line-height:1.25;font-family:sans-serif;letter-spacing:0px;word-spacing:0px;fill:#000000;fill-opacity:1;stroke:none;stroke-width:0.26458332"
       id="text1242-3-5-6-0">
      <path
         inkscape:connector-curvature="0"
         d="m -65.985399,-224.78581 q 0.626661,0.13398 0.976726,0.55751 0.354388,0.42354 0.354388,1.04588 0,0.95511 -0.656913,1.47805 -0.656914,0.52294 -1.867017,0.52294 -0.406249,0 -0.838429,-0.0821 -0.427858,-0.0778 -0.885968,-0.2377 v -0.84275 q 0.363031,0.21176 0.79521,0.31981 0.43218,0.10804 0.903256,0.10804 0.821142,0 1.249,-0.32413 0.43218,-0.32414 0.43218,-0.94215 0,-0.57048 -0.401928,-0.89029 -0.397605,-0.32414 -1.110702,-0.32414 h -0.751992 v -0.71742 h 0.786567 q 0.643948,0 0.98537,-0.25498 0.341422,-0.25931 0.341422,-0.74335 0,-0.49701 -0.354388,-0.76064 -0.350065,-0.26795 -1.006979,-0.26795 -0.358709,0 -0.76928,0.0778 -0.41057,0.0778 -0.903255,0.24202 v -0.77792 q 0.497006,-0.1383 0.929186,-0.20745 0.436502,-0.0692 0.821142,-0.0692 0.994013,0 1.573134,0.45379 0.579121,0.44947 0.579121,1.21875 0,0.5359 -0.306848,0.90758 -0.306847,0.36735 -0.873003,0.50997 z"
         style="stroke-width:0.26458332"
         id="path3035-9" />
    </g>
    <g
       transform="translate(51.585436,6.0157588)"
       aria-label="5"
       style="font-style:normal;font-weight:normal;font-size:8.85104179px;line-height:1.25;font-family:sans-serif;letter-spacing:0px;word-spacing:0px;fill:#000000;fill-opacity:1;stroke:none;stroke-width:0.26458332"
       id="text1242-3-1-3">
      <path
         inkscape:connector-curvature="0"
         d="m 65.09958,265.36726 h 3.427186 v 0.7347 h -2.627654 v 1.58178 q 0.19016,-0.0648 0.380319,-0.0951 0.190159,-0.0346 0.380318,-0.0346 1.080449,0 1.711432,0.59208 0.630982,0.59209 0.630982,1.60339 0,1.04155 -0.648269,1.62068 -0.64827,0.57479 -1.828121,0.57479 -0.406249,0 -0.829785,-0.0691 -0.419214,-0.0692 -0.868681,-0.20745 v -0.87733 q 0.388961,0.21177 0.803854,0.3155 0.414893,0.10372 0.877325,0.10372 0.747671,0 1.184173,-0.39328 0.436501,-0.39329 0.436501,-1.06749 0,-0.6742 -0.436501,-1.06748 -0.436502,-0.39329 -1.184173,-0.39329 -0.350066,0 -0.700131,0.0778 -0.345744,0.0778 -0.708775,0.24202 z"
         style="stroke-width:0.26458332"
         id="path3017-6" />
    </g>
    <path
       style="fill:none;stroke:#ff0000;stroke-width:0.26458332px;stroke-linecap:butt;stroke-linejoin:miter;stroke-opacity:1"
       d="m 114.58862,270.94939 c -1.59981,1.59779 -2.07896,4.00664 -1.21212,6.09939 0.86685,2.09275 2.90898,3.45725 5.17415,3.45725 2.26517,0 4.3073,-1.3645 5.17415,-3.45725 0.86684,-2.09275 0.38769,-4.5016 -1.20719,-6.09939 l -3.96204,-3.96493 z"
       id="path984-3-5-0"
       inkscape:connector-curvature="0"
       sodipodi:nodetypes="csssccc" />
    <path
       style="fill:none;stroke:#ff0000;stroke-width:0.26458332px;stroke-linecap:butt;stroke-linejoin:miter;stroke-opacity:1"
       d="m 114.58862,263.01953 c -1.59981,-1.59778 -2.07896,-4.00664 -1.21212,-6.09938 0.86685,-2.09275 2.90898,-3.45726 5.17415,-3.45726 2.26517,0 4.30731,1.36451 5.17415,3.45726 0.86684,2.09274 0.38769,4.5016 -1.20719,6.09938 l -3.96204,3.96493 z"
       id="path984-3-7-4-6"
       inkscape:connector-curvature="0"
       sodipodi:nodetypes="csssccc" />
    <path
       style="fill:none;stroke:#ff0000;stroke-width:0.26458332px;stroke-linecap:butt;stroke-linejoin:miter;stroke-opacity:1"
       d="m 122.5205,270.95142 c 1.59779,1.59981 4.00664,2.07896 6.09939,1.21211 2.09275,-0.86684 3.45726,-2.90897 3.45726,-5.17414 0,-2.26517 -1.36451,-4.30731 -3.45726,-5.17415 -2.09275,-0.86684 -4.5016,-0.3877 -6.09939,1.20719"
       id="path984-3-8-7-26"
       inkscape:connector-curvature="0"
       sodipodi:nodetypes="csssc" />
    <path
       style="fill:none;stroke:#ff0000;stroke-width:0.26458332px;stroke-linecap:butt;stroke-linejoin:miter;stroke-opacity:1"
       d="m 114.59065,263.01751 c -1.59779,-1.59981 -4.00664,-2.07897 -6.09939,-1.21212 -2.09275,0.86684 -3.45725,2.90898 -3.45726,5.17415 10e-6,2.26517 1.36451,4.3073 3.45726,5.17414 2.09275,0.86685 4.5016,0.3877 6.09939,-1.20719"
       id="path984-3-4-6-1"
       inkscape:connector-curvature="0"
       sodipodi:nodetypes="csssc" />
    <g
       aria-label="6"
       transform="rotate(-90,28.800599,-22.784837)"
       style="font-style:normal;font-weight:normal;font-size:8.85104179px;line-height:1.25;font-family:sans-serif;letter-spacing:0px;word-spacing:0px;fill:#000000;fill-opacity:1;stroke:none;stroke-width:0.26458332"
       id="text1242-3-5-69-8">
      <path
         inkscape:connector-curvature="0"
         d="m -260.99601,74.245148 q -0.58776,0 -0.9335,0.401927 -0.34143,0.401928 -0.34143,1.102059 0,0.695809 0.34143,1.102058 0.34574,0.401927 0.9335,0.401927 0.58777,0 0.92919,-0.401927 0.34574,-0.406249 0.34574,-1.102058 0,-0.700131 -0.34574,-1.102059 -0.34142,-0.401927 -0.92919,-0.401927 z m 1.73304,-2.735698 v 0.795211 q -0.32845,-0.155585 -0.66555,-0.237699 -0.33278,-0.08211 -0.66124,-0.08211 -0.86436,0 -1.32247,0.583443 -0.45379,0.583442 -0.51861,1.763293 0.25498,-0.375996 0.63962,-0.574799 0.38464,-0.203124 0.84708,-0.203124 0.9724,0 1.53423,0.592086 0.56616,0.587764 0.56616,1.603387 0,0.994013 -0.58777,1.594743 -0.58776,0.60073 -1.56449,0.60073 -1.11934,0 -1.71143,-0.855716 -0.59208,-0.860038 -0.59208,-2.489355 0,-1.529917 0.72606,-2.437494 0.72606,-0.9119 1.94913,-0.9119 0.32846,0 0.66123,0.06483 0.3371,0.06483 0.70013,0.194481 z"
         style="stroke-width:0.26458332"
         id="path3014-7" />
    </g>
    <g
       aria-label="8"
       transform="rotate(90,22.784838,28.800599)"
       style="font-style:normal;font-weight:normal;font-size:8.85104179px;line-height:1.25;font-family:sans-serif;letter-spacing:0px;word-spacing:0px;fill:#000000;fill-opacity:1;stroke:none;stroke-width:0.26458332"
       id="text1242-3-6-5-9">
      <path
         inkscape:connector-curvature="0"
         d="m 261.15544,-59.297324 q -0.62234,0 -0.98105,0.332778 -0.35439,0.332779 -0.35439,0.916221 0,0.583443 0.35439,0.916222 0.35871,0.332778 0.98105,0.332778 0.62234,0 0.98105,-0.332778 0.35871,-0.337101 0.35871,-0.916222 0,-0.583442 -0.35871,-0.916221 -0.35439,-0.332778 -0.98105,-0.332778 z m -0.873,-0.371675 q -0.56184,-0.138297 -0.87733,-0.522937 -0.31117,-0.38464 -0.31117,-0.93783 0,-0.773602 0.54887,-1.223069 0.55319,-0.449467 1.51263,-0.449467 0.96376,0 1.51263,0.449467 0.54887,0.449467 0.54887,1.223069 0,0.55319 -0.31549,0.93783 -0.31117,0.38464 -0.86869,0.522937 0.63099,0.146941 0.98105,0.574799 0.35439,0.427858 0.35439,1.045875 0,0.937831 -0.5748,1.439159 -0.57048,0.501329 -1.63796,0.501329 -1.06748,0 -1.64228,-0.501329 -0.57048,-0.501328 -0.57048,-1.439159 0,-0.618017 0.35439,-1.045875 0.35438,-0.427858 0.98537,-0.574799 z m -0.31982,-1.378653 q 0,0.501328 0.31117,0.782245 0.31549,0.280917 0.88165,0.280917 0.56183,0 0.87732,-0.280917 0.31982,-0.280917 0.31982,-0.782245 0,-0.501329 -0.31982,-0.782246 -0.31549,-0.280916 -0.87732,-0.280916 -0.56616,0 -0.88165,0.280916 -0.31117,0.280917 -0.31117,0.782246 z"
         style="stroke-width:0.26458332"
         id="path3020-2" />
    </g>
    <g
       aria-label="7"
       transform="rotate(180,25.792719,3.0078795)"
       style="font-style:normal;font-weight:normal;font-size:8.85104179px;line-height:1.25;font-family:sans-serif;letter-spacing:0px;word-spacing:0px;fill:#000000;fill-opacity:1;stroke:none;stroke-width:0.26458332"
       id="text1242-3-5-6-4-0">
      <path
         inkscape:connector-curvature="0"
         d="m -69.181912,-256.67177 h 4.148926 v 0.37167 l -2.342415,6.08077 H -68.2873 l 2.204117,-5.71774 h -3.098729 z"
         style="stroke-width:0.26458332"
         id="path3023-2" />
    </g>
    <path
       style="fill:none;stroke:#ff0000;stroke-width:0.26458332px;stroke-linecap:butt;stroke-linejoin:miter;stroke-opacity:1"
       d="m 92.494125,271.34043 c 1.59778,1.59981 4.00664,2.07896 6.099384,1.21212 2.092751,-0.86685 3.457261,-2.90897 3.457261,-5.17415 0,-2.26517 -1.36451,-4.3073 -3.457261,-5.17414 -2.092744,-0.86685 -4.501604,-0.3877 -6.099384,1.20719"
       id="path984-3-8-7-2-3"
       inkscape:connector-curvature="0"
       sodipodi:nodetypes="csssc" />
    <path
       style="fill:none;stroke:#ff0000;stroke-width:0.26458332px;stroke-linecap:butt;stroke-linejoin:miter;stroke-opacity:1"
       d="m 84.564264,263.40652 c -1.59778,-1.59981 -4.00664,-2.07896 -6.09939,-1.21212 -2.09274,0.86685 -3.457251,2.90898 -3.457252,5.17415 10e-7,2.26518 1.364512,4.30731 3.457252,5.17415 2.09275,0.86684 4.50161,0.38769 6.09939,-1.20719"
       id="path984-3-4-6-6-7"
       inkscape:connector-curvature="0"
       sodipodi:nodetypes="csssc" />
    <path
       style="opacity:1;fill:none;fill-opacity:1;stroke:#000000;stroke-width:0.26499999;stroke-linecap:round;stroke-linejoin:bevel;stroke-miterlimit:4;stroke-dasharray:none;stroke-opacity:1"
       id="path2741-6-8-5"
       sodipodi:type="arc"
       sodipodi:cx="262.87366"
       sodipodi:cy="-108.12755"
       sodipodi:rx="4.3073902"
       sodipodi:ry="4.3073902"
       sodipodi:start="6.0046133"
       sodipodi:end="6.0006332"
       sodipodi:open="true"
       d="m 267.01499,-109.31201 a 4.3073902,4.3073902 0 0 1 -2.95275,5.32462 4.3073902,4.3073902 0 0 1 -5.32755,-2.94746 4.3073902,4.3073902 0 0 1 2.94215,-5.33048 4.3073902,4.3073902 0 0 1 5.33341,2.93685"
       transform="rotate(92.517054)" />
    <path
       style="opacity:1;fill:none;fill-opacity:1;stroke:#000000;stroke-width:0.26499999;stroke-linecap:round;stroke-linejoin:bevel;stroke-miterlimit:4;stroke-dasharray:none;stroke-opacity:1"
       id="path2741-6-8-7-92"
       sodipodi:type="arc"
       sodipodi:cx="-263.58151"
       sodipodi:cy="92.244385"
       sodipodi:rx="4.3073902"
       sodipodi:ry="4.3073902"
       sodipodi:start="6.0046133"
       sodipodi:end="6.0006332"
       sodipodi:open="true"
       d="m -259.44018,91.059926 a 4.3073902,4.3073902 0 0 1 -2.95275,5.324615 4.3073902,4.3073902 0 0 1 -5.32755,-2.947458 4.3073902,4.3073902 0 0 1 2.94215,-5.33048 4.3073902,4.3073902 0 0 1 5.33341,2.936849"
       transform="rotate(-87.482946)" />
    <path
       style="opacity:1;fill:none;fill-opacity:1;stroke:#000000;stroke-width:0.26499999;stroke-linecap:round;stroke-linejoin:bevel;stroke-miterlimit:4;stroke-dasharray:none;stroke-opacity:1"
       id="path2741-6-2-2"
       sodipodi:type="arc"
       sodipodi:cx="98.424141"
       sodipodi:cy="226.03299"
       sodipodi:rx="4.3073902"
       sodipodi:ry="4.3073902"
       sodipodi:start="6.0046133"
       sodipodi:end="6.0006332"
       sodipodi:open="true"
       d="m 102.56548,224.84853 a 4.3073902,4.3073902 0 0 1 -2.95276,5.32462 4.3073902,4.3073902 0 0 1 -5.32755,-2.94746 4.3073902,4.3073902 0 0 1 2.942155,-5.33048 4.3073902,4.3073902 0 0 1 5.333405,2.93685"
       transform="rotate(2.5170543)" />
    <path
       style="fill:none;stroke:#ff0000;stroke-width:0.26458332px;stroke-linecap:butt;stroke-linejoin:miter;stroke-opacity:1"
       d="m 84.440404,242.05178 c -1.59981,1.59778 -2.07896,4.00664 -1.21211,6.09939 0.86684,2.09274 2.90897,3.45725 5.17414,3.45725 2.265181,0 4.307311,-1.36451 5.174151,-3.45725 0.86684,-2.09275 0.38769,-4.50161 -1.20719,-6.09939 l -3.962031,-3.96493 z"
       id="path984-3-5-8-6-8"
       inkscape:connector-curvature="0"
       sodipodi:nodetypes="csssccc" />
    <path
       style="fill:none;stroke:#ff0000;stroke-width:0.26458332px;stroke-linecap:butt;stroke-linejoin:miter;stroke-opacity:1"
       d="m 84.440404,234.12192 c -1.59981,-1.59778 -2.07896,-4.00664 -1.21211,-6.09939 0.86684,-2.09274 2.90897,-3.45725 5.17414,-3.45725 2.265181,0 4.307311,1.36451 5.174151,3.45725 0.86684,2.09275 0.38769,4.50161 -1.20719,6.09939 l -3.962031,3.96493 z"
       id="path984-3-7-4-9-1-9"
       inkscape:connector-curvature="0"
       sodipodi:nodetypes="csssccc" />
    <path
       style="fill:none;stroke:#ff0000;stroke-width:0.26458332px;stroke-linecap:butt;stroke-linejoin:miter;stroke-opacity:1"
       d="m 92.372295,242.05381 c 1.59778,1.59981 4.00664,2.07896 6.099384,1.21211 2.092751,-0.86684 3.457261,-2.90897 3.457261,-5.17414 0,-2.26518 -1.36451,-4.30731 -3.457261,-5.17415 -2.092744,-0.86684 -4.501604,-0.3877 -6.099384,1.20719"
       id="path984-3-8-7-2-0-7"
       inkscape:connector-curvature="0"
       sodipodi:nodetypes="csssc" />
    <path
       style="fill:none;stroke:#ff0000;stroke-width:0.26458332px;stroke-linecap:butt;stroke-linejoin:miter;stroke-opacity:1"
       d="m 84.442434,234.1199 c -1.59779,-1.59981 -4.00664,-2.07897 -6.09939,-1.21212 -2.09275,0.86684 -3.457252,2.90897 -3.457253,5.17415 10e-7,2.26517 1.364503,4.3073 3.457253,5.17414 2.09275,0.86685 4.50161,0.3877 6.09939,-1.20719"
       id="path984-3-4-6-6-6-3"
       inkscape:connector-curvature="0"
       sodipodi:nodetypes="csssc" />
    <path
       style="opacity:1;fill:none;fill-opacity:1;stroke:#000000;stroke-width:0.26499999;stroke-linecap:round;stroke-linejoin:bevel;stroke-miterlimit:4;stroke-dasharray:none;stroke-opacity:1"
       id="path2741-6-8-1-6"
       sodipodi:type="arc"
       sodipodi:cx="233.62062"
       sodipodi:cy="-106.71965"
       sodipodi:rx="4.3073902"
       sodipodi:ry="4.3073902"
       sodipodi:start="6.0046133"
       sodipodi:end="6.0006332"
       sodipodi:open="true"
       d="m 237.76196,-107.90411 a 4.3073902,4.3073902 0 0 1 -2.95276,5.32462 4.3073902,4.3073902 0 0 1 -5.32755,-2.94746 4.3073902,4.3073902 0 0 1 2.94215,-5.33048 4.3073902,4.3073902 0 0 1 5.33341,2.93685"
       transform="rotate(92.517054)" />
    <path
       style="opacity:1;fill:none;fill-opacity:1;stroke:#000000;stroke-width:0.26499999;stroke-linecap:round;stroke-linejoin:bevel;stroke-miterlimit:4;stroke-dasharray:none;stroke-opacity:1"
       id="path2741-6-1-5-1"
       sodipodi:type="arc"
       sodipodi:cx="-99.132004"
       sodipodi:cy="-241.91615"
       sodipodi:rx="4.3073902"
       sodipodi:ry="4.3073902"
       sodipodi:start="6.0046133"
       sodipodi:end="6.0006332"
       sodipodi:open="true"
       d="m -94.990667,-243.10061 a 4.3073902,4.3073902 0 0 1 -2.952758,5.32461 4.3073902,4.3073902 0 0 1 -5.327545,-2.94745 4.3073902,4.3073902 0 0 1 2.94215,-5.33049 4.3073902,4.3073902 0 0 1 5.333406,2.93685"
       transform="rotate(-177.48295)" />
    <path
       style="opacity:1;fill:none;fill-opacity:1;stroke:#000000;stroke-width:0.26499999;stroke-linecap:round;stroke-linejoin:bevel;stroke-miterlimit:4;stroke-dasharray:none;stroke-opacity:1"
       id="path2741-6-8-7-9-2"
       sodipodi:type="arc"
       sodipodi:cx="-234.32849"
       sodipodi:cy="90.836502"
       sodipodi:rx="4.3073902"
       sodipodi:ry="4.3073902"
       sodipodi:start="6.0046133"
       sodipodi:end="6.0006332"
       sodipodi:open="true"
       d="m -230.18715,89.652043 a 4.3073902,4.3073902 0 0 1 -2.95276,5.324615 4.3073902,4.3073902 0 0 1 -5.32755,-2.947458 4.3073902,4.3073902 0 0 1 2.94215,-5.33048 4.3073902,4.3073902 0 0 1 5.33341,2.93685"
       transform="rotate(-87.482946)" />
    <g
       transform="translate(51.845295,5.8740177)"
       aria-label="ю"
       style="font-style:normal;font-weight:normal;font-size:8.85104179px;line-height:1.25;font-family:sans-serif;letter-spacing:0px;word-spacing:0px;fill:#000000;fill-opacity:1;stroke:none;stroke-width:0.26458332"
       id="text1242-3-4-9">
      <path
         inkscape:connector-curvature="0"
         d="m 37.783839,267.92581 q -0.639626,0 -1.0113,0.50133 -0.371675,0.497 -0.371675,1.36568 0,0.86869 0.367353,1.37001 0.371675,0.49701 1.015622,0.49701 0.635305,0 1.006979,-0.50133 0.371675,-0.50133 0.371675,-1.36569 0,-0.86003 -0.371675,-1.36136 -0.371674,-0.50565 -1.006979,-0.50565 z m -2.195473,1.37433 q 0.08211,-0.82114 0.618017,-1.43484 0.540225,-0.61369 1.577456,-0.61369 1.037232,0 1.629318,0.6742 0.592087,0.6742 0.592087,1.86701 0,1.1885 -0.592087,1.86702 -0.592086,0.6742 -1.629318,0.6742 -1.041553,0 -1.61203,-0.65259 -0.566156,-0.65259 -0.605052,-1.7244 h -0.898934 v 2.25166 h -0.79521 v -4.84041 h 0.79521 v 1.93184 z"
         style="stroke-width:0.26458332"
         id="path3008-3" />
    </g>
    <path
       style="fill:none;stroke:#ff0000;stroke-width:0.26458332px;stroke-linecap:butt;stroke-linejoin:miter;stroke-opacity:1"
       d="m 84.562234,271.33841 c -1.59981,1.59778 -2.07896,4.00664 -1.21211,6.09938 0.86684,2.09275 2.90897,3.45726 5.17414,3.45726 2.265181,0 4.307311,-1.36451 5.174151,-3.45726 0.86684,-2.09274 0.38769,-4.5016 -1.20719,-6.09938 l -3.962031,-3.96493 z"
       id="path984-3-09-1"
       inkscape:connector-curvature="0"
       sodipodi:nodetypes="csssccc" />
    <path
       style="fill:none;stroke:#ff0000;stroke-width:0.26458332px;stroke-linecap:butt;stroke-linejoin:miter;stroke-opacity:1"
       d="m 84.564264,263.40652 c -1.59981,-1.59778 -2.07896,-4.00664 -1.21212,-6.09938 0.86685,-2.09275 2.90898,-3.45726 5.17415,-3.45726 2.265171,0 4.307301,1.36451 5.174151,3.45726 0.86684,2.09274 0.38769,4.5016 -1.2072,6.09938 l -3.962031,3.96493 z"
       id="path984-3-7-1-9"
       inkscape:connector-curvature="0"
       sodipodi:nodetypes="csssccc" />
    <g
       aria-label="ж"
       transform="rotate(180,25.792719,3.1614323)"
       style="font-style:normal;font-weight:normal;font-size:8.85104179px;line-height:1.25;font-family:sans-serif;letter-spacing:0px;word-spacing:0px;fill:#000000;fill-opacity:1;stroke:none;stroke-width:0.26458332"
       id="text1242-3-5-6-7-4">
      <path
         inkscape:connector-curvature="0"
         d="m -37.336397,-255.44674 h 0.790889 v 2.27327 l 2.113359,-2.27327 h 0.924865 l -1.737363,1.8627 1.988027,2.97772 h -0.851394 l -1.629318,-2.44614 -0.808176,0.86868 v 1.57746 h -0.790889 v -1.57746 l -0.808176,-0.86868 -1.629318,2.44614 h -0.851394 l 1.988027,-2.97772 -1.737363,-1.8627 h 0.924865 l 2.113359,2.27327 z"
         style="stroke-width:0.26458332"
         id="path3011-7" />
    </g>
  </g>
</svg>
